<svg width="24" height="24" viewBox="0 0 24 24" fill="none" xmlns="http://www.w3.org/2000/svg">
<path d="M3 14.5H2V16.9142L3.70711 15.2071L3 14.5ZM5.5 12V11H5.08579L4.79289 11.2929L5.5 12ZM21 20L20.2929 20.7071L22 22.4142V20H21ZM18 17L18.7071 16.2929L18.4142 16H18V17ZM4 14.5V4H2V14.5H4ZM4 4H15V2H4V4ZM15 4V11H17V4H15ZM15 11H5.5V13H15V11ZM4.79289 11.2929L2.29289 13.7929L3.70711 15.2071L6.20711 12.7071L4.79289 11.2929ZM20 8V20H22V8H20ZM21.7071 19.2929L18.7071 16.2929L17.2929 17.7071L20.2929 20.7071L21.7071 19.2929ZM18 16H8V18H18V16ZM8 16V15H6V16H8ZM19 8H20V6H19V8ZM22 8C22 6.89543 21.1046 6 20 6V8H22ZM8 16H8H6C6 17.1046 6.89543 18 8 18V16ZM15 11V13C16.1046 13 17 12.1046 17 11H15ZM15 4H17C17 2.89543 16.1046 2 15 2V4ZM4 4V4V2C2.89543 2 2 2.89543 2 4H4Z" fill="#555555"/>
</svg>
