<svg width="24" height="24" viewBox="0 0 24 24" fill="none" xmlns="http://www.w3.org/2000/svg">
<path d="M5 20C5 20.5523 5.44772 21 6 21C6.55228 21 7 20.5523 7 20H5ZM6 4.91885L5.37528 4.138C5.13808 4.32778 5 4.61508 5 4.91885H6ZM19 4.91883H20C20 4.45505 19.6811 4.05212 19.2297 3.94558C18.7784 3.83903 18.313 4.05682 18.1056 4.47165L19 4.91883ZM19 14.2795L19.8944 14.7267C19.9639 14.5879 20 14.4348 20 14.2795H19ZM6.62472 5.6997C7.16278 5.26922 9.42598 4.30015 12.8738 5.83265L13.6862 4.00505C9.64602 2.20929 6.57055 3.18171 5.37528 4.138L6.62472 5.6997ZM12.8738 5.83265C14.8495 6.71079 16.3841 6.94764 17.545 6.7943C18.6968 6.64215 19.5341 6.08669 19.8944 5.36601L18.1056 4.47165C18.1192 4.44436 17.9685 4.72098 17.283 4.81152C16.6066 4.90088 15.4545 4.79103 13.6862 4.00505L12.8738 5.83265ZM18 4.91883V14.2795H20V4.91883H18ZM18.1056 13.8324C18.1178 13.8079 17.9303 14.1237 17.1139 14.287C16.3247 14.4449 15.0238 14.4347 13.0474 13.8418L12.4726 15.7574C14.6562 16.4125 16.302 16.489 17.5061 16.2482C18.683 16.0128 19.5355 15.4446 19.8944 14.7267L18.1056 13.8324ZM7 20V14.7996H5V20H7ZM7 14.7996V4.91885H5V14.7996H7ZM13.0474 13.8418C10.8758 13.1902 9.1886 13.0365 7.93292 13.1399C6.72257 13.2396 5.79422 13.5911 5.29287 14.0925L6.70713 15.5067C6.70066 15.5131 6.78463 15.4351 7.03423 15.3438C7.27074 15.2573 7.61974 15.1725 8.09708 15.1332C9.0514 15.0546 10.4842 15.1608 12.4726 15.7574L13.0474 13.8418Z" fill="#fff"/>
</svg>
