<svg width="512" height="450" viewBox="0 0 512 450" fill="none" xmlns="http://www.w3.org/2000/svg">
    <g id="Illustration">
        <g id="Shape">
            <path id="Oval" opacity="0.0528274" fill-rule="evenodd" clip-rule="evenodd" d="M511.615 136.555C511.615 61.1377 450.243 0 374.536 0C298.829 0 237.456 61.1377 237.456 136.555C237.456 211.972 298.829 273.11 374.536 273.11C450.243 273.11 511.615 211.972 511.615 136.555ZM288.701 136.555C288.701 89.3315 327.13 51.049 374.536 51.049C421.941 51.049 460.37 89.3315 460.37 136.555C460.37 183.779 421.941 222.062 374.536 222.062C327.13 222.062 288.701 183.779 288.701 136.555Z" fill="#018ABE" />
            <g id="Oval_2" opacity="0.14102" filter="url(#filter0_f_1611:50916)">
                <path fill-rule="evenodd" clip-rule="evenodd" d="M83.7212 216.531C83.7212 195.151 66.3227 177.819 44.8606 177.819C23.3985 177.819 6 195.151 6 216.531C6 237.911 23.3985 255.243 44.8606 255.243C66.3227 255.243 83.7212 237.911 83.7212 216.531ZM31.6223 216.531C31.6223 209.248 37.5493 203.343 44.8605 203.343C52.1718 203.343 58.0988 209.248 58.0988 216.531C58.0988 223.814 52.1718 229.719 44.8605 229.719C37.5493 229.719 31.6223 223.814 31.6223 216.531Z" fill="#8BF78F" />
            </g>
            <ellipse id="Oval_3" cx="164.859" cy="340.324" rx="76.8671" ry="76.5728" fill="#018ABE" fill-opacity="0.0612161" />
            <ellipse id="Oval_4" opacity="0.14102" cx="139.236" cy="72.3184" rx="27.3305" ry="27.2259" fill="#CEF5FF" />
            <g id="Oval_5" filter="url(#filter1_f_1611:50916)">
                <ellipse cx="461.224" cy="340.324" rx="27.3305" ry="27.2259" fill="#018ABE" fill-opacity="0.135927" />
            </g>
        </g>
        <g id="File Organizer">
            <g id="Phone3">
                <path id="Rectangle" fill-rule="evenodd" clip-rule="evenodd" d="M165.017 118.565C165.017 104.683 176.271 93.4285 190.154 93.4285H312.667C326.55 93.4285 337.804 104.683 337.804 118.565V424.32C337.804 438.203 326.55 449.457 312.667 449.457H190.154C176.271 449.457 165.017 438.203 165.017 424.32V118.565Z" fill="#C4E3E7" />
                <g id="Group 48">
                    <path id="Rectangle_2" fill-rule="evenodd" clip-rule="evenodd" d="M171.249 119.125C171.249 108.896 179.542 100.603 189.771 100.603H210.043C210.681 100.603 211.203 101.11 211.222 101.748C211.355 106.319 215.099 109.956 219.672 109.956H282.584C287.157 109.956 290.901 106.319 291.034 101.748C291.053 101.11 291.575 100.603 292.213 100.603H312.485C322.714 100.603 331.007 108.896 331.007 119.125V421.635C331.007 431.864 322.714 440.157 312.485 440.157H189.771C179.542 440.157 171.249 431.864 171.249 421.635V119.125Z" fill="white" />
                    <mask id="mask0_1611:50916" style="mask-type:alpha" maskUnits="userSpaceOnUse" x="171" y="100" width="161" height="341">
                        <path id="Rectangle_3" fill-rule="evenodd" clip-rule="evenodd" d="M171.249 119.125C171.249 108.896 179.542 100.603 189.771 100.603H210.043C210.681 100.603 211.203 101.11 211.222 101.748C211.355 106.319 215.099 109.956 219.672 109.956H282.584C287.157 109.956 290.901 106.319 291.034 101.748C291.053 101.11 291.575 100.603 292.213 100.603H312.485C322.714 100.603 331.007 108.896 331.007 119.125V421.635C331.007 431.864 322.714 440.157 312.485 440.157H189.771C179.542 440.157 171.249 431.864 171.249 421.635V119.125Z" fill="white" />
                    </mask>
                    <g mask="url(#mask0_1611:50916)">
                        <ellipse id="Oval_6" opacity="0.0987723" cx="231.816" cy="307.269" rx="13.7026" ry="13.6041" fill="#018ABE" />
                        <path id="Oval_7" opacity="0.14102" fill-rule="evenodd" clip-rule="evenodd" d="M313.818 293.665C350.356 293.665 379.976 323.072 379.976 359.347C379.976 395.623 350.356 425.03 313.818 425.03C277.28 425.03 247.66 395.623 247.66 359.347C247.66 323.072 277.28 293.665 313.818 293.665ZM313.819 322.361C293.244 322.361 276.565 338.921 276.565 359.348C276.565 379.775 293.244 396.334 313.819 396.334C334.394 396.334 351.073 379.775 351.073 359.348C351.073 338.921 334.394 322.361 313.819 322.361Z" fill="#C8F5D0" />
                        <path id="Rectangle_4" fill-rule="evenodd" clip-rule="evenodd" d="M190.709 163.363C190.709 160.898 192.708 158.899 195.173 158.899H308.284C310.749 158.899 312.748 160.898 312.748 163.363C312.748 165.828 310.749 167.827 308.284 167.827H195.173C192.708 167.827 190.709 165.828 190.709 163.363Z" fill="#68DE9E" fill-opacity="0.642073" />
                    </g>
                </g>
                <path id="Path" d="M260.777 99.6619C262.256 99.6619 263.454 100.804 263.454 102.213C263.454 103.59 262.308 104.713 260.876 104.762L260.777 104.763H230.515C229.037 104.763 227.839 103.621 227.839 102.213C227.839 100.835 228.984 99.7128 230.417 99.6635L230.515 99.6619H260.777Z" fill="#56CDD9" />
                <path id="Path_2" d="M271.622 99.2366C273.1 99.2366 274.299 100.426 274.299 101.894C274.299 103.328 273.153 104.498 271.72 104.549L271.622 104.551H271.482C270.004 104.551 268.806 103.361 268.806 101.894C268.806 100.459 269.951 99.2896 271.384 99.2383L271.482 99.2366H271.622Z" fill="#56CDD9" />
            </g>
            <g id="Icon54">
                <g id="Group 37">
                    <path id="Rectangle_5" fill-rule="evenodd" clip-rule="evenodd" d="M176.15 217.915C176.15 215.706 177.941 213.915 180.15 213.915H184.393C186.602 213.915 188.393 215.706 188.393 217.915V219.543C188.393 220.216 188.939 220.762 189.613 220.762H227.754C229.963 220.762 231.754 222.553 231.754 224.762V256.566C231.754 258.775 229.963 260.566 227.754 260.566H180.15C177.941 260.566 176.15 258.775 176.15 256.566V217.915Z" fill="url(#paint0_linear_1611:50916)" />
                    <path id="Rectangle_6" fill-rule="evenodd" clip-rule="evenodd" d="M189.317 218.18C189.412 217.589 189.922 217.155 190.521 217.155H232.639C233.39 217.155 233.962 217.826 233.843 218.567L227.52 257.921C227.426 258.512 226.915 258.947 226.317 258.947H184.198C183.448 258.947 182.875 258.275 182.995 257.534L189.317 218.18Z" fill="url(#paint1_linear_1611:50916)" />
                    <path id="Rectangle_7" fill-rule="evenodd" clip-rule="evenodd" d="M234.278 227.768C236.795 227.768 238.687 230.066 238.203 232.537L233.876 254.63C233.141 258.384 229.851 261.093 226.025 261.093H181.01C178.492 261.093 176.6 258.795 177.084 256.324L181.411 234.23C182.146 230.476 185.436 227.768 189.262 227.768L234.278 227.768Z" fill="#FFCC7B" />
                </g>
            </g>
            <g id="Group 28">
                <path id="Rectangle_8" fill-rule="evenodd" clip-rule="evenodd" d="M112.775 175.952C112.775 172.638 115.462 169.952 118.775 169.952H143.918L153.883 180.155V212.417C153.883 215.731 151.197 218.417 147.883 218.417H118.775C115.462 218.417 112.775 215.731 112.775 212.417V175.952Z" fill="#8AD0EB" />
                <g id="Icon">
                    <path id="Mask" fill-rule="evenodd" clip-rule="evenodd" d="M137.037 204.68C138.459 204.68 139.547 203.593 139.547 202.171V188.787C139.547 187.365 138.459 186.278 137.037 186.278H132.854C132.352 186.278 132.017 186.612 132.017 187.114C132.017 187.616 132.352 187.951 132.854 187.951H137.037C137.539 187.951 137.874 188.285 137.874 188.787V202.171C137.874 202.673 137.539 203.007 137.037 203.007H132.854C132.352 203.007 132.017 203.342 132.017 203.844C132.017 204.346 132.352 204.68 132.854 204.68H137.037ZM134.444 195.144C134.527 195.395 134.527 195.646 134.444 195.813C134.444 195.897 134.36 195.981 134.276 196.064L130.93 199.41C130.762 199.578 130.511 199.661 130.344 199.661C130.177 199.661 129.926 199.578 129.759 199.41C129.424 199.076 129.424 198.574 129.759 198.239L131.683 196.315H123.651C123.149 196.315 122.814 195.981 122.814 195.479C122.814 194.977 123.149 194.642 123.651 194.642H131.683L129.759 192.718C129.424 192.384 129.424 191.882 129.759 191.547C130.093 191.213 130.595 191.213 130.93 191.547L134.276 194.893C134.318 194.935 134.339 194.977 134.36 195.019C134.381 195.061 134.402 195.102 134.444 195.144Z" fill="black" />
                    <mask id="mask1_1611:50916" style="mask-type:alpha" maskUnits="userSpaceOnUse" x="122" y="186" width="18" height="19">
                        <path id="Mask_2" fill-rule="evenodd" clip-rule="evenodd" d="M137.037 204.68C138.459 204.68 139.547 203.593 139.547 202.171V188.787C139.547 187.365 138.459 186.278 137.037 186.278H132.854C132.352 186.278 132.017 186.612 132.017 187.114C132.017 187.616 132.352 187.951 132.854 187.951H137.037C137.539 187.951 137.874 188.285 137.874 188.787V202.171C137.874 202.673 137.539 203.007 137.037 203.007H132.854C132.352 203.007 132.017 203.342 132.017 203.844C132.017 204.346 132.352 204.68 132.854 204.68H137.037ZM134.444 195.144C134.527 195.395 134.527 195.646 134.444 195.813C134.444 195.897 134.36 195.981 134.276 196.064L130.93 199.41C130.762 199.578 130.511 199.661 130.344 199.661C130.177 199.661 129.926 199.578 129.759 199.41C129.424 199.076 129.424 198.574 129.759 198.239L131.683 196.315H123.651C123.149 196.315 122.814 195.981 122.814 195.479C122.814 194.977 123.149 194.642 123.651 194.642H131.683L129.759 192.718C129.424 192.384 129.424 191.882 129.759 191.547C130.093 191.213 130.595 191.213 130.93 191.547L134.276 194.893C134.318 194.935 134.339 194.977 134.36 195.019C134.381 195.061 134.402 195.102 134.444 195.144Z" fill="white" />
                    </mask>
                    <g mask="url(#mask1_1611:50916)">
                        <g id="Icon Color">
                            <rect id="&#240;&#159;&#142;&#168; Icon Color" x="121.142" y="185.441" width="20.0792" height="20.0755" fill="white" />
                        </g>
                    </g>
                </g>
                <path id="Path_3" opacity="0.33996" d="M153.882 180.155H146.917C145.26 180.155 143.917 178.812 143.917 177.155V169.952L153.882 180.155Z" fill="#018ABE" />
            </g>
            <g id="Group">
                <path id="Rectangle_9" fill-rule="evenodd" clip-rule="evenodd" d="M130.761 301.79C130.761 298.476 133.447 295.79 136.761 295.79H182.997C186.311 295.79 188.997 298.476 188.997 301.79V338.255C188.997 341.569 186.311 344.255 182.997 344.255H136.761C133.447 344.255 130.761 341.569 130.761 338.255V301.79Z" fill="#6FD9E6" />
                <g id="Icon_2">
                    <path id="Mask_3" fill-rule="evenodd" clip-rule="evenodd" d="M166.04 318.097H165.063V315.169C165.063 311.949 162.428 309.314 159.207 309.314C155.986 309.314 153.351 311.949 153.351 315.169V318.097H152.375C150.715 318.097 149.446 319.365 149.446 321.024V327.856C149.446 329.515 150.715 330.783 152.375 330.783H166.04C167.699 330.783 168.968 329.515 168.968 327.856V321.024C168.968 319.365 167.699 318.097 166.04 318.097ZM155.303 315.169C155.303 313.022 157.06 311.266 159.207 311.266C161.354 311.266 163.111 313.022 163.111 315.169V318.097H155.303V315.169ZM166.04 328.832C166.625 328.832 167.016 328.441 167.016 327.856V321.024C167.016 320.439 166.625 320.049 166.04 320.049H152.375C151.789 320.049 151.398 320.439 151.398 321.024V327.856C151.398 328.441 151.789 328.832 152.375 328.832H166.04Z" fill="black" />
                    <mask id="mask2_1611:50916" style="mask-type:alpha" maskUnits="userSpaceOnUse" x="149" y="309" width="20" height="22">
                        <path id="Mask_4" fill-rule="evenodd" clip-rule="evenodd" d="M166.04 318.097H165.063V315.169C165.063 311.949 162.428 309.314 159.207 309.314C155.986 309.314 153.351 311.949 153.351 315.169V318.097H152.375C150.715 318.097 149.446 319.365 149.446 321.024V327.856C149.446 329.515 150.715 330.783 152.375 330.783H166.04C167.699 330.783 168.968 329.515 168.968 327.856V321.024C168.968 319.365 167.699 318.097 166.04 318.097ZM155.303 315.169C155.303 313.022 157.06 311.266 159.207 311.266C161.354 311.266 163.111 313.022 163.111 315.169V318.097H155.303V315.169ZM166.04 328.832C166.625 328.832 167.016 328.441 167.016 327.856V321.024C167.016 320.439 166.625 320.049 166.04 320.049H152.375C151.789 320.049 151.398 320.439 151.398 321.024V327.856C151.398 328.441 151.789 328.832 152.375 328.832H166.04Z" fill="white" />
                    </mask>
                    <g mask="url(#mask2_1611:50916)">
                        <g id="Icon Color_2">
                            <rect id="&#240;&#159;&#142;&#168; Icon Color_2" x="147.494" y="308.338" width="23.4257" height="23.4214" fill="white" />
                        </g>
                    </g>
                </g>
            </g>
            <g id="Group 34">
                <path id="Rectangle_10" d="M181.289 147.043C181.289 143.729 183.975 141.043 187.289 141.043H233.525C236.839 141.043 239.525 143.729 239.525 147.043V183.508C239.525 186.821 236.839 189.508 233.525 189.508H187.289C183.975 189.508 181.289 186.821 181.289 183.508V147.043Z" fill="#BAF3C4" />
                <mask id="mask3_1611:50916" style="mask-type:alpha" maskUnits="userSpaceOnUse" x="181" y="141" width="59" height="49">
                    <path id="Rectangle_11" d="M181.289 147.043C181.289 143.729 183.975 141.043 187.289 141.043H233.525C236.839 141.043 239.525 143.729 239.525 147.043V183.508C239.525 186.821 236.839 189.508 233.525 189.508H187.289C183.975 189.508 181.289 186.821 181.289 183.508V147.043Z" fill="white" />
                </mask>
                <g mask="url(#mask3_1611:50916)">
                    <ellipse id="Oval_8" cx="206.981" cy="158.899" rx="7.70772" ry="7.65233" fill="white" />
                    <ellipse id="Oval_9" cx="189.426" cy="198.436" rx="27.8334" ry="27.6334" fill="#28C76F" />
                    <ellipse id="Oval_10" cx="239.954" cy="192.059" rx="32.9719" ry="32.3098" fill="#69E09E" />
                </g>
            </g>
            <g id="Group 23">
                <g id="Rectangle_12" filter="url(#filter2_dd_1611:50916)">
                    <path fill-rule="evenodd" clip-rule="evenodd" d="M258.406 131.527C258.384 125.988 262.868 121.487 268.406 121.487L350.662 121.487C356.169 121.487 360.64 125.94 360.662 131.447L361.096 240.687C361.118 246.225 356.634 250.726 351.096 250.726H268.84C263.333 250.726 258.862 246.273 258.84 240.766L258.406 131.527Z" fill="white" />
                </g>
                <path id="Rectangle_13" opacity="0.33996" d="M290.911 203.962C290.911 202.554 292.053 201.412 293.462 201.412H326.043C327.451 201.412 328.593 202.554 328.593 203.962C328.593 205.371 327.451 206.513 326.043 206.513H293.462C292.053 206.513 290.911 205.371 290.911 203.962Z" fill="#018ABE" />
                <path id="Rectangle_14" opacity="0.33996" d="M282.347 217.566C282.347 216.157 283.489 215.015 284.897 215.015H334.606C336.015 215.015 337.157 216.157 337.157 217.566C337.157 218.975 336.015 220.117 334.606 220.117H284.897C283.489 220.117 282.347 218.975 282.347 217.566Z" fill="#018ABE" />
                <g id="Icon8">
                    <g id="Oval_11" filter="url(#filter3_dd_1611:50916)">
                        <ellipse cx="309.816" cy="162.799" rx="19.7617" ry="20.0557" fill="white" />
                    </g>
                    <g id="Group 70">
                        <path id="Combined Shape" fill-rule="evenodd" clip-rule="evenodd" d="M310.189 162.134C312.981 162.134 315.245 159.887 315.245 157.115C315.245 154.343 312.981 152.096 310.189 152.096C307.397 152.096 305.134 154.343 305.134 157.115C305.134 159.887 307.397 162.134 310.189 162.134ZM309.551 163.555C305.405 163.555 302.044 166.916 302.044 171.062C302.044 171.535 302.428 171.919 302.902 171.919H317.475C317.949 171.919 318.333 171.535 318.333 171.062C318.333 166.916 314.972 163.555 310.826 163.555H309.551Z" fill="#018ABE" />
                    </g>
                </g>
            </g>
            <g id="Wom3.5">
                <g id="RArm">
                    <path id="Path_4" fill-rule="evenodd" clip-rule="evenodd" d="M407.621 266.995C407.621 266.995 398.044 276.401 398.631 277.321C399.219 278.247 404.045 276.095 404.045 276.095C404.045 276.095 398.023 285.976 399.262 286.735C400.501 287.494 406.836 285.957 408.778 283.92C410.721 281.883 413.719 271.606 413.719 271.606L428.285 244.523L417.721 240.894L407.621 266.995Z" fill="url(#paint2_linear_1611:50916)" />
                    <path id="Path_5" fill-rule="evenodd" clip-rule="evenodd" d="M397.841 216.932C401.863 223.136 415.401 240.817 415.401 240.817L414.415 244.345L426.856 252.813C426.856 252.813 430.391 243.119 430.698 241.755C431.709 237.256 411.269 208.547 406.692 204.399C399.486 197.867 391.695 207.45 397.841 216.932Z" fill="#FD8715" />
                    <path id="Path_6" fill-rule="evenodd" clip-rule="evenodd" d="M418.637 245.511C418.869 245.062 415.421 240.754 415.421 240.754L414.837 242.849C414.837 242.849 418.405 245.961 418.637 245.511Z" fill="black" fill-opacity="0.159856" />
                    <path id="Path 70" fill-rule="evenodd" clip-rule="evenodd" d="M414.336 243.161L427.554 253.182L424.609 259.664L413.052 246.901L414.336 243.161Z" fill="#FFEDC2" />
                </g>
                <g id="RLeg">
                    <path id="Path_7" fill-rule="evenodd" clip-rule="evenodd" d="M405.996 425.551L405.262 437.97L414.673 438.214L412.904 425.551H405.996Z" fill="url(#paint3_linear_1611:50916)" />
                    <path id="Path_8" fill-rule="evenodd" clip-rule="evenodd" d="M415.118 430.444C415.118 430.444 414.854 437.923 416.414 440.534C417.984 443.145 418.46 445.169 418.529 446.731C418.603 448.405 418.444 449.922 418.444 449.922H402.867C402.867 449.922 402.477 442.053 403.509 440.569C404.54 439.086 405.217 439.06 405.217 437.749C405.225 436.438 405.448 430.493 405.448 430.493L415.118 430.444Z" fill="#391B0B" />
                    <path id="Path_9" fill-rule="evenodd" clip-rule="evenodd" d="M372.837 259.748L397.251 257.113L397.61 257.444C399.35 259.09 406.912 266.734 409.085 277.183C413.187 296.909 407.697 333.342 407.818 341.331C407.934 349.32 411.737 354.141 413.317 365.436C414.897 376.732 415.046 427.215 415.046 427.215C410.857 429.68 407.17 429.856 402.175 427.067L372.837 259.748Z" fill="#4E3319" />
                    <path id="Path_10" fill-rule="evenodd" clip-rule="evenodd" d="M394.645 384.122L372.837 259.748L386.411 258.282C387.016 301.49 395.458 359.894 394.645 384.122Z" fill="white" fill-opacity="0.192499" />
                </g>
                <g id="LLeg">
                    <path id="Path_11" fill-rule="evenodd" clip-rule="evenodd" d="M377.837 424.245L369.811 424.374C369.811 424.374 370.339 432.645 367.253 435.447L367.084 435.593C363.359 438.694 377.732 437.575 377.732 437.575L377.837 424.245Z" fill="url(#paint4_linear_1611:50916)" />
                    <path id="Path_12" fill-rule="evenodd" clip-rule="evenodd" d="M378.263 430.692L378.032 449.914L372.317 449.918L372.267 445.182C372.267 445.182 370.465 449.598 367.71 449.853C364.947 450.108 352.634 449.952 352.634 449.952C352.634 449.952 351.612 445.517 357.74 443.504C362.838 441.83 368.474 430.692 368.474 430.692H378.263Z" fill="#391B0B" />
                    <path id="Path_13" fill-rule="evenodd" clip-rule="evenodd" d="M360.725 261.457L388.14 260.535L388.345 260.912C389.675 263.417 396.964 278.083 394.713 294.754C391.554 318.153 383.523 345.585 383.13 349.775C382.429 357.247 383.831 362.656 384.406 370.373C384.981 378.09 382.213 426.624 382.213 426.624C378.145 429.054 373.304 429.53 367.15 426.698C367.15 426.698 361.594 360.774 361.553 350.341C361.512 339.908 360.725 261.457 360.725 261.457Z" fill="#604021" />
                    <path id="Path_14" fill-rule="evenodd" clip-rule="evenodd" d="M366.366 286.767L366.184 288.501C364.357 306.782 364.371 345.605 365.078 351.593L365.175 352.365C365.96 359.121 365.985 376.274 365.252 403.824L364.296 391.936C362.486 369.06 361.572 355.195 361.553 350.341L361.519 345.317C361.362 325.002 360.725 261.457 360.725 261.457L366.506 261.263C367.124 271.294 367.077 279.795 366.366 286.767Z" fill="white" fill-opacity="0.192499" />
                </g>
                <g id="Head">
                    <path id="Path_15" fill-rule="evenodd" clip-rule="evenodd" d="M371.181 174.807C367.808 175.174 368.047 181.062 372.153 181.369C372.992 187.045 375.986 189.749 379.635 190.062L379.432 198.647L395.574 198.638C395.574 198.638 391.029 192.573 391.255 184.27C391.482 175.967 391.103 168.167 391.103 168.167L370.196 168.54L371.181 174.807Z" fill="url(#paint5_linear_1611:50916)" />
                    <path id="Path_16" fill-rule="evenodd" clip-rule="evenodd" d="M370.447 175.249C374.376 173.706 377.278 180.348 380.284 184.964C383.29 189.58 391.079 188.796 392.152 184.964C396.216 176.572 399.718 165.162 394.976 164.226C394.308 152.096 362.332 154.96 370.447 175.249Z" fill="#8B5030" />
                    <path id="Combined Shape_2" fill-rule="evenodd" clip-rule="evenodd" d="M392.315 159.386H385.43H385.319L385.244 159.469C379.098 166.28 377.709 176.301 380.555 185.352C380.806 185.682 381.084 185.981 381.382 186.25C378.14 177.106 379.363 166.804 385.541 159.886H392.909C392.721 159.712 392.523 159.545 392.315 159.386Z" fill="black" fill-opacity="0.199355" />
                    <ellipse id="Oval_12" cx="388.114" cy="159.636" rx="3.85386" ry="3.82617" fill="#FB9934" />
                </g>
                <g id="Body">
                    <path id="Path_17" fill-rule="evenodd" clip-rule="evenodd" d="M366.945 200.311C363.344 205.563 357.342 223.389 357.002 227.399C356.619 232.024 361.613 239.393 361.696 246.09C361.769 252.787 357.97 272.952 359.111 274.836C360.244 276.719 392.711 285.059 394.83 285.015C396.939 284.969 410.257 273.618 408.586 269.696C406.905 265.773 399.107 256.025 399.902 250.681C400.687 245.337 405.247 225.611 407.512 218.897C409.767 212.183 409.015 205.135 404.806 202.246C402.723 200.816 397.165 196.755 387.267 196.774C377.369 196.792 367.225 199.904 366.945 200.311Z" fill="#FD8715" />
                    <path id="Path 68" fill-rule="evenodd" clip-rule="evenodd" d="M378.122 196.389C378.122 196.389 377.706 198.648 379.529 198.648C381.353 198.648 393.584 199.048 395.241 198.334C396.897 197.62 396.4 196.389 396.4 196.389H378.122Z" fill="#FFF6E1" />
                    <path id="Path_18" fill-rule="evenodd" clip-rule="evenodd" d="M361.72 211.671L361.831 211.615C368.5 208.31 372.506 208.164 373.849 211.177C375.585 215.072 371.083 224.432 360.345 239.256C358.87 234.76 356.749 230.474 357.003 227.399C357.2 225.078 359.293 218.131 361.72 211.671Z" fill="black" fill-opacity="0.159856" />
                </g>
                <g id="LArm">
                    <path id="Path_19" fill-rule="evenodd" clip-rule="evenodd" d="M317.23 200.721C317.23 200.721 316.028 198.131 314.14 197.431C312.252 196.73 309.363 192.09 309.81 190.742C310.256 189.395 314.163 185.658 314.163 185.658C314.163 185.658 310.709 176.456 312.239 175.418C313.59 174.5 318.704 186.09 318.704 186.09C318.704 186.09 321.711 186.54 322.405 187.725C324.153 190.712 322.832 197.431 322.832 197.431L340.581 223.182L332.437 233.549L317.23 200.721Z" fill="url(#paint6_linear_1611:50916)" />
                    <path id="Path_20" fill-rule="evenodd" clip-rule="evenodd" d="M362.54 202.717C356.537 208.012 341.855 222.058 341.855 222.058L339.673 218.739L328.692 229.903C328.692 229.903 336.976 242.101 339.673 242.186C346.701 242.408 359.293 229.234 371.132 218.948C381.747 209.724 373.73 192.848 362.54 202.717Z" fill="#FD8715" />
                    <path id="Path_21" fill-rule="evenodd" clip-rule="evenodd" d="M341.898 222.075C341.898 222.075 337.779 226.805 337.439 226.289C337.099 225.773 340.546 220.024 340.546 220.024L341.898 222.075Z" fill="black" fill-opacity="0.159856" />
                    <path id="Path 69" fill-rule="evenodd" clip-rule="evenodd" d="M340.988 219.492L328.253 233.549L324.329 225.527L338.565 216.657L340.988 219.492Z" fill="#FFEDC2" />
                </g>
                <path id="Path_22" fill-rule="evenodd" clip-rule="evenodd" d="M387.437 156.591C387.437 156.591 391.043 151.927 395.207 153.151C399.371 154.374 403.138 161.875 401.35 168.924C399.57 175.975 401.038 179.997 403.197 184.749C408.996 197.531 388.917 205.647 388.917 205.647C388.917 205.647 390.484 196.175 387.437 190.456C384.298 184.566 382.516 177.012 382.516 172.39C382.516 164.352 387.437 156.591 387.437 156.591Z" fill="#8B5030" />
            </g>
            <g id="Group 39">
                <path id="Rectangle_15" fill-rule="evenodd" clip-rule="evenodd" d="M342.295 105.422C356.804 97.1222 371.511 97.6136 386.383 105.422L385.441 115.84C384.164 129.959 376.356 142.668 364.339 150.189C351.801 142.72 343.767 129.535 342.878 114.968L342.295 105.422Z" fill="#28C76F" />
                <ellipse id="Oval_13" cx="364.339" cy="122.261" rx="12.024" ry="11.9376" fill="#1CA258" />
                <g id="Group 40">
                    <path id="Path_23" fill-rule="evenodd" clip-rule="evenodd" d="M364.166 113.78C367.991 113.78 371.301 116.339 372.261 119.948C372.336 120.227 372.168 120.513 371.887 120.586C371.606 120.66 371.318 120.494 371.244 120.215C370.405 117.062 367.511 114.825 364.166 114.825C360.124 114.825 356.848 118.066 356.848 122.063C356.848 124.32 357.593 126.348 359.093 128.167C359.277 128.39 359.244 128.72 359.019 128.902C358.794 129.085 358.463 129.052 358.279 128.829C356.627 126.825 355.796 124.563 355.796 122.063C355.796 117.488 359.544 113.78 364.166 113.78Z" fill="white" />
                    <path id="Path_24" fill-rule="evenodd" clip-rule="evenodd" d="M362.306 116.718C365.283 115.7 368.498 117.173 369.596 120.054L369.656 120.218C370.22 121.846 370.988 122.582 371.97 122.57C372.261 122.566 372.499 122.797 372.503 123.085C372.506 123.374 372.274 123.611 371.983 123.614C370.519 123.633 369.432 122.637 368.732 120.756L368.661 120.558C367.815 118.119 365.137 116.855 362.649 117.705C360.409 118.471 359.211 121.178 359.738 123.564C359.84 124.029 359.97 124.446 360.137 124.847L360.287 125.195C360.786 126.291 361.436 127.113 364.369 130.612C364.554 130.834 364.524 131.163 364.301 131.347C364.077 131.532 363.746 131.502 363.56 131.28L361.987 129.393C360.099 127.107 359.673 126.455 359.197 125.325L359.164 125.245C358.973 124.786 358.826 124.31 358.71 123.787C358.077 120.921 359.515 117.672 362.306 116.718Z" fill="white" />
                    <path id="Path_25" fill-rule="evenodd" clip-rule="evenodd" d="M363.521 119.537C365.063 119.01 366.769 119.833 367.249 121.373C367.94 123.591 369.212 124.969 371.09 125.561C371.367 125.648 371.52 125.942 371.432 126.217C371.344 126.492 371.049 126.644 370.772 126.556C368.549 125.856 367.032 124.213 366.244 121.681C365.942 120.713 364.852 120.187 363.864 120.525C362.812 120.884 362.291 121.892 362.578 123.271C362.724 123.972 363.301 124.926 364.283 126.17L364.45 126.38C364.588 126.552 364.733 126.728 364.89 126.916L366.58 128.902C366.765 129.124 366.734 129.453 366.51 129.637C366.286 129.821 365.955 129.79 365.77 129.567L364.417 127.983L364.079 127.582C363.918 127.39 363.77 127.209 363.628 127.032L363.287 126.601C362.309 125.337 361.726 124.34 361.548 123.482C361.158 121.607 361.95 120.075 363.521 119.537Z" fill="white" />
                    <path id="Path_26" fill-rule="evenodd" clip-rule="evenodd" d="M364.458 122.382C364.736 122.297 365.03 122.452 365.115 122.728C365.682 124.566 366.793 125.87 368.881 127.427C369.113 127.6 369.16 127.927 368.986 128.158C368.811 128.389 368.482 128.435 368.249 128.262C365.999 126.585 364.753 125.122 364.109 123.034C364.024 122.758 364.18 122.466 364.458 122.382Z" fill="white" />
                </g>
            </g>
        </g>
    </g>
    <defs>
        <filter id="filter0_f_1611:50916" x="0.563437" y="172.383" width="88.5938" height="88.2967" filterUnits="userSpaceOnUse" color-interpolation-filters="sRGB">
            <feFlood flood-opacity="0" result="BackgroundImageFix" />
            <feBlend mode="normal" in="SourceGraphic" in2="BackgroundImageFix" result="shape" />
            <feGaussianBlur stdDeviation="2.71828" result="effect1_foregroundBlur_1611:50916" />
        </filter>
        <filter id="filter1_f_1611:50916" x="425.739" y="304.943" width="70.9708" height="70.7616" filterUnits="userSpaceOnUse" color-interpolation-filters="sRGB">
            <feFlood flood-opacity="0" result="BackgroundImageFix" />
            <feBlend mode="normal" in="SourceGraphic" in2="BackgroundImageFix" result="shape" />
            <feGaussianBlur stdDeviation="4.07742" result="effect1_foregroundBlur_1611:50916" />
        </filter>
        <filter id="filter2_dd_1611:50916" x="238.406" y="102.487" width="158.689" height="185.239" filterUnits="userSpaceOnUse" color-interpolation-filters="sRGB">
            <feFlood flood-opacity="0" result="BackgroundImageFix" />
            <feColorMatrix in="SourceAlpha" type="matrix" values="0 0 0 0 0 0 0 0 0 0 0 0 0 0 0 0 0 0 127 0" result="hardAlpha" />
            <feOffset dx="8" dy="9" />
            <feGaussianBlur stdDeviation="14" />
            <feColorMatrix type="matrix" values="0 0 0 0 0.0755213 0 0 0 0 0.582569 0 0 0 0 0.878793 0 0 0 0.229458 0" />
            <feBlend mode="normal" in2="BackgroundImageFix" result="effect1_dropShadow_1611:50916" />
            <feColorMatrix in="SourceAlpha" type="matrix" values="0 0 0 0 0 0 0 0 0 0 0 0 0 0 0 0 0 0 127 0" result="hardAlpha" />
            <feOffset dy="2" />
            <feGaussianBlur stdDeviation="7.5" />
            <feColorMatrix type="matrix" values="0 0 0 0 0.503982 0 0 0 0 0.700178 0 0 0 0 1 0 0 0 0.233829 0" />
            <feBlend mode="normal" in2="effect1_dropShadow_1611:50916" result="effect2_dropShadow_1611:50916" />
            <feBlend mode="normal" in="SourceGraphic" in2="effect2_dropShadow_1611:50916" result="shape" />
        </filter>
        <filter id="filter3_dd_1611:50916" x="270.055" y="123.744" width="95.5234" height="96.1113" filterUnits="userSpaceOnUse" color-interpolation-filters="sRGB">
            <feFlood flood-opacity="0" result="BackgroundImageFix" />
            <feColorMatrix in="SourceAlpha" type="matrix" values="0 0 0 0 0 0 0 0 0 0 0 0 0 0 0 0 0 0 127 0" result="hardAlpha" />
            <feOffset dx="8" dy="9" />
            <feGaussianBlur stdDeviation="14" />
            <feColorMatrix type="matrix" values="0 0 0 0 0.0755213 0 0 0 0 0.582569 0 0 0 0 0.878793 0 0 0 0.229458 0" />
            <feBlend mode="normal" in2="BackgroundImageFix" result="effect1_dropShadow_1611:50916" />
            <feColorMatrix in="SourceAlpha" type="matrix" values="0 0 0 0 0 0 0 0 0 0 0 0 0 0 0 0 0 0 127 0" result="hardAlpha" />
            <feOffset dy="2" />
            <feGaussianBlur stdDeviation="7.5" />
            <feColorMatrix type="matrix" values="0 0 0 0 0.503982 0 0 0 0 0.700178 0 0 0 0 1 0 0 0 0.233829 0" />
            <feBlend mode="normal" in2="effect1_dropShadow_1611:50916" result="effect2_dropShadow_1611:50916" />
            <feBlend mode="normal" in="SourceGraphic" in2="effect2_dropShadow_1611:50916" result="shape" />
        </filter>
        <linearGradient id="paint0_linear_1611:50916" x1="236.116" y1="251.785" x2="236.116" y2="197.814" gradientUnits="userSpaceOnUse">
            <stop stop-color="#FF8C19" />
            <stop offset="1" stop-color="#FFC967" />
        </linearGradient>
        <linearGradient id="paint1_linear_1611:50916" x1="229.73" y1="230.269" x2="229.73" y2="205.671" gradientUnits="userSpaceOnUse">
            <stop stop-color="#F8FDFF" />
            <stop offset="1" stop-color="#AAD4FF" />
        </linearGradient>
        <linearGradient id="paint2_linear_1611:50916" x1="396.197" y1="228.396" x2="399.396" y2="284.082" gradientUnits="userSpaceOnUse">
            <stop stop-color="#FDC6C6" />
            <stop offset="1" stop-color="#FFCCA1" />
        </linearGradient>
        <linearGradient id="paint3_linear_1611:50916" x1="403.633" y1="422.469" x2="404.938" y2="437.517" gradientUnits="userSpaceOnUse">
            <stop stop-color="#FDC6C6" />
            <stop offset="1" stop-color="#FAB2B2" />
        </linearGradient>
        <linearGradient id="paint4_linear_1611:50916" x1="364.5" y1="420.952" x2="365.735" y2="437.053" gradientUnits="userSpaceOnUse">
            <stop stop-color="#FDC6C6" />
            <stop offset="1" stop-color="#FAB2B2" />
        </linearGradient>
        <linearGradient id="paint5_linear_1611:50916" x1="364.218" y1="160.747" x2="366.886" y2="197.046" gradientUnits="userSpaceOnUse">
            <stop stop-color="#FDC6C6" />
            <stop offset="1" stop-color="#FFCCA1" />
        </linearGradient>
        <linearGradient id="paint6_linear_1611:50916" x1="304.431" y1="161.202" x2="312.785" y2="229.85" gradientUnits="userSpaceOnUse">
            <stop stop-color="#FDC6C6" />
            <stop offset="1" stop-color="#FFCCA1" />
        </linearGradient>
    </defs>
</svg>