<svg width="548" height="400" viewBox="0 0 548 400" fill="none" xmlns="http://www.w3.org/2000/svg">
    <g id="Illustration">
        <g id="Shape">
            <g id="Group 59">
                <path id="Path" opacity="0.0845424" d="M495.126 120.78C502.022 111.575 515.079 109.699 524.289 116.591C533.408 123.413 535.338 136.271 528.685 145.459L528.481 145.737L473.845 218.673C466.886 227.963 453.962 230.318 444.182 224.136L443.886 223.946L409.491 201.447L374.813 251.925C368.365 261.31 355.59 263.764 346.131 257.497L345.846 257.304C336.455 250.861 334 238.093 340.271 228.64L340.463 228.355L385.907 162.207C392.677 152.353 406.018 149.637 416.092 156L416.396 156.195L451.43 179.112L495.126 120.78Z" fill="#018ABE" />
                <path id="Path_2" opacity="0.0845424" d="M316.287 2.42241C318.035 -0.117775 321.518 -0.763817 324.065 0.979436C326.579 2.69975 327.244 6.10402 325.58 8.63454L325.513 8.73529L311.896 28.5161C309.9 31.3036 306.038 31.9751 303.217 30.0467L303.117 29.9768L295.297 24.4096L286.822 37.8365C285.197 40.41 281.811 41.2065 279.209 39.6488L279.107 39.5861C276.525 37.9664 275.727 34.5902 277.289 31.9957L277.352 31.8937L288.591 14.0878C290.443 11.1545 294.329 10.2732 297.271 12.1194L297.425 12.2191L297.576 12.3232L305.56 18.0074L316.287 2.42241Z" fill="#018ABE" />
                <path id="+" opacity="0.070266" fill-rule="evenodd" clip-rule="evenodd" d="M464.375 95.0861C465.756 95.0861 466.875 93.9668 466.875 92.5861V80.0283H479.442C480.822 80.0283 481.942 78.909 481.942 77.5283V72.4873C481.942 71.1066 480.822 69.9873 479.442 69.9873H466.875V57.332C466.875 55.9513 465.756 54.832 464.375 54.832H459.231C457.85 54.832 456.731 55.9513 456.731 57.332V69.9873H444.164C442.783 69.9873 441.664 71.1066 441.664 72.4873V77.5283C441.664 78.909 442.783 80.0283 444.164 80.0283H456.731V92.5861C456.731 93.9668 457.85 95.0861 459.231 95.0861H464.375Z" fill="#00CFE8" />
                <path id="Oval" opacity="0.0739397" fill-rule="evenodd" clip-rule="evenodd" d="M67.3608 14.7065C104.563 14.7065 134.722 44.8474 134.722 82.028C134.722 119.209 104.563 149.35 67.3608 149.35C30.1584 149.35 0 119.209 0 82.028C0 44.8474 30.1584 14.7065 67.3608 14.7065ZM67.3606 48.0205C48.5677 48.0205 33.333 63.2463 33.333 82.0283C33.333 100.81 48.5677 116.036 67.3606 116.036C86.1536 116.036 101.388 100.81 101.388 82.0283C101.388 63.2463 86.1536 48.0205 67.3606 48.0205Z" fill="#00CFE8" />
            </g>
        </g>
        <g id="Meeting">
            <g id="Group 63">
                <path id="Rectangle" fill-rule="evenodd" clip-rule="evenodd" d="M44.5605 78.5044C44.5605 69.6678 51.724 62.5044 60.5605 62.5044H397.799C406.636 62.5044 413.799 69.6678 413.799 78.5044V220.212C413.799 229.048 406.636 236.212 397.799 236.212H60.5605C51.724 236.212 44.5605 229.048 44.5605 220.212V78.5044Z" fill="#E7FCFF" />
                <path id="Rectangle_2" opacity="0.383371" fill-rule="evenodd" clip-rule="evenodd" d="M50.1123 78.5044C50.1123 69.6678 57.2757 62.5044 66.1123 62.5044H397.799C406.635 62.5044 413.799 69.6678 413.799 78.5044V220.212C413.799 229.048 406.635 236.212 397.799 236.212H66.1123C57.2758 236.212 50.1123 229.048 50.1123 220.212V78.5044Z" fill="#00CFE8" />
                <path id="Rectangle_3" fill-rule="evenodd" clip-rule="evenodd" d="M55.666 78.063C55.666 72.5401 60.1432 68.063 65.666 68.063H398.247C403.77 68.063 408.247 72.5401 408.247 78.063V220.653C408.247 226.176 403.77 230.653 398.247 230.653H65.666C60.1432 230.653 55.666 226.176 55.666 220.653L55.666 78.063Z" fill="#E7FCFF" />
                <path id="Rectangle_4" fill-rule="evenodd" clip-rule="evenodd" d="M202.111 222.062C202.111 218.748 204.798 216.062 208.111 216.062H255.8C259.114 216.062 261.8 218.748 261.8 222.062V230.653H202.111V222.062Z" fill="#D4EFFF" />
                <path id="Rectangle_5" d="M207.664 222.062C207.664 218.748 210.35 216.062 213.664 216.062H261.353C264.667 216.062 267.353 218.748 267.353 222.062V236.212H207.664V222.062Z" fill="#91D6FF" />
            </g>
            <g id="ElementCard20">
                <g id="Rectangle_6" filter="url(#filter0_dd_1648:45397)">
                    <path fill-rule="evenodd" clip-rule="evenodd" d="M66.0771 80.4005C66.0771 77.4244 68.4898 75.0117 71.4659 75.0117H160.55C163.526 75.0117 165.938 77.4244 165.938 80.4005V107.44C165.938 110.416 163.526 112.829 160.55 112.829H71.4659C68.4898 112.829 66.0771 110.416 66.0771 107.44V80.4005Z" fill="white" />
                </g>
                <path id="Rectangle_7" opacity="0.454078" fill-rule="evenodd" clip-rule="evenodd" d="M95.624 97.4773C95.624 96.8569 96.1269 96.354 96.7473 96.354H115.445C116.066 96.354 116.569 96.8569 116.569 97.4773C116.569 98.0977 116.066 98.6006 115.445 98.6006H96.7473C96.1269 98.6006 95.624 98.0977 95.624 97.4773Z" fill="#7BBCD4" />
                <path id="Rectangle_8" fill-rule="evenodd" clip-rule="evenodd" d="M95.624 91.1121C95.624 90.4917 96.1269 89.9888 96.7473 89.9888H107.965C108.586 89.9888 109.088 90.4917 109.088 91.1121C109.088 91.7324 108.586 92.2353 107.965 92.2353H96.7473C96.1269 92.2353 95.624 91.7324 95.624 91.1121Z" fill="#018ABE" />
                <g id="Group 9">
                    <path id="Path_3" fill-rule="evenodd" clip-rule="evenodd" d="M150.611 88.4503C152.207 86.3513 155.2 85.9447 157.296 87.5421C157.779 87.9095 158.187 88.3656 158.498 88.8859C158.659 89.1541 158.572 89.5018 158.304 89.6626C158.037 89.8235 157.689 89.7365 157.529 89.4684C157.291 89.0714 156.979 88.7234 156.611 88.4431C155.045 87.2493 152.821 87.5226 151.587 89.0396L151.511 89.136L149.757 91.4428C147.018 95.0462 142.384 96.635 138.022 95.4836L137.835 95.4325L136.424 95.0339C136.334 95.0082 136.242 94.9852 136.15 94.9649C133.57 94.396 131.018 95.9928 130.386 98.5443L130.357 98.6705L130.066 99.9926C129.963 100.461 129.763 100.902 129.479 101.288C128.358 102.814 126.212 103.141 124.687 102.018C124.436 101.833 124.382 101.479 124.567 101.227C124.752 100.975 125.106 100.921 125.358 101.106C126.379 101.859 127.817 101.64 128.568 100.617C128.735 100.39 128.858 100.136 128.932 99.8657L128.961 99.749L129.252 98.4269C129.964 95.1914 133.161 93.1464 136.393 93.8592L136.563 93.8992L136.732 93.9442L138.143 94.3428C142.051 95.447 146.232 94.0844 148.743 90.9051L148.857 90.7571L150.611 88.4503Z" fill="#018ABE" />
                    <path id="Path_4" fill-rule="evenodd" clip-rule="evenodd" d="M145.514 87.7659C146.668 85.1947 149.687 84.0476 152.255 85.2036C152.771 85.4358 153.245 85.7524 153.657 86.1404C154.627 87.0536 155.525 88.4971 156.367 90.4732C156.49 90.7608 156.356 91.0934 156.069 91.2161C155.782 91.3388 155.449 91.2051 155.327 90.9175C154.541 89.0728 153.721 87.7546 152.882 86.9653C152.561 86.6634 152.193 86.417 151.791 86.2363C149.829 85.353 147.529 86.1975 146.596 88.1222L146.545 88.2302L146.181 89.0404C146.097 89.2291 145.999 89.4118 145.89 89.5873C144.546 91.7465 141.709 92.4063 139.552 91.061C139.295 90.9008 139.013 90.7845 138.718 90.7169C137.283 90.3878 135.853 91.2578 135.475 92.6697L135.45 92.7691L134.821 95.5206C134.631 96.3496 134.229 97.1147 133.653 97.7404C131.859 99.6919 128.845 99.8494 126.859 98.1201L126.753 98.0257L124.189 95.6626C123.96 95.4508 123.945 95.0927 124.156 94.8627C124.354 94.648 124.679 94.6208 124.908 94.7903L124.955 94.8296L127.519 97.1927C129.044 98.5979 131.418 98.4998 132.821 96.9735C133.229 96.5297 133.524 95.9946 133.682 95.4139L133.718 95.2678L134.348 92.5163C134.824 90.4366 136.893 89.1368 138.971 89.6132C139.336 89.6969 139.687 89.8333 140.012 90.0179L140.15 90.1C141.776 91.1146 143.917 90.617 144.93 88.9886C144.985 88.9003 145.036 88.8097 145.083 88.7169L145.15 88.5761L145.514 87.7659Z" fill="#7BBCD4" />
                </g>
                <ellipse id="Oval_2" cx="82.72" cy="94.2949" rx="7.66724" ry="7.67575" fill="#018ABE" />
            </g>
            <g id="ElementCard3">
                <g id="Rectangle_9" filter="url(#filter1_dd_1648:45397)">
                    <path fill-rule="evenodd" clip-rule="evenodd" d="M66.0771 123.091C66.0771 120.329 68.3157 118.091 71.0771 118.091H185.314C188.075 118.091 190.314 120.329 190.314 123.091V218.01C190.314 220.771 188.075 223.01 185.314 223.01H71.0772C68.3157 223.01 66.0771 220.771 66.0771 218.01V123.091Z" fill="white" />
                </g>
                <mask id="mask0_1648:45397" style="mask-type:alpha" maskUnits="userSpaceOnUse" x="66" y="118" width="125" height="106">
                    <path id="Rectangle_10" fill-rule="evenodd" clip-rule="evenodd" d="M66.0771 123.091C66.0771 120.329 68.3157 118.091 71.0771 118.091H185.314C188.075 118.091 190.314 120.329 190.314 123.091V218.01C190.314 220.771 188.075 223.01 185.314 223.01H71.0772C68.3157 223.01 66.0771 220.771 66.0771 218.01V123.091Z" fill="white" />
                </mask>
                <g mask="url(#mask0_1648:45397)">
                    <g id="Path 3" filter="url(#filter2_d_1648:45397)">
                        <path d="M82.7334 198.691C82.7334 198.691 97.5029 194.445 104.015 185.778C110.527 177.111 112.723 168.71 123.923 168.71C135.124 168.71 136.56 181.576 148.668 181.576C160.776 181.576 161.438 165.168 165.462 158.653C169.486 152.138 176.431 152.138 176.431 152.138" stroke="#8EEAF6" stroke-width="4.004" stroke-linecap="round" />
                    </g>
                    <path id="Path 3_2" opacity="0.414737" fill-rule="evenodd" clip-rule="evenodd" d="M82.7334 197.795C82.7334 197.795 97.5029 193.567 104.015 184.937C110.527 176.308 112.723 167.943 123.923 167.943C135.124 167.943 136.56 180.754 148.668 180.754C160.776 180.754 161.438 164.417 165.462 157.93C169.486 151.442 176.431 151.442 176.431 151.442V205.338C176.431 207.039 175.052 208.418 173.351 208.418H85.8134C84.1124 208.418 82.7334 207.039 82.7334 205.338V197.795Z" fill="#CEF9FF" />
                    <rect id="Rectangle_11" x="75.793" y="128.513" width="38.8673" height="4.16897" rx="2.08449" fill="#8EEAF6" />
                    <path id="Rectangle_12" fill-rule="evenodd" clip-rule="evenodd" d="M75.793 141.021C75.793 139.869 76.7262 138.936 77.8775 138.936H91.754C92.9052 138.936 93.8385 139.869 93.8385 141.021C93.8385 142.172 92.9052 143.105 91.754 143.105H77.8775C76.7262 143.105 75.793 142.172 75.793 141.021Z" fill="#8EEAF6" fill-opacity="0.401934" />
                    <ellipse id="Oval_3" cx="166.368" cy="130.945" rx="2.4292" ry="2.4319" fill="#8EEAF6" fill-opacity="0.451705" />
                    <ellipse id="Oval_4" cx="173.309" cy="130.945" rx="2.4292" ry="2.4319" fill="#8EEAF6" fill-opacity="0.451705" />
                    <ellipse id="Oval_5" cx="180.25" cy="130.945" rx="2.4292" ry="2.4319" fill="#8EEAF6" fill-opacity="0.451705" />
                </g>
            </g>
            <g id="ElementCard11">
                <g id="Rectangle_13" filter="url(#filter3_d_1648:45397)">
                    <path fill-rule="evenodd" clip-rule="evenodd" d="M209.746 92.2237C209.746 88.0901 213.097 84.7393 217.23 84.7393H378.878C383.012 84.7393 386.363 88.0901 386.363 92.2237V198.944C386.363 203.077 383.012 206.428 378.878 206.428H217.23C213.097 206.428 209.746 203.077 209.746 198.944V92.2237Z" fill="white" />
                </g>
                <g id="Group 26">
                    <path id="Path_5" fill-rule="evenodd" clip-rule="evenodd" d="M239.616 147.144V190.666H233.123V147.144H239.616Z" fill="#CFECF7" />
                    <path id="Path_6" fill-rule="evenodd" clip-rule="evenodd" d="M239.615 157.544V190.666H233.122V157.544H239.615Z" fill="#7BBCD4" />
                    <path id="Path_7" fill-rule="evenodd" clip-rule="evenodd" d="M239.615 178.346V190.666H233.122V178.346H239.615Z" fill="#018ABE" />
                </g>
                <g id="Group 26_2">
                    <path id="Path_8" fill-rule="evenodd" clip-rule="evenodd" d="M255.199 136.743V190.666H248.706V136.743H255.199Z" fill="#CFECF7" />
                    <path id="Path_9" fill-rule="evenodd" clip-rule="evenodd" d="M255.199 152.344V190.666H248.706V152.344H255.199Z" fill="#7BBCD4" />
                    <path id="Path_10" fill-rule="evenodd" clip-rule="evenodd" d="M255.199 178.346V190.666H248.706V178.346H255.199Z" fill="#018ABE" />
                </g>
                <g id="Group 26_3">
                    <path id="Path_11" fill-rule="evenodd" clip-rule="evenodd" d="M270.783 144.543V190.666H264.29V144.543H270.783Z" fill="#CFECF7" />
                    <path id="Path_12" fill-rule="evenodd" clip-rule="evenodd" d="M270.783 160.145V190.666H264.29V160.145H270.783Z" fill="#7BBCD4" />
                    <path id="Path_13" fill-rule="evenodd" clip-rule="evenodd" d="M270.783 180.946V190.666H264.29V180.946H270.783Z" fill="#018ABE" />
                </g>
                <g id="Group 26_4">
                    <path id="Path_14" fill-rule="evenodd" clip-rule="evenodd" d="M286.367 131.542V190.666H279.874V131.542H286.367Z" fill="#CFECF7" />
                    <path id="Path_15" fill-rule="evenodd" clip-rule="evenodd" d="M286.367 147.144V190.666H279.874V147.144H286.367Z" fill="#7BBCD4" />
                    <path id="Path_16" fill-rule="evenodd" clip-rule="evenodd" d="M286.367 167.945V190.666H279.874V167.945H286.367Z" fill="#018ABE" />
                </g>
                <g id="Group 26_5">
                    <path id="Path_17" fill-rule="evenodd" clip-rule="evenodd" d="M301.95 121.142V190.666H295.457V121.142H301.95Z" fill="#CFECF7" />
                    <path id="Path_18" fill-rule="evenodd" clip-rule="evenodd" d="M301.95 141.943V190.666H295.457V141.943H301.95Z" fill="#7BBCD4" />
                    <path id="Path_19" fill-rule="evenodd" clip-rule="evenodd" d="M301.95 173.146V190.666H295.457V173.146H301.95Z" fill="#018ABE" />
                </g>
                <g id="Group 26_6">
                    <path id="Path_20" fill-rule="evenodd" clip-rule="evenodd" d="M317.534 136.743V190.666H311.041V136.743H317.534Z" fill="#CFECF7" />
                    <path id="Path_21" fill-rule="evenodd" clip-rule="evenodd" d="M317.534 152.344V190.666H311.041V152.344H317.534Z" fill="#7BBCD4" />
                    <path id="Path_22" fill-rule="evenodd" clip-rule="evenodd" d="M317.534 176.266V190.666H311.041V176.266H317.534Z" fill="#018ABE" />
                </g>
                <g id="Group 26_7">
                    <path id="Path_23" fill-rule="evenodd" clip-rule="evenodd" d="M333.119 141.943V190.666H326.626V141.943H333.119Z" fill="#CFECF7" />
                    <path id="Path_24" fill-rule="evenodd" clip-rule="evenodd" d="M333.118 152.344V190.666H326.625V152.344H333.118Z" fill="#7BBCD4" />
                    <path id="Path_25" fill-rule="evenodd" clip-rule="evenodd" d="M333.118 172.625V190.666H326.625V172.625H333.118Z" fill="#018ABE" />
                </g>
                <g id="Group 26_8">
                    <path id="Path_26" fill-rule="evenodd" clip-rule="evenodd" d="M348.701 131.542V190.666H342.208V131.542H348.701Z" fill="#CFECF7" />
                    <path id="Path_27" fill-rule="evenodd" clip-rule="evenodd" d="M348.702 152.344V190.666H342.209V152.344H348.702Z" fill="#7BBCD4" />
                    <path id="Path_28" fill-rule="evenodd" clip-rule="evenodd" d="M348.702 177.826V190.666H342.209V177.826H348.702Z" fill="#018ABE" />
                </g>
                <g id="Group 26_9">
                    <path id="Path_29" fill-rule="evenodd" clip-rule="evenodd" d="M364.285 141.943V190.666H357.792V141.943H364.285Z" fill="#CFECF7" />
                    <path id="Path_30" fill-rule="evenodd" clip-rule="evenodd" d="M364.285 152.344V190.666H357.792V152.344H364.285Z" fill="#7BBCD4" />
                    <path id="Path_31" fill-rule="evenodd" clip-rule="evenodd" d="M364.285 177.826V190.667H357.792V177.826H364.285Z" fill="#018ABE" />
                </g>
                <path id="Rectangle_14" opacity="0.57573" fill-rule="evenodd" clip-rule="evenodd" d="M231.044 107.101C231.044 106.239 231.742 105.541 232.604 105.541H284.547C285.408 105.541 286.107 106.239 286.107 107.101C286.107 107.962 285.408 108.661 284.547 108.661H232.604C231.742 108.661 231.044 107.962 231.044 107.101Z" fill="#7BBCD4" />
                <rect id="Rectangle_15" x="231.044" y="96.7002" width="29.0898" height="3.12022" rx="1.56011" fill="#018ABE" />
            </g>
            <g id="Chair4">
                <path id="Path_32" fill-rule="evenodd" clip-rule="evenodd" d="M410.355 330.819L418.77 397.301L414.358 397.242L405.943 331.442L410.355 330.819Z" fill="#BFE7FF" />
                <path id="Path_33" fill-rule="evenodd" clip-rule="evenodd" d="M353.421 341.27C349.585 341.27 346.476 338.16 346.476 334.324C346.476 330.488 349.585 327.379 353.421 327.379H378.518C384.24 327.379 389.022 323.025 389.557 317.329L393.497 275.444C394.033 269.748 398.815 265.395 404.536 265.395H416.124C422.583 265.395 427.674 270.892 427.18 277.332L423.053 331.031C422.61 336.808 417.792 341.27 411.998 341.27H353.421Z" fill="#91D6FF" />
                <path id="Combined Shape" fill-rule="evenodd" clip-rule="evenodd" d="M346.477 334.265C346.515 334.266 346.553 334.266 346.592 334.266H405.004C410.798 334.266 415.614 329.806 416.059 324.03L420.181 270.543C420.303 268.951 420.085 267.417 419.588 266.009C418.447 265.611 417.219 265.395 415.937 265.395H404.431C398.711 265.395 393.929 269.746 393.392 275.441L389.457 317.156C388.92 322.851 384.139 327.203 378.418 327.203H353.403C349.577 327.203 346.476 330.304 346.476 334.13C346.476 334.175 346.476 334.22 346.477 334.265Z" fill="#BFE7FF" />
            </g>
            <g id="Wom1.4">
                <g id="Head">
                    <path id="Path_34" fill-rule="evenodd" clip-rule="evenodd" d="M400.968 253.946C409.937 251.856 410.528 239.537 403.709 235.264C410.742 220.513 394.478 205.867 383.337 214.899C376.034 211.771 369.964 223.977 376.76 233.457C373.911 249.734 379.71 253.941 390.164 254.12L400.968 253.946Z" fill="#422851" />
                    <path id="Path_35" fill-rule="evenodd" clip-rule="evenodd" d="M400.856 251.004C400.856 251.004 396.493 249.979 396.342 242.826C396.19 235.672 396.297 233.23 396.297 233.23L386.685 233.057C386.685 233.057 386.58 241.029 386.579 243.913C386.575 251.658 381.181 251.004 381.181 251.004C381.181 251.004 382.302 257.284 391.011 257.774C397.811 258.157 400.856 251.004 400.856 251.004Z" fill="url(#paint0_linear_1648:45397)" />
                    <path id="Path_36" fill-rule="evenodd" clip-rule="evenodd" d="M398.535 229.658C402.822 229.492 402.123 235.772 397.669 235.764C397.669 235.764 395.082 244.685 386.101 244.685C378.806 244.685 378.332 234.287 378.266 232.213C378.195 230.001 378.185 222.735 378.185 222.735L398.702 222.726L398.535 229.658Z" fill="url(#paint1_linear_1648:45397)" />
                    <path id="Path_37" d="M387.834 238.691C387.834 238.691 385.695 240.504 383.217 238.807" stroke="#F77B7B" stroke-width="1.5" stroke-linecap="round" />
                    <path id="Path_38" d="M386.422 240.79C385.756 241.097 385.116 241.12 384.544 240.813" stroke="#F49494" stroke-linecap="round" />
                    <path id="Path 8" d="M398.099 233.036C398.055 232.028 398.362 231.228 399.389 231.067" stroke="#F77B7B" stroke-linecap="round" />
                    <path id="Path_39" fill-rule="evenodd" clip-rule="evenodd" d="M399.214 228.882C399.214 228.882 396.864 232.037 396.388 232.054C395.912 232.071 395.745 227.95 395.745 227.95C392.863 227.73 385.567 226.276 383.778 222.89C382.528 225.878 380.137 227.205 378.566 226.95L378.268 233.298L377.535 220.536H399.789L399.214 228.882Z" fill="#422851" />
                </g>
                <g id="LLeg">
                    <path id="Path_40" fill-rule="evenodd" clip-rule="evenodd" d="M356.943 377.154C356.943 377.154 360.789 384.927 357.636 387.377C354.478 389.827 346.137 394.418 346.137 394.418L368.236 393.028L363.324 376.075L356.943 377.154Z" fill="url(#paint2_linear_1648:45397)" />
                    <path id="Path_41" fill-rule="evenodd" clip-rule="evenodd" d="M366.099 384.551C365.008 384.679 366.173 388.353 363.811 388.632C361.455 388.911 360.309 385.43 357.635 386.534C354.961 387.637 345.207 393.342 344.823 395.675C344.434 398.006 348.068 398.693 353.052 398.166C358.035 397.639 358.954 395.865 362.695 396.58C366.432 397.294 369.231 396.156 369.107 393.424C368.984 390.693 367.189 384.424 366.099 384.551Z" fill="#222D4E" />
                    <path id="Path 14" fill-rule="evenodd" clip-rule="evenodd" d="M356.416 387.1L356.743 387.59C357.066 388.075 356.907 388.734 356.398 389.018L350.178 392.491C349.888 392.653 349.535 392.66 349.238 392.509L348.34 392.053C349.948 390.889 351.262 390.013 352.715 389.154C353.83 388.494 355.064 387.814 356.416 387.1Z" fill="white" fill-opacity="0.540975" />
                    <path id="Path_42" fill-rule="evenodd" clip-rule="evenodd" d="M390.234 308.644C383.543 308.943 346.305 317.184 339.54 318.584C332.774 319.984 327.054 327.56 332.213 336.332C338.008 346.179 352.958 374.145 356.588 380.449C358.385 383.57 367.449 381.82 365.32 376.583C361.351 366.82 359.508 342.294 349.389 333.351C349.389 333.351 383.418 339.277 398.118 332.489C408.801 327.555 406.384 307.922 390.234 308.644Z" fill="url(#paint3_linear_1648:45397)" />
                </g>
                <g id="LArm">
                    <path id="Path_43" fill-rule="evenodd" clip-rule="evenodd" d="M342.828 269.059C342.828 269.059 342.903 263.612 340.999 260.766C339.095 257.919 339.019 254.896 337.578 254.995C336.137 255.094 337.564 262.122 337.564 262.122C337.564 262.122 335.735 261.423 334.422 260.538C333.108 259.654 329.125 255.296 328.194 256.068C326.615 257.384 329.158 264.808 330.542 266.292C331.931 267.776 339.52 272.658 339.52 272.658L342.828 269.059Z" fill="url(#paint4_linear_1648:45397)" />
                    <path id="Path_44" fill-rule="evenodd" clip-rule="evenodd" d="M383.943 265.795C380.831 273.018 375.132 286.286 372.783 290.244C369.839 295.202 365.196 297.386 359.76 293.707C354.049 289.843 338.322 274.768 337.86 271.354C337.403 267.939 341.253 263.842 344.736 265.963C348.219 268.085 362.692 280.135 362.692 280.135C362.692 280.135 368.532 265.155 373.231 256.476C377.3 248.968 388.681 254.815 383.943 265.795Z" fill="#018ABE" />
                    <path id="Path_45" fill-rule="evenodd" clip-rule="evenodd" d="M362.632 280.143C362.632 280.143 361.063 285.467 360.696 285.158C360.33 284.85 360.977 278.751 360.977 278.751L362.632 280.143Z" fill="black" fill-opacity="0.302803" />
                </g>
                <g id="Body">
                    <path id="Path_46" fill-rule="evenodd" clip-rule="evenodd" d="M415.047 257.092C415.047 257.092 407.547 282.22 407.325 286.976C407.103 291.733 413.459 305.714 412.377 309.247C409.881 317.413 378.024 320.929 376.806 309.944C376.239 304.821 377.42 300.223 376.059 294.187C374.703 288.15 369.251 279.18 372.343 270.747C375.435 262.313 374.607 254.511 376.818 253.036C379.03 251.561 384.2 249.995 384.2 249.995C386.715 253.697 395.203 253.643 399.253 249.734C399.253 249.734 409.314 251.687 415.047 257.092Z" fill="#2CA4D1" />
                    <path id="Path_47" fill-rule="evenodd" clip-rule="evenodd" d="M408.326 261.162C403.327 269.1 403.342 282.922 400.657 284.732C397.972 286.542 387.521 284.766 387.521 286.199C387.521 287.633 401.963 300.77 399.592 307.05C398.351 310.338 398.688 313.28 400.602 315.875L401.228 315.739C406.918 314.453 411.492 312.142 412.377 309.247C413.459 305.714 406.37 291.733 406.592 286.976C406.78 282.939 412.741 264.222 414.539 258.657C413.076 256.074 411.005 256.909 408.326 261.162Z" fill="black" fill-opacity="0.199355" />
                </g>
                <g id="RArm">
                    <path id="Path_48" fill-rule="evenodd" clip-rule="evenodd" d="M399.801 282.223C399.801 282.223 393.483 276.628 391.55 275.979C389.616 275.33 378.29 274.55 378.361 276.017C378.442 277.589 384.526 277.498 385.156 278.272C385.786 279.044 385.929 284.329 388.312 284.922C390.69 285.516 397.819 286.538 397.819 286.538L399.801 282.223Z" fill="url(#paint5_linear_1648:45397)" />
                    <path id="Path_49" fill-rule="evenodd" clip-rule="evenodd" d="M416.607 258.537C423.263 267.935 428.945 282.251 431.126 287.833C433.308 293.414 431.107 301.833 421.516 300.18C411.942 298.532 396.709 289.575 395.024 286.962C393.338 284.349 395.899 279.595 399.123 280.217C402.11 280.793 416.928 287.097 416.928 287.097C416.928 287.097 407.395 270.191 405.067 265.659C401.179 258.09 410.745 250.256 416.607 258.537Z" fill="#018ABE" />
                    <path id="Path_50" fill-rule="evenodd" clip-rule="evenodd" d="M416.777 286.981C416.777 286.981 421.77 289.463 421.161 288.422C420.552 287.381 414.872 283.725 414.872 283.725L416.777 286.981Z" fill="black" fill-opacity="0.302803" />
                </g>
            </g>
            <g id="Men3.2">
                <g id="LLeg_2">
                    <path id="Path_51" fill-rule="evenodd" clip-rule="evenodd" d="M172.116 374.435C172.116 374.435 172.016 380.841 175.948 383.116C179.879 385.392 185.969 389.62 185.969 389.62L162.8 390.406L163.46 374.377L172.116 374.435Z" fill="#F8CFCF" />
                    <path id="Path_52" fill-rule="evenodd" clip-rule="evenodd" d="M161.99 381.494L161.613 391.886H166.995L167.364 390.547C167.364 390.547 169.39 390.464 170.561 391.042C171.798 391.654 171.965 391.951 171.965 391.951L189.035 391.987C189.035 391.987 189.877 388.628 184.673 386.199C179.47 383.768 175.681 380.32 174.962 379.967C174.237 379.611 172.774 379.41 171.744 380.246C170.714 381.081 169.9 383.277 167.566 383.346C164.562 383.435 162.836 379.737 161.99 381.494Z" fill="#4B4B4B" />
                    <path id="Path 38" d="M176.578 381.094L174.809 382.806" stroke="white" stroke-width="2" stroke-linecap="round" />
                    <path id="Path 38_2" d="M179.16 382.392L177.391 384.103" stroke="white" stroke-width="2" stroke-linecap="round" />
                    <path id="Path 38_3" d="M181.74 383.689L179.971 385.401" stroke="white" stroke-width="2" stroke-linecap="round" />
                    <path id="Path_53" fill-rule="evenodd" clip-rule="evenodd" d="M155.158 236.047C155.158 236.047 161.595 306.919 161.795 311.846C161.995 316.773 159.728 325.275 159.772 334.491C159.816 343.706 160.6 376.186 160.6 376.186L174.799 376.486C174.799 376.486 180.767 317.793 180.831 308.992C180.895 300.191 181.443 236.894 181.443 236.894L155.158 236.047Z" fill="#383838" />
                    <path id="Path_54" opacity="0.283552" fill-rule="evenodd" clip-rule="evenodd" d="M165.393 314.053L165.409 314.228C165.623 317.232 163.757 327.117 159.811 343.882L159.772 334.491C159.729 325.44 161.915 317.077 161.804 312.114L161.795 311.846C161.728 310.186 160.952 301.036 159.953 289.634L160.419 291.304C163.157 301.196 164.815 308.779 165.393 314.053Z" fill="white" fill-opacity="0.192499" />
                </g>
                <g id="RLeg">
                    <path id="Path_55" fill-rule="evenodd" clip-rule="evenodd" d="M137.861 373.533L135.123 390.121L145.218 390.071L145.537 373.272L137.861 373.533Z" fill="#F8CFCF" />
                    <path id="Path_56" fill-rule="evenodd" clip-rule="evenodd" d="M137.38 380.576C136.037 380.867 135.063 382.035 135.017 383.409L134.956 385.256C133.544 386.823 132.869 391.316 132.785 391.905C132.779 391.949 132.775 391.992 132.781 392.035C133.062 394.241 147.427 394.227 149.013 392.177C149.108 392.054 149.115 391.889 149.089 391.735C148.91 390.675 148.092 386.315 146.547 385.107L146.541 383.27C146.535 381.917 145.625 380.735 144.318 380.384L143.387 380.134C141.911 377.982 139.9 378.058 138.177 380.403L137.38 380.576Z" fill="#4B4B4B" />
                    <path id="Path 39" d="M138.75 382.197H142.837" stroke="white" stroke-width="2" stroke-linecap="round" />
                    <path id="Path 39_2" d="M138.75 384.141H142.837" stroke="white" stroke-width="2" stroke-linecap="round" />
                    <path id="Path 39_3" d="M139.4 386.086H142.187" stroke="white" stroke-width="2" stroke-linecap="round" />
                    <path id="Path_57" fill-rule="evenodd" clip-rule="evenodd" d="M142.953 236.978C142.953 236.978 138.443 285.559 138.504 294.862C138.566 304.166 139.892 308.252 138.004 314.926C136.115 321.6 134.505 374.871 134.505 374.871L148.47 376.399C148.47 376.399 157.392 319.396 158.362 311.493C159.332 303.59 171.322 236.307 171.322 236.307L142.953 236.978Z" fill="#2E2E2E" />
                    <path id="Path_58" opacity="0.283552" fill-rule="evenodd" clip-rule="evenodd" d="M146.724 269.951L145.872 273.035C143.378 282.135 141.076 291.758 141.679 305.505L141.708 306.133C141.857 309.111 139.962 326.393 136.025 357.981L135.65 360.201C135.264 362.465 134.92 364.397 134.619 365.997L134.705 363.199C135.207 347.758 136.557 320.036 138.003 314.926C139.891 308.252 138.565 304.167 138.503 294.863C138.46 288.351 140.658 262.592 141.98 247.723L142.952 236.978L148.847 236.839L148.862 238.494C148.965 253.769 148.253 264.255 146.724 269.951Z" fill="white" fill-opacity="0.192499" />
                </g>
                <g id="LArm_2">
                    <g id="Group 6">
                        <path id="Path_59" fill-rule="evenodd" clip-rule="evenodd" d="M211.659 176.901C211.659 176.901 210.493 170.475 210.912 169.174C211.27 168.049 214.654 166.428 214.654 166.428C214.654 166.428 220.54 157.232 221.829 158.168C222.877 158.927 218.763 165.707 218.763 165.707C218.763 165.707 222.514 169.599 222.462 171.338C222.409 173.078 216.34 178.525 216.34 178.525L211.659 176.901Z" fill="#F8CFCF" />
                        <path id="Path_60" fill-rule="evenodd" clip-rule="evenodd" d="M214.781 166.336C214.781 166.336 217.388 165.985 217.803 166.788C218.157 167.471 215.991 169.41 215.991 169.955C215.991 170.5 216.022 174.626 216.196 174.663C216.37 174.701 218.807 167.931 218.288 166.499C217.86 165.324 214.781 166.336 214.781 166.336Z" fill="#F28585" />
                    </g>
                    <path id="Path_61" fill-rule="evenodd" clip-rule="evenodd" d="M180.562 185.077C173.734 179.178 163.481 189.813 174.914 199.7C179.275 203.471 192.976 212.88 196.335 214.949C201.681 218.242 206.075 215.27 207.881 210.089C209.412 205.695 218.574 182.179 217.408 178.725C216.648 176.472 212.568 174.28 210.52 176.053C207.527 178.644 198.372 201.369 198.372 201.369C198.372 201.369 188.325 191.784 180.562 185.077Z" fill="#877BFF" />
                    <path id="Path_62" fill-rule="evenodd" clip-rule="evenodd" d="M198.371 201.369C198.371 201.369 201.37 205.006 201.586 204.45C201.803 203.895 199.208 199.221 199.208 199.221L198.371 201.369Z" fill="black" fill-opacity="0.159856" />
                    <path id="Path 41" d="M209.725 177.509C212.107 176.406 214.709 177.769 216.144 179.958" stroke="#5386BF" stroke-linecap="round" />
                </g>
                <g id="Head_2">
                    <path id="Path_63" fill-rule="evenodd" clip-rule="evenodd" d="M151.292 178.273C151.292 178.273 155.217 177.369 155.354 171.064C155.49 164.758 155.394 162.606 155.394 162.606L164.701 162.453C164.701 162.453 164.795 169.48 164.796 172.022C164.8 177.556 168.992 179.051 168.992 179.051C168.992 179.051 168.644 185.102 160.809 185.534C154.691 185.872 151.292 178.273 151.292 178.273Z" fill="#F8C5C5" />
                    <g id="Head1">
                        <path id="Path_64" fill-rule="evenodd" clip-rule="evenodd" d="M172.992 155.808L172.784 161.768C174.543 159.741 175.731 157.229 176.082 154.007L172.992 155.808Z" fill="url(#paint6_linear_1648:45397)" />
                        <path id="Path_65" fill-rule="evenodd" clip-rule="evenodd" d="M154.539 159.418C150.682 159.272 151.311 164.808 155.318 164.8C155.318 164.8 159.624 173.289 166.385 173.311C169.642 173.321 170.705 170.478 171.681 168.481C172.658 166.485 173.374 163.499 173.434 161.67C173.498 159.721 173.506 153.316 173.506 153.316L154.389 153.308L154.539 159.418Z" fill="#F8CFCF" />
                        <path id="Path_66" fill-rule="evenodd" clip-rule="evenodd" d="M173.506 156.254H160.062C159.921 158.636 159.114 160.614 157.065 162.073C157.123 165.562 158.313 168.102 160.378 169.883C162.175 164.833 173.171 166.215 172.371 169.51C170.691 176.432 154.943 176.589 155.899 160.657C155.271 159.817 153.024 159.66 152.284 160.5C151.021 157.019 151.56 152.095 155.213 151.383C152.346 143.965 191.335 142.396 173.506 156.254Z" fill="#424242" />
                        <path id="Path_67" d="M164.892 169.204C164.892 169.204 166.644 170.466 168.949 169.086" stroke="#CC6969" stroke-linecap="round" />
                        <path id="Path 8_2" d="M155.141 162.579C155.181 161.691 154.904 160.985 153.98 160.844" stroke="#DE6767" stroke-linecap="round" />
                    </g>
                </g>
                <g id="Body_2">
                    <path id="Path_68" fill-rule="evenodd" clip-rule="evenodd" d="M153.019 177.22L164.125 184.423L169.133 178.608C169.133 178.608 179.682 181.872 181.639 185.689C184.464 191.197 180.743 235.328 182.365 237.991C185.821 243.666 181.226 247.561 166.011 248.993C150.797 250.424 137.299 249.252 139.749 241.679C142.199 234.106 132.746 184.681 141.08 181.959C143.684 181.108 153.019 177.22 153.019 177.22Z" fill="#7367F0" />
                    <path id="Path_69" fill-rule="evenodd" clip-rule="evenodd" d="M145.524 190.845C146.196 192.032 145.849 196.145 144.483 203.184C143.32 209.18 144.65 215.384 148.164 220.388L148.361 220.665C149.549 222.304 150.644 224.463 151.647 227.141C154.105 233.709 148.434 239.184 152.78 249.459L152.255 249.434C143.728 248.994 138.091 246.8 139.748 241.679C141.756 235.469 135.763 201.125 138.133 187.456C142.236 188.261 144.699 189.39 145.524 190.845Z" fill="black" fill-opacity="0.159856" />
                    <path id="Path_70" fill-rule="evenodd" clip-rule="evenodd" d="M153.018 177.219L162.952 183.687C161.496 185.376 160.715 187.342 160.42 189.506C156.602 186.526 152.634 182.361 151.404 177.882L153.018 177.219Z" fill="#5E54C7" />
                    <path id="Path_71" fill-rule="evenodd" clip-rule="evenodd" d="M164.909 183.518C166.589 184.652 167.929 186.66 169.02 188.943C170.327 186.319 170.828 182.854 170.828 179.16L169.188 178.512L164.909 183.518Z" fill="#5E54C7" />
                    <path id="Path_72" fill-rule="evenodd" clip-rule="evenodd" d="M162.952 183.686L163.082 183.759C163.677 184.091 164.42 183.993 164.909 183.519C168.654 197.226 171.288 212.313 172.085 227.647L168.176 234.128L163.604 228.062C164.2 212.126 164.196 196.588 162.952 183.686Z" fill="#CBC6FF" />
                </g>
                <g id="RArm_2">
                    <g id="Example Book Back">
                        <g id="Group 3">
                            <path id="Rectangle_16" d="M172.796 219.066C172.943 217.674 174.218 216.683 175.603 216.886L183.361 218.02C184.669 218.211 185.593 219.401 185.455 220.715L183.967 234.87C183.821 236.262 182.545 237.253 181.16 237.05L173.403 235.916C172.095 235.725 171.17 234.536 171.309 233.221L172.796 219.066Z" fill="#6182EC" />
                            <path id="Rectangle_17" fill-rule="evenodd" clip-rule="evenodd" d="M173.871 218.789C174.022 217.35 175.375 216.35 176.796 216.629L185.558 218.347L191.296 218.251C192.775 218.227 193.942 219.501 193.788 220.973L192.304 235.095C192.173 236.333 191.139 237.28 189.894 237.301L183.555 237.407L174.361 235.604C173.109 235.358 172.251 234.197 172.385 232.928L173.871 218.789Z" fill="#96EFFA" />
                            <path id="Rectangle_18" d="M175.607 222.153C175.704 221.226 176.569 220.578 177.486 220.746L180.993 221.388C181.816 221.538 182.384 222.297 182.296 223.129L182.2 224.045C182.102 224.971 181.237 225.619 180.321 225.451L176.814 224.81C175.991 224.659 175.423 223.9 175.51 223.068L175.607 222.153Z" fill="#74CFDB" />
                            <path id="Rectangle_19" d="M184.815 219.052C184.86 218.624 185.244 218.314 185.672 218.359C186.1 218.404 186.41 218.787 186.365 219.215L184.531 236.663C184.487 237.091 184.103 237.402 183.675 237.357C183.247 237.312 182.936 236.928 182.981 236.5L184.815 219.052Z" fill="#EAEFFF" />
                            <path id="Rectangle_20" d="M185.332 219.107C185.377 218.679 185.76 218.368 186.188 218.413C186.616 218.458 186.927 218.842 186.882 219.27L185.048 236.717C185.003 237.145 184.62 237.456 184.191 237.411C183.763 237.366 183.453 236.982 183.498 236.554L185.332 219.107Z" fill="#7AD2DD" />
                        </g>
                    </g>
                    <path id="Path_73" fill-rule="evenodd" clip-rule="evenodd" d="M163.167 225.321C163.167 225.321 166.54 224.647 167.92 223.571C169.3 222.494 173.48 221.733 173.48 221.733L172.143 224.531C172.143 224.531 182.388 223.576 182.63 224.58C182.873 225.584 179.91 226.676 179.91 226.676C179.91 226.676 178.449 229.388 177.034 230.96C175.696 232.447 169.046 232.27 166.714 231.342C164.7 230.54 162.51 230.941 162.51 230.941L163.167 225.321Z" fill="#F8CFCF" />
                    <path id="Path_74" fill-rule="evenodd" clip-rule="evenodd" d="M136.041 186.219C139.704 178.353 152.248 183.653 149.087 192.08C146.025 200.243 138.606 219.303 138.606 219.303C138.606 219.303 162.116 222.269 163.949 223.652C166.394 225.497 164.883 230.762 162.805 231.7C161.046 232.492 147.985 232.956 135.206 231.955C128.884 231.46 124.208 228.761 123.556 221.751C123.099 216.842 132.512 193.797 136.041 186.219Z" fill="#877BFF" />
                    <path id="Path_75" fill-rule="evenodd" clip-rule="evenodd" d="M138.613 219.299C138.613 219.299 136.659 222.99 137.218 223.065C137.776 223.14 140.615 219.569 140.615 219.569L138.613 219.299Z" fill="black" fill-opacity="0.159856" />
                    <path id="Path 40" d="M162.294 223.251C163.018 225.552 162.509 228.249 161.503 230.155" stroke="#5386BF" stroke-linecap="round" />
                </g>
            </g>
            <g id="Vase2">
                <g id="Group 39">
                    <path id="Rectangle_21" fill-rule="evenodd" clip-rule="evenodd" d="M62.7718 326.014C68.8502 323.285 75.9887 326.025 78.6795 332.121L80.7845 336.889C74.7061 339.619 67.5676 336.878 64.8768 330.783L62.7718 326.014Z" fill="#02D3AF" />
                    <path id="Path_76" fill-rule="evenodd" clip-rule="evenodd" d="M71.458 328.923C77.5242 333.24 81.4578 338.051 83.2705 343.354C85.0921 348.683 85.8384 357.616 85.4994 370.136C85.4942 370.33 85.6458 370.491 85.838 370.497C86.0302 370.502 86.1903 370.349 86.1955 370.155C86.5366 357.557 85.7843 348.553 83.9288 343.125C82.0644 337.67 78.0374 332.746 71.8595 328.349C71.7023 328.238 71.4851 328.275 71.3743 328.434C71.2634 328.592 71.3009 328.811 71.458 328.923Z" fill="#02B596" />
                    <path id="Rectangle_22" fill-rule="evenodd" clip-rule="evenodd" d="M114.338 323.053C108.356 320.24 101.228 322.835 98.4534 328.835L96.0901 333.947C102.072 336.76 109.201 334.165 111.975 328.165L114.338 323.053Z" fill="#02D3AF" />
                    <g id="Group 88">
                        <path id="Rectangle_23" d="M66.5469 311.336C72.3149 310.11 77.9847 313.792 79.2107 319.56L80.2032 324.229C74.4352 325.455 68.7654 321.773 67.5394 316.005L66.5469 311.336Z" fill="#02D3AF" />
                        <path id="Path_77" fill-rule="evenodd" clip-rule="evenodd" d="M70.7882 315.061C75.2336 318.165 78.2409 321.511 79.8182 325.097L79.9151 325.323L80.0127 325.56C81.6291 329.572 84.3047 340.08 88.0251 357.045C88.0666 357.234 88.2526 357.354 88.4404 357.313C88.6282 357.272 88.7468 357.085 88.7052 356.896L88.2444 354.803L87.7058 352.381C84.3446 337.349 81.9317 328.172 80.4548 324.814C78.8205 321.099 75.7274 317.657 71.1835 314.485C71.0251 314.374 70.8082 314.414 70.6991 314.573C70.5899 314.732 70.6298 314.951 70.7882 315.061Z" fill="#02B596" />
                    </g>
                    <path id="Rectangle_24" fill-rule="evenodd" clip-rule="evenodd" d="M105.614 307.788C99.2564 307.676 94.0126 312.74 93.9026 319.097L93.8044 324.769C100.162 324.881 105.405 319.817 105.515 313.46L105.614 307.788Z" fill="#02D3AF" />
                    <path id="Path_78" fill-rule="evenodd" clip-rule="evenodd" d="M101.443 310.068C97.3533 316.069 94.3654 321.862 92.48 327.446C90.598 333.02 88.7208 341.629 86.8454 353.279C86.8146 353.47 86.9434 353.651 87.1332 353.682C87.323 353.713 87.5019 353.583 87.5327 353.392L87.7632 351.975L87.9214 351.021C89.6616 340.603 91.4017 332.819 93.1392 327.672C95.0028 322.152 97.9615 316.417 102.016 310.466C102.125 310.306 102.085 310.088 101.927 309.978C101.768 309.868 101.552 309.908 101.443 310.068Z" fill="#02B596" />
                    <g id="Group 87">
                        <path id="Path_79" fill-rule="evenodd" clip-rule="evenodd" d="M92.5838 306.138C92.5838 306.138 89.2676 315.585 87.8017 329.502C86.3358 343.418 87.1911 357.334 87.1911 357.334L88.8094 357.482C88.8094 357.482 87.9403 341.239 88.9841 329.563C90.028 317.888 93.3929 306.212 93.3929 306.212L92.5838 306.138Z" fill="#02B596" />
                        <ellipse id="Oval_6" cx="94.2727" cy="301.458" rx="5.34136" ry="8.18968" transform="rotate(14 94.2727 301.458)" fill="#C2FFF4" />
                        <ellipse id="Oval_7" cx="94.38" cy="301.952" rx="3.71569" ry="5.33931" transform="rotate(14 94.38 301.952)" fill="#02D3AF" />
                        <path id="Path_80" fill-rule="evenodd" clip-rule="evenodd" d="M93.9225 306.645L96.9064 297.332C97.0837 296.779 96.7826 296.185 96.2337 296.006C95.6847 295.827 95.0959 296.131 94.9186 296.684L91.9347 305.997C91.7573 306.55 92.0585 307.144 92.6074 307.323C93.1563 307.502 93.7451 307.198 93.9225 306.645Z" fill="url(#paint7_linear_1648:45397)" />
                    </g>
                    <g id="Group 87_2">
                        <path id="Path_81" fill-rule="evenodd" clip-rule="evenodd" d="M76.4397 296.777C76.4397 296.777 80.7253 305.826 83.6377 319.513C86.5502 333.199 87.1543 347.129 87.1543 347.129L85.5603 347.444C85.5603 347.444 84.7268 331.2 82.4682 319.697C80.2096 308.195 75.6427 296.935 75.6427 296.935L76.4397 296.777Z" fill="#02B596" />
                        <ellipse id="Oval_8" rx="5.34136" ry="8.18968" transform="matrix(-0.939693 0.34202 0.34202 0.939693 74.2701 292.299)" fill="#C2FFF4" />
                        <ellipse id="Oval_9" rx="3.71569" ry="5.33931" transform="matrix(-0.939693 0.34202 0.34202 0.939693 74.2144 292.803)" fill="#02D3AF" />
                        <path id="Path_82" fill-rule="evenodd" clip-rule="evenodd" d="M75.1602 297.421L71.2193 288.471C70.985 287.939 71.2224 287.317 71.7496 287.082C72.2769 286.847 72.8942 287.087 73.1285 287.619L77.0694 296.569C77.3037 297.101 77.0662 297.723 76.539 297.958C76.0118 298.194 75.3945 297.953 75.1602 297.421Z" fill="url(#paint8_linear_1648:45397)" />
                    </g>
                    <path id="Path_83" fill-rule="evenodd" clip-rule="evenodd" d="M111.052 324.545C102.796 327.776 97.0393 331.509 93.7842 335.759C90.5294 340.009 88.3787 346.6 87.3179 355.534C87.2951 355.726 87.4313 355.901 87.6222 355.924C87.8132 355.947 87.9865 355.81 88.0093 355.617C89.0565 346.799 91.1698 340.322 94.3353 336.189C97.5004 332.056 103.156 328.388 111.304 325.2C111.483 325.129 111.572 324.926 111.503 324.745C111.433 324.564 111.231 324.475 111.052 324.545Z" fill="#02B596" />
                </g>
                <g id="Group 38">
                    <path id="Path 151" fill-rule="evenodd" clip-rule="evenodd" d="M88.9259 350.463C85.0059 336.494 69.5254 340.582 69.5254 340.582C69.5254 340.582 81.1156 344.37 87.0264 350.463H88.9259Z" fill="#02B596" />
                    <path id="Path 151_2" fill-rule="evenodd" clip-rule="evenodd" d="M88.8859 348.317C92.8059 334.348 105.872 336.39 105.872 336.39C105.872 336.39 97.9363 342.914 90.7854 348.317H88.8859Z" fill="#02B596" />
                    <path id="Path 151_3" fill-rule="evenodd" clip-rule="evenodd" d="M88.8573 351.094C85.3527 338.701 93.5274 328.033 93.5274 328.033C93.5274 328.033 93.113 342.71 90.272 350.189L88.8573 351.094Z" fill="#02B596" />
                    <path id="Path 114" fill-rule="evenodd" clip-rule="evenodd" d="M85.4282 348.317C83.8787 343.84 82.3374 337.585 81.1826 331.522C86.8909 333.818 88.7244 342.965 86.8909 348.317H85.4282Z" fill="#02D3AF" />
                    <g id="Group 89">
                        <path id="Rectangle_25" fill-rule="evenodd" clip-rule="evenodd" d="M74.338 346.019C74.235 344.841 75.1637 343.828 76.3463 343.828H97.7218C98.9044 343.828 99.8331 344.841 99.7301 346.019L95.4797 394.656C95.3887 395.698 94.5168 396.497 93.4714 396.497H80.5967C79.5513 396.497 78.6794 395.698 78.5883 394.656L74.338 346.019Z" fill="#018ABE" />
                        <mask id="mask1_1648:45397" style="mask-type:alpha" maskUnits="userSpaceOnUse" x="74" y="343" width="26" height="54">
                            <path id="Rectangle_26" fill-rule="evenodd" clip-rule="evenodd" d="M74.338 346.019C74.235 344.841 75.1637 343.828 76.3463 343.828H97.7218C98.9044 343.828 99.8331 344.841 99.7301 346.019L95.4797 394.656C95.3887 395.698 94.5168 396.497 93.4714 396.497H80.5967C79.5513 396.497 78.6794 395.698 78.5883 394.656L74.338 346.019Z" fill="white" />
                        </mask>
                        <g mask="url(#mask1_1648:45397)">
                            <path id="Rectangle_27" fill-rule="evenodd" clip-rule="evenodd" d="M70.8965 340.54H80.4151C74.5166 362.933 92.2732 378.328 80.4151 400.722H70.8965V340.54Z" fill="#369AC0" />
                        </g>
                    </g>
                </g>
            </g>
            <g id="Chair4_2">
                <path id="Path 25" fill-rule="evenodd" clip-rule="evenodd" d="M499.116 330.819L490.701 397.301L495.113 397.242L503.527 331.442L499.116 330.819Z" fill="#91D6FF" />
                <path id="Path_84" fill-rule="evenodd" clip-rule="evenodd" d="M474.629 330.819L466.215 397.301L470.626 397.242L479.041 331.442L474.629 330.819Z" fill="#91D6FF" />
                <path id="Path_85" fill-rule="evenodd" clip-rule="evenodd" d="M528.343 330.819L536.758 397.301L532.346 397.242L523.932 331.442L528.343 330.819Z" fill="#BFE7FF" />
                <path id="Path_86" fill-rule="evenodd" clip-rule="evenodd" d="M471.411 341.27C467.575 341.27 464.466 338.16 464.466 334.324C464.466 330.488 467.575 327.379 471.411 327.379H496.508C502.23 327.379 507.012 323.025 507.548 317.329L511.487 275.444C512.023 269.748 516.805 265.395 522.527 265.395H534.114C540.573 265.395 545.665 270.892 545.17 277.332L541.044 331.031C540.6 336.808 535.783 341.27 529.988 341.27H471.411Z" fill="#91D6FF" />
                <path id="Combined Shape_2" fill-rule="evenodd" clip-rule="evenodd" d="M464.467 334.265C464.505 334.266 464.544 334.266 464.582 334.266H522.995C528.788 334.266 533.605 329.806 534.05 324.03L538.171 270.543C538.294 268.951 538.075 267.417 537.579 266.009C536.437 265.611 535.209 265.395 533.927 265.395H522.421C516.701 265.395 511.919 269.746 511.382 275.441L507.447 317.156C506.91 322.851 502.129 327.203 496.408 327.203H471.393C467.567 327.203 464.466 330.304 464.466 334.13C464.466 334.175 464.466 334.22 464.467 334.265Z" fill="#BFE7FF" />
            </g>
            <g id="Wom2.4">
                <g id="LLeg_3">
                    <path id="Path_87" fill-rule="evenodd" clip-rule="evenodd" d="M472.91 376.067C472.91 376.067 476.767 383.858 473.605 386.314C470.438 388.769 462.072 393.371 462.072 393.371L484.235 391.978L479.309 374.986L472.91 376.067Z" fill="url(#paint9_linear_1648:45397)" />
                    <path id="Path_88" fill-rule="evenodd" clip-rule="evenodd" d="M482.04 383.117C481.342 383.45 482.489 386.581 480.035 386.361C477.582 386.141 476.041 382.905 474.232 383.116C472.423 383.325 471.274 386.584 467.829 388.853C464.385 391.124 459.278 393.831 459.62 396.113C459.963 398.395 467.999 399.006 472.07 398.251C476.142 397.496 478.042 395.859 480.684 395.99C483.325 396.12 484.985 395.797 485.813 394.101C486.641 392.404 482.844 382.733 482.04 383.117Z" fill="#EEDFE8" />
                    <path id="Path_89" fill-rule="evenodd" clip-rule="evenodd" d="M481.844 393.533L481.618 393.52C478.345 393.244 476.099 395.303 472.983 395.883C469.867 396.464 461.649 396.665 460.336 394.716C460.274 394.623 460.216 394.529 460.163 394.433C459.722 394.975 459.514 395.555 459.621 396.231C459.963 398.403 468 398.984 472.072 398.265C476.144 397.547 478.044 395.989 480.686 396.113L481.156 396.131C483.526 396.195 485.038 395.832 485.816 394.316C486.005 393.946 485.963 393.152 485.773 392.147C484.668 392.903 483.273 393.576 481.844 393.533Z" fill="#EC7AA5" />
                    <path id="Path_90" fill-rule="evenodd" clip-rule="evenodd" d="M506.297 307.398C499.587 307.697 462.242 315.957 455.457 317.361C448.672 318.764 442.936 326.357 448.11 335.15C453.921 345.02 468.914 373.051 472.555 379.37C474.357 382.498 483.446 380.744 481.311 375.495C477.331 365.709 475.482 341.126 465.335 332.162C465.335 332.162 499.462 338.102 514.203 331.298C524.917 326.353 522.493 306.674 506.297 307.398Z" fill="#413C75" />
                </g>
                <g id="LArm_3">
                    <path id="Path_91" fill-rule="evenodd" clip-rule="evenodd" d="M459.49 265.514C459.49 265.514 459.566 261.525 457.657 258.672C455.747 255.819 455.671 252.788 454.226 252.887C452.78 252.986 454.211 260.031 454.211 260.031C454.211 260.031 452.378 259.33 451.06 258.444C449.743 257.558 445.748 253.189 444.814 253.963C443.232 255.282 445.781 262.723 447.17 264.211C448.563 265.699 455.438 269.857 455.438 269.857L475.685 290.255L478.713 279.426L459.49 265.514Z" fill="url(#paint10_linear_1648:45397)" />
                    <path id="Path_92" fill-rule="evenodd" clip-rule="evenodd" d="M499.989 263.714C496.867 270.953 491.152 284.252 488.796 288.22C485.844 293.189 481.188 295.378 475.736 291.691C474.596 290.92 471.32 288.222 471.32 288.222C471.805 283.499 473.569 279.552 476.611 276.379L478.676 278.087C478.676 278.087 484.534 263.072 489.246 254.373C493.327 246.848 504.74 252.708 499.989 263.714Z" fill="#EA5455" />
                    <path id="Path_93" fill-rule="evenodd" clip-rule="evenodd" d="M478.616 278.095C478.616 278.095 477.043 283.431 476.675 283.122C476.307 282.813 476.956 276.7 476.956 276.7L478.616 278.095Z" fill="black" fill-opacity="0.159856" />
                </g>
                <g id="Head_3">
                    <path id="Path_94" fill-rule="evenodd" clip-rule="evenodd" d="M513.478 235.613V242.019L518.182 238.231C518.182 238.231 519.628 232.094 520.804 227.536C521.541 224.677 523.338 215.003 516.105 215.456C510.18 205.012 492.924 211.476 492.787 224.236C492.622 239.584 492.757 245.559 492.757 245.559C502.514 246.119 508.006 244.708 513.478 235.613Z" fill="#422851" />
                    <path id="Path_95" fill-rule="evenodd" clip-rule="evenodd" d="M518.284 247.81C518.284 247.81 513.908 246.782 513.756 239.612C513.605 232.442 513.711 229.994 513.711 229.994L504.072 229.82C504.072 229.82 503.967 237.811 503.966 240.702C503.962 247.73 498.793 248.306 498.793 248.306C498.793 248.306 499.677 254.104 508.411 254.595C515.23 254.979 518.284 247.81 518.284 247.81Z" fill="url(#paint11_linear_1648:45397)" />
                    <path id="Path_96" fill-rule="evenodd" clip-rule="evenodd" d="M515.958 226.414C520.258 226.247 519.557 232.542 515.09 232.534C515.09 232.534 512.496 241.476 503.488 241.476C496.173 241.476 495.697 231.054 495.631 228.975C495.559 226.758 495.55 219.475 495.55 219.475L516.126 219.465L515.958 226.414Z" fill="url(#paint12_linear_1648:45397)" />
                    <path id="Path_97" fill-rule="evenodd" clip-rule="evenodd" d="M516.29 226.373C514.508 226.667 514.725 227.846 514.24 227.743C511.78 227.22 501.82 227.91 500.538 222.434C498.942 225.855 498.552 226.696 495.038 227.615V217.588L517.262 215.457C517.262 215.457 516.917 226.269 516.29 226.373Z" fill="#422851" />
                    <path id="Path_98" d="M505.224 235.468C505.224 235.468 503.078 237.285 500.593 235.584" stroke="#F77B7B" stroke-width="1.5" stroke-linecap="round" />
                    <path id="Path_99" d="M503.808 237.572C503.14 237.88 502.498 237.903 501.924 237.595" stroke="#F49494" stroke-linecap="round" />
                    <path id="Path 8_3" d="M515.519 229.799C515.475 228.789 515.783 227.987 516.812 227.826" stroke="#F77B7B" stroke-linecap="round" />
                </g>
                <g id="Body_3">
                    <path id="Path_100" fill-rule="evenodd" clip-rule="evenodd" d="M517.307 247.077C511.816 250.44 505.467 251.673 499.557 248.021C489.912 267.038 487.509 289.728 489.829 314.807C503.892 320.375 515.712 319.28 525.775 312.916L517.307 247.077Z" fill="#FFE4F4" />
                    <g id="RLeg_2">
                        <path id="Path_101" fill-rule="evenodd" clip-rule="evenodd" d="M448.87 376.38C448.87 376.38 448.986 385.551 441.43 388.979C433.879 392.407 428.498 392.201 429.183 394.852C429.868 397.502 449.524 397.395 451.359 395.322C452.924 393.559 456.326 377.139 457.263 378.394L448.87 376.38Z" fill="url(#paint13_linear_1648:45397)" />
                        <path id="Path_102" fill-rule="evenodd" clip-rule="evenodd" d="M454.358 389.331C453.2 388.497 452.227 393.303 449.081 391.966C445.936 390.63 448.416 386.214 446.437 385.399C444.457 384.585 440.635 388.964 435.558 390.029C430.481 391.092 426.359 392.024 425.188 394C424.179 395.698 425.188 396.241 425.188 396.241C425.188 396.241 430.075 398.682 433.112 399.219C437.524 399.999 450.274 400.519 451.671 399.096C452.529 398.223 454.937 389.748 454.358 389.331Z" fill="#EEDFE8" />
                        <path id="Path_103" fill-rule="evenodd" clip-rule="evenodd" d="M424.912 394.199C423.955 395.76 425.465 396.572 425.646 396.662L426.374 396.973C427.757 397.547 430.876 398.78 433.181 399.221C437.408 400.029 450.497 400.507 451.905 399.118C452.152 398.874 452.458 397.982 452.754 396.823L451.856 396.921C447.533 397.379 437.885 398.207 433.123 397.086C428.897 396.09 426.583 394.452 425.528 393.496C425.272 393.716 425.065 393.95 424.912 394.199Z" fill="#EC7AA5" />
                        <path id="Path_104" fill-rule="evenodd" clip-rule="evenodd" d="M527.321 304.563C527.321 304.563 537.076 325.164 523.368 332.238C510.11 339.079 470.422 330.988 470.422 330.988C470.422 330.988 471.131 336.698 470.422 341.79C468.57 355.091 459.761 377.25 457.897 380.034C455.319 383.884 447.468 380.98 447.32 377.774C447.172 374.568 453.239 333.621 454.162 325.813C455.079 318.004 457.977 316.87 466.44 314.736C468.384 314.245 491.376 308.531 493.482 308.698C511.58 310.129 527.321 304.563 527.321 304.563Z" fill="#524D87" />
                        <path id="Path_105" fill-rule="evenodd" clip-rule="evenodd" d="M516.628 330.112C503.503 331.583 468.754 328.551 467.358 329.929C466.026 331.244 466.248 354.124 463.26 367.368L463.714 366.117C466.525 358.31 469.444 348.815 470.422 341.79C471.131 336.698 470.422 330.988 470.422 330.988L472.022 331.298C479.567 332.715 511.701 338.258 523.368 332.238C529.689 328.976 532.268 323.557 531.106 315.98C529.105 324.544 524.279 329.255 516.628 330.112Z" fill="white" fill-opacity="0.056108" />
                    </g>
                    <path id="Path_106" fill-rule="evenodd" clip-rule="evenodd" d="M517.067 247.091C507.972 276.885 502.517 319.125 530.923 311.776C515.833 283.995 536.346 271.491 531.697 257.133C530.107 252.224 517.185 246.706 517.067 247.091Z" fill="#EA5455" />
                    <path id="Path_107" fill-rule="evenodd" clip-rule="evenodd" d="M527.326 259.463C517.046 261.015 525.52 278.962 522.127 281.666C518.734 284.37 512.828 284.662 512.191 286.314C510.911 289.634 517.098 298.015 530.752 311.456L530.923 311.776C517.779 287.576 531.65 274.968 532.371 262.63C530.848 260.241 529.166 259.186 527.326 259.463Z" fill="black" fill-opacity="0.159856" />
                    <path id="Path_108" fill-rule="evenodd" clip-rule="evenodd" d="M500.039 247.812C496.568 256.517 494.9 263.347 493.343 276.125C492.045 286.767 492.695 308.728 492.695 308.728L488.406 309.571C488.406 309.571 485.34 275.643 486.365 271.274C488.085 263.944 489.251 259.661 491.522 252.959C492.774 249.281 500.039 247.812 500.039 247.812Z" fill="#EA5455" />
                </g>
                <g id="RArm_3">
                    <path id="Path_109" fill-rule="evenodd" clip-rule="evenodd" d="M515.157 280.916C515.157 280.916 509.557 275.309 507.618 274.658C505.678 274.007 495.055 273.225 495.127 274.696C495.208 276.271 502.044 276.18 502.676 276.956C503.309 277.73 504.188 283.762 506.577 284.357C508.962 284.952 513.905 286.712 513.905 286.712L535.91 298.082L533.566 286.713L515.157 280.916Z" fill="url(#paint14_linear_1648:45397)" />
                    <path id="Path_110" fill-rule="evenodd" clip-rule="evenodd" d="M532.011 257.174C538.686 266.594 544.385 280.944 546.572 286.538C548.76 292.133 546.553 300.571 536.934 298.914C535.789 298.717 533.926 297.992 533.926 297.992C530.39 293.144 529.769 288.982 531.089 285.276L532.333 285.801C532.333 285.801 522.773 268.855 520.439 264.313C516.539 256.726 526.132 248.874 532.011 257.174Z" fill="#EA5455" />
                    <path id="Path_111" fill-rule="evenodd" clip-rule="evenodd" d="M532.334 285.801C532.334 285.801 537.19 288.173 536.579 287.129C535.969 286.086 530.484 282.507 530.484 282.507L532.334 285.801Z" fill="black" fill-opacity="0.159856" />
                </g>
            </g>
            <g id="Example Ipad1">
                <g id="Group 3_2">
                    <path id="Rectangle_28" fill-rule="evenodd" clip-rule="evenodd" d="M431.049 255.096C430.72 253.775 431.524 252.438 432.844 252.109L448.837 248.122C450.157 247.792 451.494 248.596 451.824 249.916L457.775 273.785C458.104 275.105 457.3 276.443 455.98 276.772L439.987 280.759C438.667 281.089 437.33 280.285 437 278.965L431.049 255.096Z" fill="url(#paint15_linear_1648:45397)" />
                    <path id="Rectangle_29" fill-rule="evenodd" clip-rule="evenodd" d="M431.721 255.501C431.392 254.18 432.195 252.843 433.516 252.514L449.509 248.526C450.829 248.197 452.166 249.001 452.495 250.321L458.447 274.19C458.776 275.51 457.972 276.847 456.652 277.177L440.659 281.164C439.339 281.493 438.001 280.69 437.672 279.369L431.721 255.501Z" fill="#518DF8" />
                    <path id="Rectangle_30" d="M432.443 255.659C432.146 254.47 432.87 253.267 434.058 252.97L449.15 249.208C450.338 248.911 451.542 249.634 451.838 250.823L457.22 272.408C457.516 273.597 456.793 274.8 455.604 275.096L440.513 278.859C439.324 279.156 438.121 278.432 437.825 277.244L432.443 255.659Z" fill="white" />
                </g>
            </g>
            <g id="Group 26_10">
                <g id="Group 25">
                    <path id="Rectangle_31" fill-rule="evenodd" clip-rule="evenodd" d="M281.789 291.104H290.184V397.64H281.789L281.789 291.104Z" fill="#E9E9E9" />
                    <path id="Rectangle_32" fill-rule="evenodd" clip-rule="evenodd" d="M199.556 294.605H265.876V314.393H210.606V397.64H199.556V294.605Z" fill="#D3D3D3" />
                    <path id="Rectangle_33" fill-rule="evenodd" clip-rule="evenodd" d="M199.127 294.605H205.01V397.64H199.127V294.605Z" fill="#DBDBDB" />
                </g>
                <g id="Group 25_2">
                    <path id="Rectangle_34" fill-rule="evenodd" clip-rule="evenodd" d="M487.853 294.605H499.618V397.64H487.853L487.853 294.605Z" fill="#E9E9E9" />
                    <path id="Rectangle_35" fill-rule="evenodd" clip-rule="evenodd" d="M487.853 291.103H495.206V397.64H487.853L487.853 291.103Z" fill="#DBDBDB" />
                    <path id="Rectangle_36" fill-rule="evenodd" clip-rule="evenodd" d="M390.475 294.605H492.688V314.133H404.231V397.64H390.475V294.605Z" fill="#D3D3D3" />
                    <path id="Rectangle_37" fill-rule="evenodd" clip-rule="evenodd" d="M207.803 291.103L390.823 291.103V320.686H207.803V291.103Z" fill="#DBDBDB" />
                    <path id="Rectangle_38" fill-rule="evenodd" clip-rule="evenodd" d="M386.625 294.605H395.02V320.686H386.625V294.605Z" fill="#E9E9E9" />
                    <path id="Rectangle_39" fill-rule="evenodd" clip-rule="evenodd" d="M390.502 294.605H397.12V397.64H390.502V294.605Z" fill="#DBDBDB" />
                    <path id="Rectangle_40" fill-rule="evenodd" clip-rule="evenodd" d="M391.557 296.356C391.557 293.455 393.908 291.103 396.81 291.103L503.527 291.103C506.428 291.103 508.78 293.455 508.78 296.356C508.78 299.257 506.428 301.609 503.527 301.609H396.81C393.908 301.609 391.557 299.257 391.557 296.356Z" fill="#E9E9E9" />
                    <path id="Rectangle_41" fill-rule="evenodd" clip-rule="evenodd" d="M205.704 293.204H388.724V303.71H205.704V293.204Z" fill="#E9E9E9" />
                    <path id="Rectangle_42" fill-rule="evenodd" clip-rule="evenodd" d="M190.313 296.356C190.313 293.455 192.665 291.103 195.566 291.103H398.864C401.765 291.103 404.117 293.455 404.117 296.356C404.117 299.257 401.765 301.609 398.864 301.609H195.566C192.665 301.609 190.313 299.257 190.313 296.356Z" fill="#DBDBDB" />
                </g>
            </g>
            <g id="Men2.8">
                <g id="RLeg_3">
                    <path id="Path_112" fill-rule="evenodd" clip-rule="evenodd" d="M223.097 371.483L217.29 390.34L229.473 390.781C229.473 390.781 228.097 384.331 230.061 378.285C231.636 373.43 232.922 371.008 232.922 371.008L223.097 371.483Z" fill="#92691F" />
                    <path id="Path_113" fill-rule="evenodd" clip-rule="evenodd" d="M229.153 385.6C229.153 385.6 233.803 389.909 238.274 391.506C242.746 393.102 244.458 393.12 244.776 393.72L244.834 393.835C245.754 395.734 245.196 398.256 235.004 398.396C232.526 398.43 229.95 396.99 223.113 395.468L222.619 398.13C218.792 398.079 216.559 397.476 215.921 396.32C214.957 394.591 216.594 386.065 217.723 385.904C218.853 385.742 219.076 389.209 222.107 389.285C225.144 389.361 229.153 385.6 229.153 385.6Z" fill="#391B0B" />
                    <path id="Combined Shape_3" fill-rule="evenodd" clip-rule="evenodd" d="M238.238 391.493C238.092 391.622 237.914 391.76 237.701 391.89C237.009 392.315 235.967 392.651 234.571 392.332C233.858 392.169 233.07 391.715 232.301 391.15C231.528 390.581 230.754 389.884 230.067 389.21C229.379 388.535 228.776 387.879 228.344 387.393C228.128 387.15 227.955 386.948 227.836 386.808C227.816 386.784 227.798 386.763 227.781 386.743C227.921 386.636 228.053 386.532 228.175 386.435L228.217 386.484C228.334 386.622 228.505 386.821 228.718 387.061C229.144 387.542 229.74 388.188 230.417 388.853C231.095 389.518 231.851 390.198 232.598 390.747C233.35 391.301 234.071 391.705 234.683 391.845C235.936 392.131 236.845 391.829 237.44 391.464C237.534 391.406 237.621 391.347 237.7 391.287C237.879 391.36 238.059 391.429 238.238 391.493Z" fill="#81411E" />
                    <path id="Path_114" fill-rule="evenodd" clip-rule="evenodd" d="M195.333 312.458C195.333 312.458 243.713 316.327 250.379 316.534C257.045 316.74 262.138 326.254 256.976 335.037C251.179 344.895 235.427 373.278 232.347 379.84C229.743 385.388 217.905 383.115 220.035 374.64C222.578 364.496 227.318 341.74 237.443 332.787C237.443 332.787 212.819 341.715 198.949 333.056C191.035 328.117 195.333 312.458 195.333 312.458Z" fill="#7A3636" />
                    <path id="Path_115" fill-rule="evenodd" clip-rule="evenodd" d="M256.976 335.036L256.222 336.33C253.287 341.4 248.55 349.968 244.026 358.312L244.264 357.548C247.763 346.416 253.198 333.302 255.522 329.3C256.336 327.898 257.445 326.469 258.849 325.012C259.444 328.067 258.991 331.607 256.976 335.036Z" fill="white" fill-opacity="0.192499" />
                </g>
                <g id="LLeg_4">
                    <path id="Path_116" fill-rule="evenodd" clip-rule="evenodd" d="M275.747 371.703C275.747 371.703 278.981 386.086 283.191 387.624C284.812 388.217 270.77 389.909 270.77 389.909L267.245 376.111L275.747 371.703Z" fill="#92691F" />
                    <path id="Path_117" fill-rule="evenodd" clip-rule="evenodd" d="M268.742 385.05L268.507 397.191L273.347 397.228L273.397 394.499C273.397 394.499 277.169 396.761 279.723 397.556C283.159 398.629 296.732 398.067 298.266 396.432C299.8 394.79 299.833 392.178 296.684 391.857C293.536 391.536 288.33 390.58 286.088 388.865C283.378 386.797 282.346 383.518 281.558 383.515C280.352 383.51 280.259 387.369 274.142 387.423C271.813 387.444 268.742 385.05 268.742 385.05Z" fill="#391B0B" />
                    <path id="Path_118" fill-rule="evenodd" clip-rule="evenodd" d="M280.306 384.597C280.306 384.597 283.427 389.468 285.283 390.173C287.139 390.871 288.634 390.088 288.634 390.088C288.634 390.088 285.435 388.813 284.199 386.588C281.399 381.547 280.839 384.111 280.306 384.597Z" fill="#81411E" />
                    <path id="Path_119" fill-rule="evenodd" clip-rule="evenodd" d="M199.335 316.367C199.335 316.367 199.268 331.824 209.653 335.71C220.039 339.595 253.858 338.132 253.858 338.132C253.858 338.132 264.59 377.62 267.161 381.466C269.733 385.312 281.926 385.709 281.267 376.852C280.603 367.994 275.844 335.107 274.923 327.308C274.008 319.509 271.117 317.641 262.673 316.243C259.705 315.752 260.965 314.965 241.887 314.072C237.79 313.88 230.915 315.414 224.597 316.109C218.28 316.804 199.335 316.367 199.335 316.367Z" fill="#7A3636" />
                    <path id="Path_120" fill-rule="evenodd" clip-rule="evenodd" d="M233.091 316.7L233.091 314.905L233.936 314.778C237.012 314.322 239.808 313.974 241.888 314.072L244.082 314.178C260.872 315.027 259.825 315.771 262.674 316.243L263.223 316.336C271.064 317.694 273.901 319.592 274.861 326.802L275.13 328.972C276.401 338.967 280.644 368.525 281.268 376.851C281.318 377.518 281.294 378.132 281.208 378.696L278.736 366.249C275.094 347.794 273.052 336.86 272.612 333.444L272.52 332.735C271.698 326.673 269.544 319.152 262.596 319.643L261.996 319.693C257.104 320.065 247.827 319.127 234.164 316.878L233.091 316.7Z" fill="white" fill-opacity="0.192499" />
                    <ellipse id="Oval_10" cx="282.61" cy="328.635" rx="2.77639" ry="4.86353" transform="rotate(13 282.61 328.635)" fill="white" fill-opacity="0.192499" />
                </g>
                <g id="RArm_4">
                    <path id="Path_121" fill-rule="evenodd" clip-rule="evenodd" d="M206.826 295.842C206.826 295.842 218.144 298.462 218.029 299.49C217.917 300.524 212.934 300.683 212.934 300.683C212.934 300.683 222.145 306.631 221.411 307.791C220.678 308.952 214.673 310.259 212.181 309.323C209.688 308.387 203.226 301.576 203.226 301.576L206.826 295.842Z" fill="url(#paint16_linear_1648:45397)" />
                    <path id="Path_122" fill-rule="evenodd" clip-rule="evenodd" d="M206.928 262.311C203.137 266.989 190.212 281.28 190.212 281.28C190.212 281.28 203.137 290.486 206.392 292.434C211.73 295.626 206.302 304.093 202.388 303.153C197.083 301.875 183.694 292.638 177.403 288.9C171.112 285.162 173.519 279.127 178.174 273.62C181.749 269.389 189.522 260.723 194.991 253.115C200.432 245.545 214.285 253.232 206.928 262.311Z" fill="#EA5455" />
                    <path id="Path 15" fill-rule="evenodd" clip-rule="evenodd" d="M190.211 281.28C190.211 281.28 186.572 284.787 186.951 285.058C187.329 285.329 191.714 282.358 191.714 282.358L190.211 281.28Z" fill="black" fill-opacity="0.159856" />
                </g>
                <g id="Head_4">
                    <path id="Path_123" fill-rule="evenodd" clip-rule="evenodd" d="M229.501 227.963C232.68 228.312 232.454 233.906 228.585 234.199C227.794 239.592 224.973 242.162 221.534 242.459L221.725 250.617L206.514 250.608C206.514 250.608 210.797 244.845 210.584 236.955C210.37 229.065 210.727 221.654 210.727 221.654L230.429 222.008L229.501 227.963Z" fill="url(#paint17_linear_1648:45397)" />
                    <path id="Path_124" fill-rule="evenodd" clip-rule="evenodd" d="M223.279 212.746C234.998 215.704 230.163 228.199 230.163 228.199C226.622 227.716 223.215 232.012 221.923 236.226C218.186 240.067 213.347 240.06 210.129 237.823C210.129 237.823 205.702 224.129 207.15 219.569C208.598 215.009 212.597 210.05 223.279 212.746Z" fill="#2C272E" />
                </g>
                <g id="Body_4">
                    <path id="Path_125" fill-rule="evenodd" clip-rule="evenodd" d="M195.573 252.437C194.521 254.228 193.767 261.443 195.573 290.028C196.508 304.83 192.53 319.418 193.559 325.84C194.587 332.262 201.652 333.029 201.652 333.029L205.772 319.625L207.71 333.029C207.71 333.029 236.928 330.297 239.489 323.646C242.055 316.98 238.833 301.309 238.066 286.554C237.297 271.739 237.874 256.533 236.458 254.228C233.632 249.628 226.358 247.479 221.843 246.791C216.114 245.918 208.718 245.884 204.322 247.278C199.925 248.672 196.625 250.645 195.573 252.437Z" fill="#EA5455" />
                    <path id="Path_126" fill-rule="evenodd" clip-rule="evenodd" d="M225.302 262.615C227.608 279.627 230.691 291.563 234.552 298.425C236.148 301.263 237.77 302.432 239.417 301.935L239.026 298.165C238.636 294.35 238.266 290.42 238.065 286.552C237.925 283.855 237.83 281.145 237.759 278.503L225.302 262.615Z" fill="black" fill-opacity="0.159856" />
                    <path id="Path_127" fill-rule="evenodd" clip-rule="evenodd" d="M204.321 247.277C204.055 247.362 203.797 247.45 203.548 247.54C209.86 250.293 220.284 249.925 225.95 247.683C224.474 247.266 223.059 246.975 221.843 246.79C216.114 245.917 208.718 245.883 204.321 247.277Z" fill="#E5AA41" />
                </g>
                <g id="LArm_4">
                    <path id="Path_128" fill-rule="evenodd" clip-rule="evenodd" d="M281.753 277.349C281.753 277.349 291.154 271.073 292.815 269.813C294.471 268.557 296.549 259.039 295.261 257.704C294.639 257.058 289.936 261.405 289.097 261.988C288.263 262.565 283.999 265.134 283.999 265.134C283.999 265.134 285.205 257.848 284.166 257.261C283.398 256.833 281.861 258.708 281.655 260.69C281.449 262.671 279.312 265.257 279.036 268.264C278.911 269.578 277.618 272.088 277.618 272.088L281.753 277.349Z" fill="url(#paint18_linear_1648:45397)" />
                    <path id="Path_129" fill-rule="evenodd" clip-rule="evenodd" d="M225.762 265.314C229.365 272.8 235.483 283.743 238.844 290.16C242.82 297.753 247.559 300.971 257.116 295.336C265.12 290.617 276.662 283.028 282.626 278.903C288.176 275.065 281.616 265.589 276.373 268.791C269.418 273.032 251.632 281.438 251.632 281.438C251.632 281.438 242.479 264.719 238.678 256.692C233.844 246.489 218.791 250.828 225.762 265.314Z" fill="#EA5455" />
                    <path id="Path_130" fill-rule="evenodd" clip-rule="evenodd" d="M251.631 281.439C251.631 281.439 253.305 287.333 253.7 287.1C254.095 286.868 253.422 280.594 253.422 280.594L251.631 281.439Z" fill="black" fill-opacity="0.159856" />
                </g>
            </g>
            <g id="Chair8">
                <path id="Path_131" fill-rule="evenodd" clip-rule="evenodd" d="M214.552 339.157L206.138 398.69L210.549 398.632L218.964 339.78L214.552 339.157Z" fill="#BFE7FF" />
                <path id="Path_132" fill-rule="evenodd" clip-rule="evenodd" d="M242.614 339.157L251.028 398.69L246.617 398.632L238.202 339.78L242.614 339.157Z" fill="#91D6FF" />
                <path id="Path_133" fill-rule="evenodd" clip-rule="evenodd" d="M188.9 339.157L180.485 398.69L184.897 398.632L193.312 339.78L188.9 339.157Z" fill="#BFE7FF" />
                <path id="Path_134" fill-rule="evenodd" clip-rule="evenodd" d="M245.833 342.659C249.669 342.659 252.778 339.55 252.778 335.714C252.778 331.878 249.669 328.768 245.833 328.768H220.736C215.014 328.768 210.232 324.415 209.696 318.719L205.757 276.834C205.221 271.138 200.439 266.784 194.718 266.784H183.13C176.671 266.784 171.58 272.282 172.074 278.722L176.2 332.421C176.644 338.198 181.462 342.659 187.256 342.659H245.833Z" fill="#BFE7FF" />
                <path id="Combined Shape_4" fill-rule="evenodd" clip-rule="evenodd" d="M252.775 335.654C252.737 335.655 252.698 335.655 252.66 335.655H217.151C211.358 335.655 206.541 331.195 206.096 325.419L201.766 269.229C204.028 271.047 205.569 273.741 205.86 276.831L209.795 318.545C210.332 324.24 215.113 328.592 220.834 328.592H245.849C249.675 328.592 252.776 331.694 252.776 335.52C252.776 335.564 252.776 335.609 252.775 335.654Z" fill="#91D6FF" />
            </g>
            <g id="Front Laptop3">
                <path id="Rectangle_43" fill-rule="evenodd" clip-rule="evenodd" d="M410.312 290.324C410.312 289.911 409.977 289.577 409.565 289.577H348.091C347.678 289.577 347.344 289.911 347.344 290.324V290.735C347.344 291.147 347.678 291.482 348.091 291.482H409.565C409.977 291.482 410.312 291.147 410.312 290.735V290.324Z" fill="url(#paint19_linear_1648:45397)" />
                <path id="Rectangle_44" fill-rule="evenodd" clip-rule="evenodd" d="M410.316 290.324C410.316 289.911 409.982 289.577 409.57 289.577H386.194C385.781 289.577 385.447 289.911 385.447 290.324V290.735C385.447 291.147 385.781 291.482 386.194 291.482H409.57C409.982 291.482 410.316 291.147 410.316 290.735V290.324Z" fill="#518DF8" />
                <path id="Rectangle_45" fill-rule="evenodd" clip-rule="evenodd" d="M414.667 264.588C414.943 262.436 413.266 260.531 411.096 260.531H371.976C370.165 260.531 368.636 261.877 368.406 263.673L365.597 285.603C365.322 287.755 366.998 289.66 369.168 289.66H408.288C410.099 289.66 411.628 288.314 411.859 286.517L414.667 264.588Z" fill="#518DF8" />
                <path id="Rectangle_46" fill-rule="evenodd" clip-rule="evenodd" d="M413.418 264.588C413.694 262.436 412.017 260.531 409.847 260.531H371.595C369.784 260.531 368.254 261.877 368.024 263.673L365.216 285.603C364.94 287.755 366.617 289.66 368.787 289.66H407.039C408.85 289.66 410.379 288.314 410.61 286.517L413.418 264.588Z" fill="url(#paint20_linear_1648:45397)" />
                <path id="Rectangle_47" d="M411.999 265.56C412.247 263.623 410.738 261.909 408.785 261.909H372.453C370.823 261.909 369.446 263.12 369.24 264.738L366.709 284.522C366.461 286.459 367.97 288.173 369.922 288.173H406.254C407.884 288.173 409.261 286.962 409.468 285.344L411.999 265.56Z" fill="white" />
            </g>
            <g id="Wom3.8">
                <g id="RArm_5">
                    <path id="Path_135" fill-rule="evenodd" clip-rule="evenodd" d="M311.529 297.242C311.529 297.242 321.531 299.575 321.429 300.491C321.33 301.412 316.927 301.553 316.927 301.553C316.927 301.553 325.067 306.85 324.418 307.883C323.771 308.916 318.464 310.08 316.261 309.247C314.058 308.413 308.347 302.348 308.347 302.348L292.326 293.744L297.682 286.682L311.529 297.242Z" fill="url(#paint21_linear_1648:45397)" />
                    <path id="Path_136" fill-rule="evenodd" clip-rule="evenodd" d="M311.619 267.385C308.268 271.551 296.846 284.276 296.846 284.276L299.101 285.968L291.767 294.864C291.767 294.864 287.085 291.994 285.527 291.062C279.967 287.733 282.094 282.359 286.208 277.455C289.367 273.688 296.237 265.971 301.069 259.197C305.878 252.457 318.119 259.301 311.619 267.385Z" fill="#FFB66F" />
                    <path id="Path 15_2" fill-rule="evenodd" clip-rule="evenodd" d="M296.846 284.276C296.846 284.276 293.63 287.399 293.964 287.64C294.299 287.882 298.174 285.236 298.174 285.236L296.846 284.276Z" fill="black" fill-opacity="0.159856" />
                    <path id="Path 76" fill-rule="evenodd" clip-rule="evenodd" d="M298.647 285.038L289.089 294.5L293.868 297.628L300.434 286.388L298.647 285.038Z" fill="#FFEDC2" />
                </g>
                <g id="LLeg_5">
                    <path id="Path_137" fill-rule="evenodd" clip-rule="evenodd" d="M329.169 370.051L323.999 386.706L332.689 387.096C332.689 387.096 331.464 381.399 333.213 376.059C334.615 371.771 335.76 369.632 335.76 369.632L329.169 370.051Z" fill="url(#paint22_linear_1648:45397)" />
                    <path id="Path_138" fill-rule="evenodd" clip-rule="evenodd" d="M332.76 382.219C332.76 382.219 332.579 386.46 334.06 387.8C335.54 389.139 343.394 394.086 344.052 395.082C344.71 396.079 343.744 397.296 343.744 397.296C343.744 397.296 335.726 398.553 331.944 396.613C329.213 395.211 327.262 394.066 327.262 394.066L326.424 396.221L322.046 395.592C322.046 395.592 320.696 392.173 321.276 390.473C321.856 388.772 324.848 380.829 324.848 380.829C324.848 380.829 332.76 382.219 332.76 382.219Z" fill="#391B0B" />
                    <path id="Path_139" fill-rule="evenodd" clip-rule="evenodd" d="M303.882 313.281C310.419 313.919 342.615 321.587 349.245 322.949C355.874 324.311 361.479 331.68 356.423 340.212C350.746 349.79 334.695 379.556 334.695 379.556C334.596 379.58 334.499 379.623 334.399 379.623C331.134 379.623 328.223 379.176 325.421 377.223C325.421 377.223 329.679 346.011 339.594 337.313C339.594 337.313 313.991 346.519 301.187 336.475C293.633 330.549 296.679 312.578 303.882 313.281Z" fill="#33373E" />
                    <path id="Combined Shape_5" fill-rule="evenodd" clip-rule="evenodd" d="M354.064 325.164L352.291 347.427C352.489 347.075 352.684 346.729 352.875 346.389L354.535 325.545C354.381 325.414 354.224 325.287 354.064 325.164Z" fill="white" fill-opacity="0.192499" />
                </g>
                <g id="RLeg_4">
                    <path id="Path_140" fill-rule="evenodd" clip-rule="evenodd" d="M377.306 368.736C377.306 368.736 380.157 381.435 383.867 382.794C385.296 383.317 375.053 384.811 375.053 384.811L371.946 372.628L377.306 368.736Z" fill="url(#paint23_linear_1648:45397)" />
                    <path id="Path_141" fill-rule="evenodd" clip-rule="evenodd" d="M373.748 381.31L376.453 397.209L381.141 396.468L380.562 392.537C380.562 392.537 382.619 395.961 384.912 395.814C387.212 395.665 398.715 393.931 398.715 393.931C398.715 393.931 398.973 390.123 393.682 389.253C389.281 388.53 381.777 380.035 381.777 380.035L373.748 381.31Z" fill="#391B0B" />
                    <path id="Path_142" fill-rule="evenodd" clip-rule="evenodd" d="M309.367 311.178C309.367 311.178 299.931 331.164 313.192 338.027C326.016 344.663 360.138 336.1 360.138 336.1C360.138 336.1 359.452 341.64 360.138 346.58C361.93 359.483 370.741 375.358 371.543 377.974C371.946 379.291 381.773 377.345 381.773 375.782C381.773 374.219 376.76 338.655 375.867 331.08C374.979 323.505 372.177 322.404 363.99 320.334C362.11 319.858 337.736 314.315 335.698 314.476C318.192 315.864 309.367 311.178 309.367 311.178Z" fill="#42474F" />
                    <path id="Path_143" fill-rule="evenodd" clip-rule="evenodd" d="M335.698 314.477C337.735 314.315 362.109 319.858 363.99 320.334L365.334 320.679C372.316 322.506 374.904 323.869 375.803 330.574L376.045 332.499C376.782 338.117 378.773 351.327 380.349 362.325C378.571 358.283 377.1 353.798 375.935 348.869C373.22 337.384 373.801 327.953 373.072 326.301C372.343 324.65 336.687 319.377 330.561 318.289C327.894 317.815 326.39 316.64 326.048 314.765C329.009 314.848 332.225 314.752 335.698 314.477Z" fill="white" fill-opacity="0.192499" />
                </g>
                <g id="Head_5">
                    <path id="Path_144" fill-rule="evenodd" clip-rule="evenodd" d="M331.057 234.486C333.89 234.797 333.689 239.782 330.241 240.043C329.536 244.849 327.022 247.139 323.958 247.404L324.128 254.674L310.574 254.666C310.574 254.666 314.391 249.53 314.201 242.5C314.01 235.468 314.328 228.863 314.328 228.863L331.884 229.179L331.057 234.486Z" fill="url(#paint24_linear_1648:45397)" />
                    <path id="Path_145" fill-rule="evenodd" clip-rule="evenodd" d="M331.674 234.86C328.375 233.553 325.938 239.177 323.414 243.086C320.889 246.995 314.349 246.331 313.448 243.086C310.035 235.98 307.094 226.318 311.077 225.525C311.637 215.254 338.488 217.679 331.674 234.86Z" fill="#9E5229" />
                    <path id="Combined Shape_6" fill-rule="evenodd" clip-rule="evenodd" d="M313.36 221.389H319.091H319.203L319.277 221.472C324.425 227.225 325.605 235.671 323.257 243.317C323.01 243.659 322.732 243.963 322.428 244.23C325.175 236.487 324.161 227.751 318.979 221.889H312.773L312.77 221.889C312.954 221.713 313.151 221.546 313.36 221.389Z" fill="black" fill-opacity="0.199355" />
                    <ellipse id="Oval_11" rx="3.23612" ry="3.24005" transform="matrix(-1 0 0 1 316.839 221.638)" fill="#FB9934" />
                </g>
                <g id="Body_5">
                    <path id="Path_146" fill-rule="evenodd" clip-rule="evenodd" d="M334.372 255.902C337.372 260.304 342.373 275.243 342.657 278.604C342.977 282.481 338.814 288.656 338.746 294.268C338.685 299.881 341.85 313.931 340.899 315.51C339.956 317.089 308.62 326.216 306.855 325.466C305.09 324.716 298.996 316.627 300.388 313.34C301.788 310.052 307.573 302.595 306.911 298.116C306.256 293.638 302.456 277.105 300.569 271.479C298.69 265.852 299.317 259.945 302.824 257.523C304.56 256.325 309.191 252.922 317.439 252.937C325.687 252.953 334.139 255.561 334.372 255.902Z" fill="#FF9F43" />
                    <path id="Path_147" fill-rule="evenodd" clip-rule="evenodd" d="M341.1 274.995L326.72 264.663L326.724 266.551C326.778 278.204 327.511 284.377 339.716 303.474L339.434 301.528C339.036 298.703 338.728 296.057 338.747 294.268C338.79 290.728 340.463 286.963 341.611 283.692L341.1 274.995Z" fill="black" fill-opacity="0.159856" />
                    <path id="Path 68" fill-rule="evenodd" clip-rule="evenodd" d="M325.06 252.615C325.06 252.615 325.408 254.508 323.888 254.508C322.369 254.508 312.177 254.843 310.797 254.245C309.416 253.646 309.83 252.615 309.83 252.615H325.06Z" fill="#FFF6E1" />
                </g>
                <g id="LArm_5">
                    <path id="Path_148" fill-rule="evenodd" clip-rule="evenodd" d="M375.856 278.595C375.856 278.595 384.156 273.056 385.622 271.943C387.084 270.836 388.919 262.435 387.782 261.257C387.233 260.687 383.081 264.524 382.34 265.038C381.604 265.547 377.839 267.814 377.839 267.814C377.839 267.814 378.905 261.384 377.987 260.866C377.309 260.489 375.952 262.143 375.77 263.892C375.589 265.641 373.701 267.922 373.458 270.576C373.348 271.736 372.918 273.239 372.918 273.239L349.891 283.128L352.3 293.881L375.856 278.595Z" fill="url(#paint25_linear_1648:45397)" />
                    <path id="Path_149" fill-rule="evenodd" clip-rule="evenodd" d="M326.428 267.973C329.609 274.579 335.01 284.238 337.977 289.901C341.487 296.602 345.67 299.442 354.108 294.469C355.095 293.887 357.231 292.59 357.231 292.59L352.008 280.992L349.266 282.203C349.266 282.203 341.186 267.448 337.831 260.363C333.563 251.359 320.274 255.188 326.428 267.973Z" fill="#FFB66F" />
                    <path id="Path_150" fill-rule="evenodd" clip-rule="evenodd" d="M349.265 282.203C349.265 282.203 350.743 287.406 351.092 287.2C351.44 286.994 350.847 281.458 350.847 281.458L349.265 282.203Z" fill="black" fill-opacity="0.159856" />
                    <path id="Path 75" fill-rule="evenodd" clip-rule="evenodd" d="M351.934 280.48L355.572 294.918L360.985 291.991L353.882 279.355L351.934 280.48Z" fill="#FFEDC2" />
                </g>
                <path id="Path_151" fill-rule="evenodd" clip-rule="evenodd" d="M317.186 219.244C317.186 219.244 314.136 215.339 310.613 216.364C307.09 217.388 303.904 223.667 305.417 229.569C306.922 235.472 305.681 238.839 303.854 242.817C298.949 253.519 315.934 260.313 315.934 260.313C315.934 260.313 314.608 252.384 317.186 247.595C319.841 242.664 321.349 236.34 321.349 232.471C321.349 225.741 317.186 219.244 317.186 219.244Z" fill="#9E5229" />
            </g>
            <g id="Chair8_2">
                <path id="Path_152" fill-rule="evenodd" clip-rule="evenodd" d="M316.683 339.157L325.098 398.69L320.686 398.632L312.271 339.78L316.683 339.157Z" fill="#91D6FF" />
                <path id="Path_153" fill-rule="evenodd" clip-rule="evenodd" d="M341.169 339.157L349.584 398.69L345.172 398.632L336.758 339.78L341.169 339.157Z" fill="#91D6FF" />
                <path id="Path_154" fill-rule="evenodd" clip-rule="evenodd" d="M287.454 339.157L279.039 398.69L283.451 398.632L291.865 339.78L287.454 339.157Z" fill="#BFE7FF" />
                <path id="Path_155" fill-rule="evenodd" clip-rule="evenodd" d="M344.388 342.659C348.223 342.659 351.333 339.55 351.333 335.714C351.333 331.878 348.223 328.768 344.388 328.768H319.29C313.569 328.768 308.787 324.415 308.251 318.719L304.312 276.834C303.776 271.138 298.994 266.784 293.272 266.784H281.684C275.226 266.784 270.134 272.282 270.629 278.722L274.755 332.421C275.199 338.198 280.016 342.659 285.811 342.659H344.388Z" fill="#BFE7FF" />
                <path id="Combined Shape_7" fill-rule="evenodd" clip-rule="evenodd" d="M351.331 335.654C351.292 335.655 351.254 335.655 351.215 335.655H315.707C309.914 335.655 305.097 331.195 304.652 325.419L300.322 269.229C302.584 271.047 304.124 273.741 304.416 276.831L308.35 318.545C308.888 324.24 313.669 328.592 319.389 328.592H344.405C348.231 328.592 351.332 331.694 351.332 335.52C351.332 335.564 351.332 335.609 351.331 335.654Z" fill="#91D6FF" />
            </g>
        </g>
    </g>
    <defs>
        <filter id="filter0_dd_1648:45397" x="46.0771" y="56.0117" width="155.861" height="93.8169" filterUnits="userSpaceOnUse" color-interpolation-filters="sRGB">
            <feFlood flood-opacity="0" result="BackgroundImageFix" />
            <feColorMatrix in="SourceAlpha" type="matrix" values="0 0 0 0 0 0 0 0 0 0 0 0 0 0 0 0 0 0 127 0" result="hardAlpha" />
            <feOffset dx="8" dy="9" />
            <feGaussianBlur stdDeviation="14" />
            <feColorMatrix type="matrix" values="0 0 0 0 0.0755213 0 0 0 0 0.582569 0 0 0 0 0.878793 0 0 0 0.229458 0" />
            <feBlend mode="normal" in2="BackgroundImageFix" result="effect1_dropShadow_1648:45397" />
            <feColorMatrix in="SourceAlpha" type="matrix" values="0 0 0 0 0 0 0 0 0 0 0 0 0 0 0 0 0 0 127 0" result="hardAlpha" />
            <feOffset dy="2" />
            <feGaussianBlur stdDeviation="7.5" />
            <feColorMatrix type="matrix" values="0 0 0 0 0.503982 0 0 0 0 0.700178 0 0 0 0 1 0 0 0 0.233829 0" />
            <feBlend mode="normal" in2="effect1_dropShadow_1648:45397" result="effect2_dropShadow_1648:45397" />
            <feBlend mode="normal" in="SourceGraphic" in2="effect2_dropShadow_1648:45397" result="shape" />
        </filter>
        <filter id="filter1_dd_1648:45397" x="46.0771" y="99.0908" width="180.236" height="160.919" filterUnits="userSpaceOnUse" color-interpolation-filters="sRGB">
            <feFlood flood-opacity="0" result="BackgroundImageFix" />
            <feColorMatrix in="SourceAlpha" type="matrix" values="0 0 0 0 0 0 0 0 0 0 0 0 0 0 0 0 0 0 127 0" result="hardAlpha" />
            <feOffset dx="8" dy="9" />
            <feGaussianBlur stdDeviation="14" />
            <feColorMatrix type="matrix" values="0 0 0 0 0.0755213 0 0 0 0 0.582569 0 0 0 0 0.878793 0 0 0 0.229458 0" />
            <feBlend mode="normal" in2="BackgroundImageFix" result="effect1_dropShadow_1648:45397" />
            <feColorMatrix in="SourceAlpha" type="matrix" values="0 0 0 0 0 0 0 0 0 0 0 0 0 0 0 0 0 0 127 0" result="hardAlpha" />
            <feOffset dy="2" />
            <feGaussianBlur stdDeviation="7.5" />
            <feColorMatrix type="matrix" values="0 0 0 0 0.503982 0 0 0 0 0.700178 0 0 0 0 1 0 0 0 0.233829 0" />
            <feBlend mode="normal" in2="effect1_dropShadow_1648:45397" result="effect2_dropShadow_1648:45397" />
            <feBlend mode="normal" in="SourceGraphic" in2="effect2_dropShadow_1648:45397" result="shape" />
        </filter>
        <filter id="filter2_d_1648:45397" x="65.7305" y="148.136" width="127.703" height="80.5581" filterUnits="userSpaceOnUse" color-interpolation-filters="sRGB">
            <feFlood flood-opacity="0" result="BackgroundImageFix" />
            <feColorMatrix in="SourceAlpha" type="matrix" values="0 0 0 0 0 0 0 0 0 0 0 0 0 0 0 0 0 0 127 0" result="hardAlpha" />
            <feOffset dy="13" />
            <feGaussianBlur stdDeviation="7.5" />
            <feColorMatrix type="matrix" values="0 0 0 0 0 0 0 0 0 0 0 0 0 0 0 0 0 0 0.144395 0" />
            <feBlend mode="normal" in2="BackgroundImageFix" result="effect1_dropShadow_1648:45397" />
            <feBlend mode="normal" in="SourceGraphic" in2="effect1_dropShadow_1648:45397" result="shape" />
        </filter>
        <filter id="filter3_d_1648:45397" x="199.746" y="74.7393" width="208.616" height="153.689" filterUnits="userSpaceOnUse" color-interpolation-filters="sRGB">
            <feFlood flood-opacity="0" result="BackgroundImageFix" />
            <feColorMatrix in="SourceAlpha" type="matrix" values="0 0 0 0 0 0 0 0 0 0 0 0 0 0 0 0 0 0 127 0" result="hardAlpha" />
            <feOffset dx="6" dy="6" />
            <feGaussianBlur stdDeviation="8" />
            <feColorMatrix type="matrix" values="0 0 0 0 0.70188 0 0 0 0 0.70188 0 0 0 0 0.70188 0 0 0 0.208725 0" />
            <feBlend mode="normal" in2="BackgroundImageFix" result="effect1_dropShadow_1648:45397" />
            <feBlend mode="normal" in="SourceGraphic" in2="effect1_dropShadow_1648:45397" result="shape" />
        </filter>
        <linearGradient id="paint0_linear_1648:45397" x1="407.261" y1="229.384" x2="399.114" y2="265.767" gradientUnits="userSpaceOnUse">
            <stop stop-color="#FFAFAF" />
            <stop offset="1" stop-color="#F07777" />
        </linearGradient>
        <linearGradient id="paint1_linear_1648:45397" x1="406.626" y1="222.477" x2="401.737" y2="246.39" gradientUnits="userSpaceOnUse">
            <stop stop-color="#FDC6C6" />
            <stop offset="1" stop-color="#FAB2B2" />
        </linearGradient>
        <linearGradient id="paint2_linear_1648:45397" x1="372.06" y1="371.61" x2="370.889" y2="393.509" gradientUnits="userSpaceOnUse">
            <stop stop-color="#FDC6C6" />
            <stop offset="1" stop-color="#FAB2B2" />
        </linearGradient>
        <linearGradient id="paint3_linear_1648:45397" x1="349.212" y1="399.812" x2="313.861" y2="331.956" gradientUnits="userSpaceOnUse">
            <stop stop-color="#28324F" />
            <stop offset="1" stop-color="#222735" />
        </linearGradient>
        <linearGradient id="paint4_linear_1648:45397" x1="345.447" y1="250.692" x2="343.864" y2="271.725" gradientUnits="userSpaceOnUse">
            <stop stop-color="#FDC6C6" />
            <stop offset="1" stop-color="#FAB2B2" />
        </linearGradient>
        <linearGradient id="paint5_linear_1648:45397" x1="403.511" y1="272.417" x2="403.047" y2="285.999" gradientUnits="userSpaceOnUse">
            <stop stop-color="#FDC6C6" />
            <stop offset="1" stop-color="#FAB2B2" />
        </linearGradient>
        <linearGradient id="paint6_linear_1648:45397" x1="177.467" y1="148.74" x2="170.195" y2="149.42" gradientUnits="userSpaceOnUse">
            <stop stop-color="#4D63A0" />
            <stop offset="1" stop-color="#222735" />
        </linearGradient>
        <linearGradient id="paint7_linear_1648:45397" x1="92.6619" y1="295.194" x2="92.6619" y2="307.375" gradientUnits="userSpaceOnUse">
            <stop stop-color="#FE62BE" />
            <stop offset="1" stop-color="#FDB3A8" />
        </linearGradient>
        <linearGradient id="paint8_linear_1648:45397" x1="75.2169" y1="285.901" x2="76.4902" y2="298.015" gradientUnits="userSpaceOnUse">
            <stop stop-color="#FE62BE" />
            <stop offset="1" stop-color="#FDB3A8" />
        </linearGradient>
        <linearGradient id="paint9_linear_1648:45397" x1="488.07" y1="370.51" x2="486.897" y2="392.46" gradientUnits="userSpaceOnUse">
            <stop stop-color="#FDC6C6" />
            <stop offset="1" stop-color="#FAB2B2" />
        </linearGradient>
        <linearGradient id="paint10_linear_1648:45397" x1="484.665" y1="243.788" x2="481.548" y2="288.313" gradientUnits="userSpaceOnUse">
            <stop stop-color="#FDC6C6" />
            <stop offset="1" stop-color="#FAB2B2" />
        </linearGradient>
        <linearGradient id="paint11_linear_1648:45397" x1="524.629" y1="226.139" x2="516.375" y2="262.566" gradientUnits="userSpaceOnUse">
            <stop stop-color="#FFAFAF" />
            <stop offset="1" stop-color="#F07777" />
        </linearGradient>
        <linearGradient id="paint12_linear_1648:45397" x1="524.073" y1="219.216" x2="519.175" y2="243.185" gradientUnits="userSpaceOnUse">
            <stop stop-color="#FDC6C6" />
            <stop offset="1" stop-color="#FAB2B2" />
        </linearGradient>
        <linearGradient id="paint13_linear_1648:45397" x1="462.132" y1="371.395" x2="460.984" y2="395.862" gradientUnits="userSpaceOnUse">
            <stop stop-color="#FDC6C6" />
            <stop offset="1" stop-color="#FAB2B2" />
        </linearGradient>
        <linearGradient id="paint14_linear_1648:45397" x1="542.967" y1="267.962" x2="541.859" y2="296.922" gradientUnits="userSpaceOnUse">
            <stop stop-color="#FDC6C6" />
            <stop offset="1" stop-color="#FAB2B2" />
        </linearGradient>
        <linearGradient id="paint15_linear_1648:45397" x1="430.343" y1="245.808" x2="439.111" y2="280.978" gradientUnits="userSpaceOnUse">
            <stop stop-color="#9FF6EC" />
            <stop offset="1" stop-color="#7D9DFF" />
        </linearGradient>
        <linearGradient id="paint16_linear_1648:45397" x1="213.949" y1="287.009" x2="222.59" y2="306.217" gradientUnits="userSpaceOnUse">
            <stop stop-color="#FDC6C6" />
            <stop offset="1" stop-color="#A47070" />
        </linearGradient>
        <linearGradient id="paint17_linear_1648:45397" x1="236.062" y1="214.603" x2="233.506" y2="249.092" gradientUnits="userSpaceOnUse">
            <stop stop-color="#FDC6C6" />
            <stop offset="1" stop-color="#A47070" />
        </linearGradient>
        <linearGradient id="paint18_linear_1648:45397" x1="298.786" y1="252.294" x2="297.058" y2="276.296" gradientUnits="userSpaceOnUse">
            <stop stop-color="#FDC6C6" />
            <stop offset="1" stop-color="#A47070" />
        </linearGradient>
        <linearGradient id="paint19_linear_1648:45397" x1="405.72" y1="289.144" x2="405.72" y2="291.482" gradientUnits="userSpaceOnUse">
            <stop stop-color="#9FF6EC" />
            <stop offset="1" stop-color="#7D9DFF" />
        </linearGradient>
        <linearGradient id="paint20_linear_1648:45397" x1="410.347" y1="253.903" x2="410.347" y2="289.66" gradientUnits="userSpaceOnUse">
            <stop stop-color="#9FF6EC" />
            <stop offset="1" stop-color="#7D9DFF" />
        </linearGradient>
        <linearGradient id="paint21_linear_1648:45397" x1="309.738" y1="271.251" x2="324.846" y2="305.771" gradientUnits="userSpaceOnUse">
            <stop stop-color="#FDC6C6" />
            <stop offset="1" stop-color="#FFCCA1" />
        </linearGradient>
        <linearGradient id="paint22_linear_1648:45397" x1="337.795" y1="365.38" x2="335.812" y2="386.101" gradientUnits="userSpaceOnUse">
            <stop stop-color="#FDC6C6" />
            <stop offset="1" stop-color="#FAB2B2" />
        </linearGradient>
        <linearGradient id="paint23_linear_1648:45397" x1="386.09" y1="364.823" x2="384.448" y2="383.929" gradientUnits="userSpaceOnUse">
            <stop stop-color="#FDC6C6" />
            <stop offset="1" stop-color="#FAB2B2" />
        </linearGradient>
        <linearGradient id="paint24_linear_1648:45397" x1="336.903" y1="222.58" x2="334.625" y2="253.315" gradientUnits="userSpaceOnUse">
            <stop stop-color="#FDC6C6" />
            <stop offset="1" stop-color="#FFCCA1" />
        </linearGradient>
        <linearGradient id="paint25_linear_1648:45397" x1="394.755" y1="252.761" x2="392.555" y2="292.233" gradientUnits="userSpaceOnUse">
            <stop stop-color="#FDC6C6" />
            <stop offset="1" stop-color="#FFCCA1" />
        </linearGradient>
    </defs>
</svg>