<svg width="597" height="505" viewBox="0 0 597 505" fill="none" xmlns="http://www.w3.org/2000/svg">
<g id="Illustration">
<g id="Shape">
<path id="Rectangle" opacity="0.128511" fill-rule="evenodd" clip-rule="evenodd" d="M224.049 198.13C225.758 192.885 231.392 190.014 236.64 191.715L450.75 261.103C456.01 262.807 458.888 268.456 457.176 273.713L406.404 429.567C404.695 434.813 399.061 437.684 393.813 435.983L179.702 366.595C174.443 364.89 171.565 359.241 173.277 353.984L224.049 198.13Z" fill="url(#paint0_linear_13504_544431)"/>
<path id="Rectangle_2" opacity="0.216285" fill-rule="evenodd" clip-rule="evenodd" d="M300.198 52.3661C301.907 47.1206 307.541 44.2498 312.789 45.9506L552.488 123.631C557.747 125.336 560.625 130.984 558.913 136.241L501.982 311C500.274 316.246 494.64 319.117 489.391 317.416L249.693 239.735C244.433 238.031 241.555 232.382 243.268 227.125L300.198 52.3661Z" fill="url(#paint1_linear_13504_544431)"/>
<g id="Rectangle_3" opacity="0.226656" filter="url(#filter0_f_13504_544431)">
<path fill-rule="evenodd" clip-rule="evenodd" d="M63.1165 17.7962C64.8254 12.5507 70.4595 9.67996 75.7076 11.3808L200.733 51.8985C205.993 53.603 208.871 59.252 207.159 64.5089L178.25 153.25C176.541 158.496 170.907 161.367 165.659 159.666L40.6328 119.148C35.3733 117.444 32.495 111.795 34.2075 106.538L63.1165 17.7962Z" fill="url(#paint2_linear_13504_544431)"/>
</g>
<path id="Rectangle_4" opacity="0.216285" fill-rule="evenodd" clip-rule="evenodd" d="M459.009 373.355C460.718 368.11 466.352 365.239 471.6 366.94L525.548 384.423C530.808 386.128 533.686 391.777 531.973 397.033L503.064 485.775C501.356 491.021 495.721 493.891 490.473 492.191L436.526 474.707C431.266 473.003 428.388 467.354 430.1 462.097L459.009 373.355Z" fill="url(#paint3_linear_13504_544431)"/>
<path id="Rectangle_5" opacity="0.128511" fill-rule="evenodd" clip-rule="evenodd" d="M544.274 276.284C545.983 271.038 551.617 268.168 556.865 269.869L587.12 279.673C592.379 281.378 595.258 287.027 593.545 292.284L576.029 346.051C574.321 351.297 568.686 354.168 563.438 352.467L533.183 342.662C527.924 340.957 525.046 335.308 526.758 330.052L544.274 276.284Z" fill="url(#paint4_linear_13504_544431)"/>
</g>
<g id="Cloud Storage">
<g id="Phone1">
<path id="Rectangle_6" fill-rule="evenodd" clip-rule="evenodd" d="M131.011 108.871C131.011 94.9884 142.265 83.7341 156.148 83.7341H306.632C320.515 83.7341 331.769 94.9883 331.769 108.871V475.328C331.769 489.211 320.515 500.465 306.632 500.465H156.148C142.265 500.465 131.011 489.211 131.011 475.328V108.871Z" fill="#00CFE8" fill-opacity="0.225361"/>
<g id="Group 52">
<path id="Rectangle_7" fill-rule="evenodd" clip-rule="evenodd" d="M138.251 120.606C138.251 110.377 146.544 102.084 156.773 102.084H305.349C315.578 102.084 323.871 110.377 323.871 120.606V469.067C323.871 479.296 315.578 487.589 305.349 487.589H156.773C146.544 487.589 138.251 479.296 138.251 469.067V120.606Z" fill="white"/>
<mask id="mask0_13504_544431" style="mask-type:luminance" maskUnits="userSpaceOnUse" x="138" y="102" width="186" height="386">
<path id="Rectangle_8" fill-rule="evenodd" clip-rule="evenodd" d="M138.251 120.606C138.251 110.377 146.544 102.084 156.773 102.084H305.349C315.578 102.084 323.871 110.377 323.871 120.606V469.067C323.871 479.296 315.578 487.589 305.349 487.589H156.773C146.544 487.589 138.251 479.296 138.251 469.067V120.606Z" fill="white"/>
</mask>
<g mask="url(#mask0_13504_544431)">
<ellipse id="Oval" cx="222.555" cy="324.082" rx="15.9208" ry="15.9236" fill="#68DE9E" fill-opacity="0.642073"/>
<path id="Oval_2" fill-rule="evenodd" clip-rule="evenodd" d="M158.623 325.077C201.076 325.077 235.491 359.498 235.491 401.958C235.491 444.418 201.076 478.839 158.623 478.839C116.171 478.839 81.7557 444.418 81.7557 401.958C81.7557 359.498 116.171 325.077 158.623 325.077ZM158.623 358.666C134.718 358.666 115.339 378.048 115.339 401.958C115.339 425.868 134.718 445.25 158.623 445.25C182.529 445.25 201.908 425.868 201.908 401.958C201.908 378.048 182.529 358.666 158.623 358.666Z" fill="url(#paint5_linear_13504_544431)"/>
</g>
</g>
<path id="Path" d="M250.232 90.5322C251.95 90.5322 253.342 91.869 253.342 93.5179C253.342 95.1302 252.011 96.444 250.346 96.5016L250.232 96.5036H195.17C193.453 96.5036 192.061 95.1669 192.061 93.5179C192.061 91.9056 193.392 90.5918 195.056 90.5342L195.17 90.5322H250.232Z" fill="#56CDD9"/>
<path id="Path_2" d="M260.346 90.0344C262.063 90.0344 263.455 91.4269 263.455 93.1445C263.455 94.824 262.124 96.1925 260.46 96.2525L260.346 96.2546H260.183C258.465 96.2546 257.073 94.8622 257.073 93.1445C257.073 91.465 258.404 90.0965 260.069 90.0365L260.183 90.0344H260.346Z" fill="#56CDD9"/>
</g>
<g id="Group 28">
<path id="Rectangle_9" fill-rule="evenodd" clip-rule="evenodd" d="M307.011 308.734C307.011 305.42 309.697 302.734 313.011 302.734H343.375L355.011 314.734V353.734C355.011 357.048 352.324 359.734 349.011 359.734H313.011C309.697 359.734 307.011 357.048 307.011 353.734V308.734Z" fill="#FB9C9D"/>
<path id="PDF" fill-rule="evenodd" clip-rule="evenodd" d="M317.052 344.734V339.964H320.076C321.456 339.964 322.53 339.616 323.298 338.92C324.066 338.224 324.45 337.252 324.45 336.004C324.45 334.756 324.066 333.784 323.298 333.088C322.53 332.392 321.456 332.044 320.076 332.044H314.244V344.734H317.052ZM319.716 337.84H317.052V334.186H319.716C320.424 334.186 320.952 334.336 321.3 334.636C321.648 334.936 321.822 335.398 321.822 336.022C321.822 337.234 321.12 337.84 319.716 337.84ZM331.2 344.734C332.592 344.734 333.786 344.482 334.782 343.978C335.778 343.474 336.537 342.745 337.059 341.791C337.581 340.837 337.842 339.7 337.842 338.38C337.842 337.06 337.578 335.926 337.05 334.978C336.522 334.03 335.76 333.304 334.764 332.8C333.768 332.296 332.58 332.044 331.2 332.044H326.268V344.734H331.2ZM331.002 342.466H329.076V334.312H331.002C333.702 334.312 335.052 335.668 335.052 338.38C335.052 341.104 333.702 342.466 331.002 342.466ZM342.774 344.734V339.388H348.21V337.174H342.774V334.258H348.57V332.044H340.002V344.734H342.774Z" fill="white"/>
<path id="Path_3" opacity="0.33996" d="M355.011 314.734H346.375C344.718 314.734 343.375 313.391 343.375 311.734V302.734L355.011 314.734Z" fill="#EA5455"/>
</g>
<g id="Group 28_2">
<path id="Rectangle_10" fill-rule="evenodd" clip-rule="evenodd" d="M169.011 384.734C169.011 381.42 171.697 378.734 175.011 378.734H205.375L217.011 390.734V429.734C217.011 433.048 214.324 435.734 211.011 435.734H175.011C171.697 435.734 169.011 433.048 169.011 429.734V384.734Z" fill="#FFBC7C"/>
<path id="Rectangle_11" fill-rule="evenodd" clip-rule="evenodd" d="M177.011 411.234C177.011 410.958 177.235 410.734 177.511 410.734H184.511C184.787 410.734 185.011 410.958 185.011 411.234V425.234C185.011 425.51 184.787 425.734 184.511 425.734H177.511C177.235 425.734 177.011 425.51 177.011 425.234V411.234Z" fill="white"/>
<path id="Rectangle_12" fill-rule="evenodd" clip-rule="evenodd" d="M189.011 401.234C189.011 400.958 189.235 400.734 189.511 400.734H196.511C196.787 400.734 197.011 400.958 197.011 401.234V425.234C197.011 425.51 196.787 425.734 196.511 425.734H189.511C189.235 425.734 189.011 425.51 189.011 425.234V401.234Z" fill="white"/>
<path id="Rectangle_13" fill-rule="evenodd" clip-rule="evenodd" d="M201.011 408.234C201.011 407.958 201.235 407.734 201.511 407.734H208.511C208.787 407.734 209.011 407.958 209.011 408.234V425.234C209.011 425.51 208.787 425.734 208.511 425.734H201.511C201.235 425.734 201.011 425.51 201.011 425.234V408.234Z" fill="white"/>
<path id="Path_4" opacity="0.732678" d="M217.011 390.734H208.375C206.718 390.734 205.375 389.391 205.375 387.734V378.734L217.011 390.734Z" fill="#FC9735"/>
</g>
<g id="Group 28_3">
<path id="Rectangle_14" fill-rule="evenodd" clip-rule="evenodd" d="M237.011 347.734C237.011 344.42 239.697 341.734 243.011 341.734H273.375L285.011 353.734V392.734C285.011 396.048 282.324 398.734 279.011 398.734H243.011C239.697 398.734 237.011 396.048 237.011 392.734V347.734Z" fill="#B7B0FF"/>
<g id="Group 31">
<circle id="Oval_3" cx="253.302" cy="378.884" r="4.8" fill="white"/>
<circle id="Oval_4" cx="264.811" cy="376.812" r="4.8" fill="white"/>
<path id="Path_5" fill-rule="evenodd" clip-rule="evenodd" d="M269.611 361.338V376.451H267.811L267.81 365.012L258.088 368.163V378.74H256.288L256.288 365.655L269.611 361.338Z" fill="white"/>
</g>
<path id="Path_6" opacity="0.33996" d="M285.011 353.734H276.375C274.718 353.734 273.375 352.391 273.375 350.734V341.734L285.011 353.734Z" fill="#564EA6"/>
</g>
<g id="Group 73">
<path id="Rectangle_15" opacity="0.272833" fill-rule="evenodd" clip-rule="evenodd" d="M292.122 158.486C292.122 152.548 287.308 147.734 281.37 147.734H180.215C174.277 147.734 169.463 152.548 169.463 158.486V279.347C169.463 285.285 174.277 290.099 180.215 290.099H281.37C287.308 290.099 292.122 285.285 292.122 279.347V158.486Z" fill="#00CFE8"/>
<path id="Rectangle_16" fill-rule="evenodd" clip-rule="evenodd" d="M282.845 169.163C282.845 163.225 278.031 158.411 272.093 158.411H190.881C184.943 158.411 180.129 163.225 180.129 169.163V179.413C180.129 185.351 184.943 190.165 190.881 190.165H272.093C278.031 190.165 282.845 185.351 282.845 179.413V169.163Z" fill="#F4FEFF"/>
<path id="Rectangle_17" fill-rule="evenodd" clip-rule="evenodd" d="M275.901 174.177C275.901 168.419 271.232 163.75 265.474 163.75H264.107C258.348 163.75 253.68 168.419 253.68 174.177C253.68 179.936 258.348 184.604 264.107 184.604H265.474C271.232 184.604 275.901 179.936 275.901 174.177Z" fill="#7367F0" fill-opacity="0.210173"/>
<path id="Rectangle_18" fill-rule="evenodd" clip-rule="evenodd" d="M282.845 210.872C282.845 204.934 278.031 200.12 272.093 200.12H190.881C184.943 200.12 180.129 204.934 180.129 210.872V221.122C180.129 227.06 184.943 231.874 190.881 231.874H272.093C278.031 231.874 282.845 227.06 282.845 221.122V210.872Z" fill="#F4FEFF"/>
<path id="Rectangle_19" fill-rule="evenodd" clip-rule="evenodd" d="M275.901 215.886C275.901 210.127 271.232 205.458 265.474 205.458H264.107C258.348 205.458 253.68 210.127 253.68 215.886C253.68 221.644 258.348 226.313 264.107 226.313H265.474C271.232 226.313 275.901 221.644 275.901 215.886Z" fill="#7367F0" fill-opacity="0.210173"/>
<path id="Rectangle_20" fill-rule="evenodd" clip-rule="evenodd" d="M282.845 252.58C282.845 246.642 278.031 241.828 272.093 241.828H190.881C184.943 241.828 180.129 246.642 180.129 252.58V262.83C180.129 268.768 184.943 273.582 190.881 273.582H272.093C278.031 273.582 282.845 268.768 282.845 262.83V252.58Z" fill="#F4FEFF"/>
<path id="Rectangle_21" fill-rule="evenodd" clip-rule="evenodd" d="M275.901 257.594C275.901 251.835 271.232 247.167 265.474 247.167H264.107C258.348 247.167 253.68 251.835 253.68 257.594C253.68 263.353 258.348 268.021 264.107 268.021H265.474C271.232 268.021 275.901 263.353 275.901 257.594Z" fill="#7367F0" fill-opacity="0.210173"/>
</g>
<g id="Group 37">
<path id="Rectangle_22" fill-rule="evenodd" clip-rule="evenodd" d="M394.011 138.44C394.011 136.231 395.802 134.44 398.011 134.44L404.306 134.44C406.515 134.44 408.306 136.231 408.306 138.44V141.274C408.306 141.947 408.852 142.493 409.525 142.493H454.937C457.146 142.493 458.937 144.284 458.937 146.493V185.307C458.937 187.516 457.146 189.307 454.937 189.307H398.011C395.802 189.307 394.011 187.516 394.011 185.307V138.44Z" fill="#FF9F43"/>
<path id="Rectangle_23" fill-rule="evenodd" clip-rule="evenodd" d="M409.414 139.277C409.508 138.685 410.018 138.25 410.618 138.25H460.212C460.962 138.25 461.534 138.921 461.416 139.661L453.965 186.375C453.871 186.967 453.36 187.402 452.761 187.402H403.167C402.417 187.402 401.844 186.731 401.963 185.991L409.414 139.277Z" fill="url(#paint6_linear_13504_544431)"/>
<path id="Rectangle_24" fill-rule="evenodd" clip-rule="evenodd" d="M462.705 150.732C465.22 150.732 467.112 153.027 466.631 155.496L461.196 183.453C460.465 187.212 457.172 189.926 453.343 189.926H398.863C396.348 189.926 394.457 187.632 394.937 185.163L400.373 157.206C401.103 153.446 404.396 150.732 408.226 150.732L462.705 150.732Z" fill="#FABB7E"/>
</g>
<g id="Group 28_4">
<path id="Rectangle_25" fill-rule="evenodd" clip-rule="evenodd" d="M360.011 230.734C360.011 227.42 362.697 224.734 366.011 224.734H422.011C425.324 224.734 428.011 227.42 428.011 230.734V275.734C428.011 279.048 425.324 281.734 422.011 281.734H366.011C362.697 281.734 360.011 279.048 360.011 275.734V230.734Z" fill="#77ECAB"/>
<path id="Path 6" fill-rule="evenodd" clip-rule="evenodd" d="M387.185 244.306C386.642 244.042 386.011 244.437 386.011 245.04V261.397C386.011 262.008 386.657 262.403 387.2 262.124L403.558 253.729C404.156 253.422 404.147 252.563 403.542 252.269L387.185 244.306Z" fill="white"/>
<rect id="Rectangle_26" x="367.011" y="229.734" width="6" height="6" fill="white"/>
<rect id="Rectangle_27" x="379.011" y="229.734" width="6" height="6" fill="white"/>
<rect id="Rectangle_28" x="391.011" y="229.734" width="6" height="6" fill="white"/>
<rect id="Rectangle_29" x="403.011" y="229.734" width="6" height="6" fill="white"/>
<rect id="Rectangle_30" x="415.011" y="229.734" width="6" height="6" fill="white"/>
<rect id="Rectangle_31" x="367.011" y="269.734" width="6" height="6" fill="white"/>
<rect id="Rectangle_32" x="379.011" y="269.734" width="6" height="6" fill="white"/>
<rect id="Rectangle_33" x="391.011" y="269.734" width="6" height="6" fill="white"/>
<rect id="Rectangle_34" x="403.011" y="269.734" width="6" height="6" fill="white"/>
<rect id="Rectangle_35" x="415.011" y="269.734" width="6" height="6" fill="white"/>
</g>
<g id="Men3.6">
<g id="RLeg">
<path id="Path_7" fill-rule="evenodd" clip-rule="evenodd" d="M38.4256 478.192L34.8222 499.949L47.2507 499.882L47.6708 477.851L38.4256 478.192Z" fill="#B8B6C9"/>
<path id="Path_8" fill-rule="evenodd" clip-rule="evenodd" d="M33.8356 491.736L33.7476 493.569C32.4205 495.036 31.8532 498.069 32.0455 502.667C32.0455 505.743 49.8273 505.651 50.8139 502.667C51.1506 497.676 50.5459 494.578 48.9999 493.373L48.9902 491.602C48.984 490.454 48.2067 489.452 47.0915 489.153L44.8411 488.551C42.8993 485.728 40.2529 485.828 37.9852 488.904L35.8531 489.365C34.7185 489.61 33.891 490.583 33.8356 491.736Z" fill="#2F2B57"/>
<path id="Path_9" fill-rule="evenodd" clip-rule="evenodd" d="M80.5775 306.683C80.5775 306.683 64.5077 394.963 61.6899 404.156C58.8721 413.349 51.0575 482.494 51.0575 482.494L34.1779 482.542C34.1779 482.542 33.8183 429.315 35.5234 420.761C37.2285 412.207 41.0774 398.118 41.0774 398.118C41.0774 398.118 43.937 346.973 45.6479 335.042C47.3582 323.112 52.849 305.428 52.849 305.428L80.5775 306.683Z" fill="#2F2B57"/>
<path id="Path_10" fill-rule="evenodd" clip-rule="evenodd" d="M68.3472 372.171L69.8894 360.155L68.7611 363.463C63.1435 380.037 59.3238 392.903 57.3022 402.06C55.6009 409.766 55.2432 423.069 56.2292 441.971L57.3499 432.709C58.9657 419.593 60.5367 408.082 61.6474 404.298L61.7572 403.93C62.801 400.336 65.4014 387.445 68.3472 372.171Z" fill="white" fill-opacity="0.192499"/>
</g>
<g id="LLeg">
<path id="Path_11" fill-rule="evenodd" clip-rule="evenodd" d="M79.2518 481.284L90.5957 481.36L90.5989 481.678C90.6363 483.24 91.0619 490.13 95.6169 492.775L96.5258 493.312C101.655 496.385 108.751 501.328 108.751 501.328L78.386 502.36L79.2518 481.284Z" fill="#B8B6C9"/>
<path id="Path_12" fill-rule="evenodd" clip-rule="evenodd" d="M80.8215 489.001C78.1618 488.756 76.8319 493.858 76.8319 504.307L90.4499 504.357L91.3726 502.36L92.2397 502.709C94.0864 503.434 95.3978 503.835 96.174 503.91L96.8946 503.976C100.713 504.306 106.004 504.46 112.769 504.439L112.791 504.323C112.906 503.614 113.209 499.834 107.329 496.96L107.053 496.828C100.35 493.687 95.4375 489.251 94.3768 488.661L94.3254 488.634C93.3754 488.167 93.9951 487.902 92.6452 489.001C91.2954 490.099 91.0732 492.987 88.0145 493.077C84.0777 493.194 84.8112 489.368 80.8215 489.001Z" fill="#2F2B57"/>
<path id="Path_13" fill-rule="evenodd" clip-rule="evenodd" d="M65.102 348.29C69.4528 363.979 72.9992 402.289 72.9992 402.289C72.9992 402.289 73.3996 406.325 71.6664 417.505C69.9331 428.686 76.7626 483.087 76.7626 483.087L94.7387 483.124C94.7387 483.124 96.9559 410.04 97.0611 402.354C97.2253 390.369 101.112 307.273 101.112 307.273L63.726 306.422C63.726 306.422 60.7513 332.602 65.102 348.29Z" fill="#353160"/>
<path id="Path_14" fill-rule="evenodd" clip-rule="evenodd" d="M91.3146 338.72L91.3852 339.027C93.9677 349.887 89.5389 398.015 90.7997 409.458L91.3019 413.552C92.1783 420.91 93.6615 434.323 95.7512 453.791L96.2045 437.495C96.6206 422.009 96.9743 407.437 97.0509 403.005L97.0611 402.354C97.2253 390.369 101.112 307.273 101.112 307.273L94.1182 307.115L93.8124 308.459C90.725 322.228 89.8924 332.315 91.3146 338.72Z" fill="white" fill-opacity="0.192499"/>
<path id="Path 47" d="M97.2244 491.736L98.085 490.243" stroke="white" stroke-width="2" stroke-linecap="round"/>
<path id="Path 47_2" d="M99.7607 493.443L100.621 491.95" stroke="white" stroke-width="2" stroke-linecap="round"/>
<path id="Path 47_3" d="M102.297 495.149L103.158 493.656" stroke="white" stroke-width="2" stroke-linecap="round"/>
</g>
<g id="Head">
<path id="Path_15" fill-rule="evenodd" clip-rule="evenodd" d="M91.9769 198.904C95.8817 199.33 95.6048 206.19 90.8515 206.548C89.8799 213.161 86.4152 216.312 82.191 216.676L82.4253 226.679L63.7406 226.668C63.7406 226.668 69.0021 219.602 68.7399 209.928C68.4776 200.255 68.9159 191.167 68.9159 191.167L93.1168 191.601L91.9769 198.904Z" fill="url(#paint7_linear_13504_544431)"/>
<path id="Path_16" fill-rule="evenodd" clip-rule="evenodd" d="M93.8512 194.829C95.5348 195.641 94.1944 199.314 93.3419 199.314C89.4307 197.769 86.188 203.334 84.5396 208.923C79.8582 213.513 69.5148 213.614 68.4461 209.775C64.4005 201.366 64.2021 189.208 68.9232 188.269C65.2172 178.498 115.267 173.386 93.8512 194.829Z" fill="url(#paint8_linear_13504_544431)"/>
<path id="Path 45" fill-rule="evenodd" clip-rule="evenodd" d="M89.6715 210.295C89.4793 209.874 88.333 212.758 86.4801 214.304C84.5625 215.904 81.6841 216.373 82.191 216.676C86.0813 219.005 91.2376 213.728 89.6715 210.295Z" fill="url(#paint9_linear_13504_544431)"/>
</g>
<g id="Group 9">
<path id="Path_17" fill-rule="evenodd" clip-rule="evenodd" d="M17.512 245.307C17.512 245.307 18.3329 239.779 18.0724 236.142C17.5905 229.416 18.5121 223.741 17.0226 222.859C15.1121 221.727 14.6343 231.77 14.6343 231.77C14.6343 231.77 3.72346 214.009 1.44878 216.155C-0.825893 218.3 3.91902 227.634 3.16665 230.333C2.41428 233.031 9.93271 246.085 9.93271 246.085L17.512 245.307Z" fill="url(#paint10_linear_13504_544431)"/>
<path id="Path_18" fill-rule="evenodd" clip-rule="evenodd" d="M57.8455 248.5C57.8455 248.5 41.3185 274.206 37.6673 279.192C33.8375 284.42 27.0738 286.735 22.2738 278.395C18.0284 271.016 8.93786 252.539 7.78735 246.795C6.929 242.51 15.7209 236.122 19.9465 242.526C24.172 248.929 30.8456 258.558 30.8456 258.558C30.8456 258.558 41.8197 238.677 45.2408 233.986C54.4665 221.335 68.5233 232.695 57.8455 248.5Z" fill="#02C4DC"/>
<path id="Path_19" fill-rule="evenodd" clip-rule="evenodd" d="M30.8456 258.558L27.2143 264.81L28.5375 255.16L30.8456 258.558Z" fill="black" fill-opacity="0.159856"/>
<path id="Path 54" d="M19.6387 242.733C15.7992 241.519 12.2836 242.165 9.47809 246.89" stroke="#5386BF" stroke-linecap="round"/>
</g>
<g id="Group 17">
<path id="Path_20" fill-rule="evenodd" clip-rule="evenodd" d="M65.7649 221.805L85.0718 221.93L85.8621 222.248C89.047 223.554 100.875 228.64 103.079 232.995C106.761 240.273 101.91 298.58 104.025 302.099C108.486 309.521 102.658 314.64 83.2944 316.576L82.7035 316.634C62.8675 318.525 45.2697 316.976 48.4631 306.971C51.6572 296.965 41.8844 232.518 51.0487 228.066L65.7649 221.805Z" fill="#00CFE8"/>
<path id="Path_21" fill-rule="evenodd" clip-rule="evenodd" d="M86.5866 236.572C83.7262 242.799 89.4076 259.004 103.631 285.187L103.807 279.338C104.272 264.738 104.956 246.941 104.097 237.985C95.1137 231.186 89.2772 230.715 86.5866 236.572Z" fill="black" fill-opacity="0.159856"/>
<path id="Rectangle_36" fill-rule="evenodd" clip-rule="evenodd" d="M86.3707 220.096C85.1695 219.768 65.0567 220.096 64.2577 220.096C63.4586 220.096 63.4586 223.514 64.2577 223.514C64.7463 223.514 70.9838 223.421 86.3721 223.234C87.7607 223.218 91.4651 224.788 91.4651 224.788C91.4651 224.788 87.5718 220.424 86.3707 220.096Z" fill="url(#paint11_linear_13504_544431)"/>
</g>
<g id="Group 8">
<path id="Path_22" fill-rule="evenodd" clip-rule="evenodd" d="M164.395 279.495C164.395 279.495 174.925 281.166 176.911 279.524C178.897 277.883 186.809 266.723 185.945 264.802C185.081 262.882 177.862 266.943 177.247 265.722C176.456 264.153 180.538 258.557 176.961 258.231C176.04 258.146 175.389 261.591 172.795 263.86C170.202 266.13 163.941 271.163 163.941 271.163L164.395 279.495Z" fill="url(#paint12_linear_13504_544431)"/>
<path id="Path_23" fill-rule="evenodd" clip-rule="evenodd" d="M100.761 230.365C109.861 239.024 122.745 259.47 125.49 261.271C128.236 263.073 162.58 266.706 165.814 269.639C168.515 272.088 168.758 279.542 165.814 281.61C162.869 283.677 124.202 280.905 117.11 278.839C110.018 276.773 97.8711 257.84 92.4453 251.93C77.2713 235.403 91.6608 221.707 100.761 230.365Z" fill="#02C4DC"/>
<path id="Path 53" d="M162.241 268.438C163.941 270.428 164.799 273.327 163.941 278.991" stroke="#5386BF" stroke-linecap="round"/>
</g>
</g>
</g>
</g>
<defs>
<filter id="filter0_f_13504_544431" x="22.8399" y="0.0179863" width="195.686" height="171.011" filterUnits="userSpaceOnUse" color-interpolation-filters="sRGB">
<feFlood flood-opacity="0" result="BackgroundImageFix"/>
<feBlend mode="normal" in="SourceGraphic" in2="BackgroundImageFix" result="shape"/>
<feGaussianBlur stdDeviation="5.43656" result="effect1_foregroundBlur_13504_544431"/>
</filter>
<linearGradient id="paint0_linear_13504_544431" x1="68.2292" y1="392.784" x2="344.215" y2="540.197" gradientUnits="userSpaceOnUse">
<stop stop-color="#FAFEFF"/>
<stop offset="1" stop-color="#28C76F"/>
</linearGradient>
<linearGradient id="paint1_linear_13504_544431" x1="167.137" y1="191.207" x2="326.376" y2="344.628" gradientUnits="userSpaceOnUse">
<stop stop-color="#FAFEFF"/>
<stop offset="1" stop-color="#00CFE8"/>
</linearGradient>
<linearGradient id="paint2_linear_13504_544431" x1="-31.8548" y1="134.056" x2="138.616" y2="225.213" gradientUnits="userSpaceOnUse">
<stop stop-color="#FAFEFF"/>
<stop offset="1" stop-color="#77ECAB"/>
</linearGradient>
<linearGradient id="paint3_linear_13504_544431" x1="408.135" y1="453.423" x2="465.347" y2="488.992" gradientUnits="userSpaceOnUse">
<stop stop-color="#FAFEFF"/>
<stop offset="1" stop-color="#00CFE8"/>
</linearGradient>
<linearGradient id="paint4_linear_13504_544431" x1="498.344" y1="357.309" x2="559.885" y2="383.659" gradientUnits="userSpaceOnUse">
<stop stop-color="#FAFEFF"/>
<stop offset="1" stop-color="#28C76F"/>
</linearGradient>
<linearGradient id="paint5_linear_13504_544431" x1="114.08" y1="505.65" x2="239.749" y2="441.009" gradientUnits="userSpaceOnUse">
<stop stop-color="#F8FDFF"/>
<stop offset="1" stop-color="#88EFB6"/>
</linearGradient>
<linearGradient id="paint6_linear_13504_544431" x1="456.573" y1="153.674" x2="456.573" y2="124.744" gradientUnits="userSpaceOnUse">
<stop stop-color="#F8FDFF"/>
<stop offset="1" stop-color="#AAD4FF"/>
</linearGradient>
<linearGradient id="paint7_linear_13504_544431" x1="100.036" y1="182.523" x2="96.9081" y2="224.81" gradientUnits="userSpaceOnUse">
<stop stop-color="#FDC6C6"/>
<stop offset="1" stop-color="#FAB2B2"/>
</linearGradient>
<linearGradient id="paint8_linear_13504_544431" x1="96.4314" y1="190.363" x2="58.6155" y2="190.363" gradientUnits="userSpaceOnUse">
<stop stop-color="#3F4044"/>
<stop offset="1" stop-color="#222735"/>
</linearGradient>
<linearGradient id="paint9_linear_13504_544431" x1="92.4182" y1="221.028" x2="77.6828" y2="223.34" gradientUnits="userSpaceOnUse">
<stop stop-color="#4D63A0"/>
<stop offset="1" stop-color="#222735"/>
</linearGradient>
<linearGradient id="paint10_linear_13504_544431" x1="21.1166" y1="208.645" x2="17.1217" y2="244.249" gradientUnits="userSpaceOnUse">
<stop stop-color="#FDC6C6"/>
<stop offset="1" stop-color="#FAB2B2"/>
</linearGradient>
<linearGradient id="paint11_linear_13504_544431" x1="142.373" y1="213.055" x2="142.317" y2="236.818" gradientUnits="userSpaceOnUse">
<stop stop-color="#D7FFFF"/>
<stop offset="1" stop-color="#648BF0"/>
</linearGradient>
<linearGradient id="paint12_linear_13504_544431" x1="189.83" y1="252.87" x2="188.141" y2="279.123" gradientUnits="userSpaceOnUse">
<stop stop-color="#FDC6C6"/>
<stop offset="1" stop-color="#FAB2B2"/>
</linearGradient>
</defs>
</svg>
