<svg width="100" height="100" viewBox="0 0 100 100" fill="none" xmlns="http://www.w3.org/2000/svg">
<path d="M36.8234 34.1167L29.7873 70.251L28.873 74.9815L75.7801 74.7549C77.887 74.7449 79.7553 72.8746 80.4291 70.096L88.7491 35.983C89.2639 33.8742 88.135 31.6799 86.5369 31.6819L39.0495 31.7316C38.016 31.7296 37.0897 32.7075 36.8234 34.1167Z" fill="#018ABE"/>
<g opacity="0.5">
<path d="M36.8244 34.1206L29.7883 70.2549L28.874 74.9854L75.7811 74.7588C77.8879 74.7488 79.7563 72.8785 80.4301 70.0999L88.7501 35.9869C89.2649 33.8781 88.1359 31.6838 86.5379 31.6858L39.0505 31.7355C38.0169 31.7335 37.0907 32.7114 36.8244 34.1206Z" fill="#2A2A2A"/>
</g>
<path d="M71.2846 67.8003L66.3156 27.7683C66.1169 26.1286 64.8071 24.9042 63.2627 24.9102L52.3707 24.944C51.966 24.9485 51.5663 25.0355 51.1963 25.1995C50.8262 25.3635 50.4934 25.6012 50.2182 25.898L45.0504 31.3977L14.7596 31.5606C12.9092 31.5706 11.486 33.3236 11.7305 35.2913L16.3437 72.2903C16.5425 73.9281 17.8523 75.1504 19.3927 75.1484L72.1929 75.0431C78.0722 75.1643 78.6347 73.4292 78.6347 73.4292C71.8848 74.9219 71.2846 67.8103 71.2846 67.8003Z" fill="#018ABE"/>
<g opacity="0.5">
<path d="M48.5167 59.7946L46.7358 61.7067L33.0215 49.3677L34.8024 47.4557L48.5167 59.7946Z" fill="white"/>
<path d="M45.9886 47.0322L47.9563 48.8031L35.5478 62.1299L33.5781 60.3589L45.9886 47.0322Z" fill="white"/>
</g>
</svg>
