<svg width="42" height="40" viewBox="0 0 42 40" fill="none" xmlns="http://www.w3.org/2000/svg">
<circle cx="20.833" cy="20" r="20" fill="#E6F3F8"/>
<g style="mix-blend-mode:multiply">
<ellipse cx="21.083" cy="34" rx="19.5" ry="1" fill="#BFBFBF"/>
</g>
<mask id="path-3-outside-1_11977_231101" maskUnits="userSpaceOnUse" x="5.00098" y="14" width="31" height="20" fill="black">
<rect fill="white" x="5.00098" y="14" width="31" height="20"/>
<path d="M25.962 15V20.625L27.8451 18.825L29.7282 20.625V15H25.962Z"/>
<path d="M24.4555 30.3C24.4555 30.5485 24.6522 30.75 24.8949 30.75H30.7953C31.038 30.75 31.2347 30.5485 31.2347 30.3V29.4C31.2347 29.1515 31.038 28.95 30.7953 28.95H24.8949C24.6522 28.95 24.4555 29.1515 24.4555 29.4V30.3Z"/>
<path d="M6.00098 15.9V32.1C6.00098 32.5971 6.39442 33 6.87976 33H19.6222C20.1075 33 20.501 32.5971 20.501 32.1V15.9C20.501 15.4029 20.1075 15 19.6222 15H6.87976C6.39442 15 6.00098 15.4029 6.00098 15.9Z"/>
<path fill-rule="evenodd" clip-rule="evenodd" d="M35.001 32.1V15.9C35.001 15.4029 34.6075 15 34.1222 15H29.7282V20.625L27.8451 18.825L25.962 20.625V15H21.3798C20.8944 15 20.501 15.4029 20.501 15.9V32.1C20.501 32.5971 20.8944 33 21.3798 33H34.1222C34.6075 33 35.001 32.5971 35.001 32.1ZM30.7953 30.75H24.8949C24.6522 30.75 24.4555 30.5485 24.4555 30.3V29.4C24.4555 29.1515 24.6522 28.95 24.8949 28.95H30.7953C31.038 28.95 31.2347 29.1515 31.2347 29.4V30.3C31.2347 30.5485 31.038 30.75 30.7953 30.75Z"/>
<path d="M20.501 15H19.6222C20.1075 15 20.501 15.4029 20.501 15.9C20.501 15.4029 20.8944 15 21.3798 15H20.501Z"/>
<path d="M20.501 33H21.3798C20.8944 33 20.501 32.5971 20.501 32.1C20.501 32.5971 20.1075 33 19.6222 33H20.501Z"/>
</mask>
<path d="M25.962 15V20.625L27.8451 18.825L29.7282 20.625V15H25.962Z" fill="#018ABE"/>
<path d="M24.4555 30.3C24.4555 30.5485 24.6522 30.75 24.8949 30.75H30.7953C31.038 30.75 31.2347 30.5485 31.2347 30.3V29.4C31.2347 29.1515 31.038 28.95 30.7953 28.95H24.8949C24.6522 28.95 24.4555 29.1515 24.4555 29.4V30.3Z" fill="#018ABE"/>
<path d="M6.00098 15.9V32.1C6.00098 32.5971 6.39442 33 6.87976 33H19.6222C20.1075 33 20.501 32.5971 20.501 32.1V15.9C20.501 15.4029 20.1075 15 19.6222 15H6.87976C6.39442 15 6.00098 15.4029 6.00098 15.9Z" fill="#018ABE"/>
<path fill-rule="evenodd" clip-rule="evenodd" d="M35.001 32.1V15.9C35.001 15.4029 34.6075 15 34.1222 15H29.7282V20.625L27.8451 18.825L25.962 20.625V15H21.3798C20.8944 15 20.501 15.4029 20.501 15.9V32.1C20.501 32.5971 20.8944 33 21.3798 33H34.1222C34.6075 33 35.001 32.5971 35.001 32.1ZM30.7953 30.75H24.8949C24.6522 30.75 24.4555 30.5485 24.4555 30.3V29.4C24.4555 29.1515 24.6522 28.95 24.8949 28.95H30.7953C31.038 28.95 31.2347 29.1515 31.2347 29.4V30.3C31.2347 30.5485 31.038 30.75 30.7953 30.75Z" fill="#B3DCEB"/>
<path d="M20.501 15H19.6222C20.1075 15 20.501 15.4029 20.501 15.9C20.501 15.4029 20.8944 15 21.3798 15H20.501Z" fill="white"/>
<path d="M20.501 33H21.3798C20.8944 33 20.501 32.5971 20.501 32.1C20.501 32.5971 20.1075 33 19.6222 33H20.501Z" fill="#1E7291"/>
<path d="M25.962 15H26.262V14.7H25.962V15ZM25.962 20.625H25.662V21.3268L26.1693 20.8419L25.962 20.625ZM27.8451 18.825L28.0524 18.6081L27.8451 18.41L27.6378 18.6081L27.8451 18.825ZM29.7282 20.625L29.521 20.8419L30.0282 21.3268V20.625H29.7282ZM34.1222 32.7H20.501V33.3H34.1222V32.7ZM20.501 32.7H6.87976V33.3H20.501V32.7ZM6.87976 15.3H20.501V14.7H6.87976V15.3ZM20.501 15.3H25.962V14.7H20.501V15.3ZM25.662 15V20.625H26.262V15H25.662ZM26.1693 20.8419L28.0524 19.0419L27.6378 18.6081L25.7547 20.4081L26.1693 20.8419ZM27.6378 19.0419L29.521 20.8419L29.9355 20.4081L28.0524 18.6081L27.6378 19.0419ZM30.0282 20.625V15H29.4282V20.625H30.0282ZM24.8949 31.05H30.7953V30.45H24.8949V31.05ZM31.5347 30.3V29.4H30.9347V30.3H31.5347ZM30.7953 28.65H24.8949V29.25H30.7953V28.65ZM24.1555 29.4V30.3H24.7555V29.4H24.1555ZM24.8949 28.65C24.4799 28.65 24.1555 28.9926 24.1555 29.4H24.7555C24.7555 29.3104 24.8246 29.25 24.8949 29.25V28.65ZM31.5347 29.4C31.5347 28.9926 31.2104 28.65 30.7953 28.65V29.25C30.8656 29.25 30.9347 29.3104 30.9347 29.4H31.5347ZM24.8949 30.45C24.8246 30.45 24.7555 30.3896 24.7555 30.3H24.1555C24.1555 30.7074 24.4799 31.05 24.8949 31.05V30.45ZM30.7953 31.05C31.2104 31.05 31.5347 30.7074 31.5347 30.3H30.9347C30.9347 30.3896 30.8656 30.45 30.7953 30.45V31.05ZM19.6222 15.3C19.9351 15.3 20.201 15.5618 20.201 15.9H20.801C20.801 15.244 20.2799 14.7 19.6222 14.7V15.3ZM20.201 32.1C20.201 32.4382 19.9351 32.7 19.6222 32.7V33.3C20.2799 33.3 20.801 32.756 20.801 32.1H20.201ZM20.801 15.9C20.801 15.5618 21.0668 15.3 21.3798 15.3V14.7C20.722 14.7 20.201 15.244 20.201 15.9H20.801ZM21.3798 32.7C21.0668 32.7 20.801 32.4382 20.801 32.1H20.201C20.201 32.756 20.722 33.3 21.3798 33.3V32.7ZM20.201 15.9V32.1H20.801V15.9H20.201ZM34.401 15.9V32.1H35.601V15.9H34.401ZM6.60098 32.1V15.9H5.40098V32.1H6.60098ZM25.962 15.6H29.7282V14.4H25.962V15.6ZM29.7282 15.6H34.1222V14.4H29.7282V15.6ZM5.40098 32.1C5.40098 32.9149 6.04964 33.6 6.87976 33.6V32.4C6.7392 32.4 6.60098 32.2793 6.60098 32.1H5.40098ZM34.401 32.1C34.401 32.2793 34.2627 32.4 34.1222 32.4V33.6C34.9523 33.6 35.601 32.9149 35.601 32.1H34.401ZM6.60098 15.9C6.60098 15.7207 6.7392 15.6 6.87976 15.6V14.4C6.04964 14.4 5.40098 15.0851 5.40098 15.9H6.60098ZM35.601 15.9C35.601 15.0851 34.9523 14.4 34.1222 14.4V15.6C34.2627 15.6 34.401 15.7207 34.401 15.9H35.601ZM21.3798 15.6H25.962V14.4H21.3798V15.6ZM21.3798 14.4H20.501V15.6H21.3798V14.4ZM6.87976 15.6H19.6222V14.4H6.87976V15.6ZM21.3798 33.6H34.1222V32.4H21.3798V33.6ZM6.87976 33.6H19.6222V32.4H6.87976V33.6ZM20.501 14.4H19.6222V15.6H20.501V14.4ZM20.501 33.6H21.3798V32.4H20.501V33.6ZM19.6222 33.6H20.501V32.4H19.6222V33.6Z" fill="url(#paint0_linear_11977_231101)" mask="url(#path-3-outside-1_11977_231101)"/>
<circle cx="35.334" cy="32.5" r="6" fill="#E6F3F8" stroke="white"/>
<path d="M33.7285 29.5156L33.427 29.3378C33.3793 29.4187 33.3661 29.5154 33.3904 29.6061C33.4147 29.6969 33.4745 29.774 33.5563 29.8203L33.7285 29.5156ZM34.4633 29.3228L34.5521 29.6614L34.4633 29.3228ZM34.7209 30.4785C34.8892 30.5736 35.1027 30.5143 35.1978 30.346C35.2929 30.1777 35.2336 29.9642 35.0653 29.8691L34.7209 30.4785ZM34.7024 28.5533C34.8006 28.3868 34.7452 28.1722 34.5787 28.074C34.4122 27.9758 34.1976 28.0312 34.0994 28.1977L34.7024 28.5533ZM34.8361 29.2462L34.7843 28.9001H34.7843L34.8361 29.2462ZM34.6483 29.2796L34.7189 29.6224H34.7189L34.6483 29.2796ZM38.6558 31.6924L38.9934 31.6L38.6558 31.6924ZM38.272 33.4886C38.2107 33.6719 38.3096 33.8702 38.4929 33.9315C38.6762 33.9928 38.8745 33.8939 38.9358 33.7106L38.272 33.4886ZM37.3679 29.8532L37.5713 29.5683L37.3679 29.8532ZM33.8173 29.8541L34.5521 29.6614L34.3745 28.9843L33.6397 29.177L33.8173 29.8541ZM33.5563 29.8203L34.7209 30.4785L35.0653 29.8691L33.9007 29.2109L33.5563 29.8203ZM34.03 29.6934L34.7024 28.5533L34.0994 28.1977L33.427 29.3378L34.03 29.6934ZM34.7843 28.9001C34.7155 28.9104 34.6466 28.9226 34.5778 28.9367L34.7189 29.6224C34.7752 29.6108 34.8316 29.6008 34.8879 29.5924L34.7843 28.9001ZM34.5778 28.9367C34.51 28.9507 34.4422 28.9665 34.3745 28.9843L34.5521 29.6614C34.6077 29.6468 34.6633 29.6338 34.7189 29.6224L34.5778 28.9367ZM38.3182 31.7848C38.4778 32.3678 38.4503 32.9555 38.272 33.4886L38.9358 33.7106C39.1567 33.0501 39.1907 32.3208 38.9934 31.6L38.3182 31.7848ZM34.8879 29.5924C35.712 29.469 36.5254 29.6818 37.1646 30.1381L37.5713 29.5683C36.7885 29.0095 35.7929 28.7491 34.7843 28.9001L34.8879 29.5924ZM37.1646 30.1381C37.7122 30.5289 38.13 31.0971 38.3182 31.7848L38.9934 31.6C38.7605 30.7493 38.2434 30.0481 37.5713 29.5683L37.1646 30.1381Z" fill="#555555"/>
<path d="M37.6916 34.9375L38.0292 35.0299C38.0538 34.9398 38.0414 34.8435 37.9947 34.7625C37.948 34.6816 37.8708 34.6227 37.7804 34.599L37.6916 34.9375ZM37.0328 35.3099L37.205 35.6146V35.6146L37.0328 35.3099ZM36.4815 34.2582C36.2945 34.2092 36.1032 34.321 36.0541 34.508C36.0051 34.695 36.1169 34.8863 36.3038 34.9353L36.4815 34.2582ZM37.006 36.1167C36.9549 36.3031 37.0647 36.4957 37.2511 36.5467C37.4376 36.5977 37.6301 36.4879 37.6811 36.3015L37.006 36.1167ZM36.6929 35.4783L36.8311 35.7999L36.6929 35.4783ZM36.8655 35.3985L36.71 35.085H36.71L36.8655 35.3985ZM32.3567 34.0833L32.6581 33.9055L32.3567 34.0833ZM32.7179 30.8116C32.8223 30.6489 32.775 30.4324 32.6123 30.328C32.4496 30.2236 32.2331 30.2709 32.1287 30.4336L32.7179 30.8116ZM37.5194 34.6328L36.8606 35.0052L37.205 35.6146L37.8638 35.2422L37.5194 34.6328ZM37.7804 34.599L36.4815 34.2582L36.3038 34.9353L37.6028 35.2761L37.7804 34.599ZM37.354 34.8451L37.006 36.1167L37.6811 36.3015L38.0292 35.0299L37.354 34.8451ZM36.8311 35.7999C36.8949 35.7725 36.9582 35.7432 37.021 35.7121L36.71 35.085C36.6587 35.1104 36.6069 35.1344 36.5548 35.1567L36.8311 35.7999ZM37.021 35.7121C37.0829 35.6814 37.1442 35.6489 37.205 35.6146L36.8606 35.0052C36.8108 35.0333 36.7606 35.0599 36.71 35.085L37.021 35.7121ZM36.5548 35.1567C35.1349 35.7667 33.4469 35.243 32.6581 33.9055L32.0552 34.2611C33.0284 35.9112 35.0973 36.5447 36.8311 35.7999L36.5548 35.1567ZM32.6581 33.9055C32.0712 32.9103 32.1332 31.723 32.7179 30.8116L32.1287 30.4336C31.4072 31.5582 31.3286 33.0292 32.0552 34.2611L32.6581 33.9055Z" fill="#555555"/>
<defs>
<linearGradient id="paint0_linear_11977_231101" x1="20.501" y1="15" x2="20.501" y2="33" gradientUnits="userSpaceOnUse">
<stop stop-color="white"/>
<stop offset="1" stop-color="#1E7291"/>
</linearGradient>
</defs>
</svg>
