<svg width="42" height="40" viewBox="0 0 42 40" fill="none" xmlns="http://www.w3.org/2000/svg">
<circle r="20" transform="matrix(-1 0 0 1 20.418 20)" fill="#E6F3F8"/>
<g style="mix-blend-mode:multiply">
<ellipse cx="20.668" cy="35" rx="19.5" ry="1" fill="#BFBFBF"/>
</g>
<mask id="path-3-outside-1_11657_39834" maskUnits="userSpaceOnUse" x="4.58594" y="15" width="31" height="20" fill="black">
<rect fill="white" x="4.58594" y="15" width="31" height="20"/>
<path d="M25.547 16V21.625L27.4301 19.825L29.3132 21.625V16H25.547Z"/>
<path d="M24.0405 31.3C24.0405 31.5485 24.2372 31.75 24.4799 31.75H30.3803C30.623 31.75 30.8197 31.5485 30.8197 31.3V30.4C30.8197 30.1515 30.623 29.95 30.3803 29.95H24.4799C24.2372 29.95 24.0405 30.1515 24.0405 30.4V31.3Z"/>
<path d="M5.58594 16.9V33.1C5.58594 33.5971 5.97938 34 6.46473 34H19.2071C19.6925 34 20.0859 33.5971 20.0859 33.1V16.9C20.0859 16.4029 19.6925 16 19.2071 16H6.46473C5.97938 16 5.58594 16.4029 5.58594 16.9Z"/>
<path fill-rule="evenodd" clip-rule="evenodd" d="M34.5859 33.1V16.9C34.5859 16.4029 34.1925 16 33.7071 16H29.3132V21.625L27.4301 19.825L25.547 21.625V16H20.9647C20.4794 16 20.0859 16.4029 20.0859 16.9V33.1C20.0859 33.5971 20.4794 34 20.9647 34H33.7071C34.1925 34 34.5859 33.5971 34.5859 33.1ZM30.3803 31.75H24.4799C24.2372 31.75 24.0405 31.5485 24.0405 31.3V30.4C24.0405 30.1515 24.2372 29.95 24.4799 29.95H30.3803C30.623 29.95 30.8197 30.1515 30.8197 30.4V31.3C30.8197 31.5485 30.623 31.75 30.3803 31.75Z"/>
<path d="M20.0859 16H19.2071C19.6925 16 20.0859 16.4029 20.0859 16.9C20.0859 16.4029 20.4794 16 20.9647 16H20.0859Z"/>
<path d="M20.0859 34H20.9647C20.4794 34 20.0859 33.5971 20.0859 33.1C20.0859 33.5971 19.6925 34 19.2071 34H20.0859Z"/>
</mask>
<path d="M25.547 16V21.625L27.4301 19.825L29.3132 21.625V16H25.547Z" fill="#018ABE"/>
<path d="M24.0405 31.3C24.0405 31.5485 24.2372 31.75 24.4799 31.75H30.3803C30.623 31.75 30.8197 31.5485 30.8197 31.3V30.4C30.8197 30.1515 30.623 29.95 30.3803 29.95H24.4799C24.2372 29.95 24.0405 30.1515 24.0405 30.4V31.3Z" fill="#018ABE"/>
<path d="M5.58594 16.9V33.1C5.58594 33.5971 5.97938 34 6.46473 34H19.2071C19.6925 34 20.0859 33.5971 20.0859 33.1V16.9C20.0859 16.4029 19.6925 16 19.2071 16H6.46473C5.97938 16 5.58594 16.4029 5.58594 16.9Z" fill="#018ABE"/>
<path fill-rule="evenodd" clip-rule="evenodd" d="M34.5859 33.1V16.9C34.5859 16.4029 34.1925 16 33.7071 16H29.3132V21.625L27.4301 19.825L25.547 21.625V16H20.9647C20.4794 16 20.0859 16.4029 20.0859 16.9V33.1C20.0859 33.5971 20.4794 34 20.9647 34H33.7071C34.1925 34 34.5859 33.5971 34.5859 33.1ZM30.3803 31.75H24.4799C24.2372 31.75 24.0405 31.5485 24.0405 31.3V30.4C24.0405 30.1515 24.2372 29.95 24.4799 29.95H30.3803C30.623 29.95 30.8197 30.1515 30.8197 30.4V31.3C30.8197 31.5485 30.623 31.75 30.3803 31.75Z" fill="#B3DCEB"/>
<path d="M20.0859 16H19.2071C19.6925 16 20.0859 16.4029 20.0859 16.9C20.0859 16.4029 20.4794 16 20.9647 16H20.0859Z" fill="white"/>
<path d="M20.0859 34H20.9647C20.4794 34 20.0859 33.5971 20.0859 33.1C20.0859 33.5971 19.6925 34 19.2071 34H20.0859Z" fill="#018ABE"/>
<path d="M25.547 16H25.847V15.7H25.547V16ZM25.547 21.625H25.247V22.3268L25.7543 21.8419L25.547 21.625ZM27.4301 19.825L27.6374 19.6081L27.4301 19.41L27.2228 19.6081L27.4301 19.825ZM29.3132 21.625L29.1059 21.8419L29.6132 22.3268V21.625H29.3132ZM33.7071 33.7H20.0859V34.3H33.7071V33.7ZM20.0859 33.7H6.46473V34.3H20.0859V33.7ZM6.46473 16.3H20.0859V15.7H6.46473V16.3ZM20.0859 16.3H25.547V15.7H20.0859V16.3ZM25.247 16V21.625H25.847V16H25.247ZM25.7543 21.8419L27.6374 20.0419L27.2228 19.6081L25.3397 21.4081L25.7543 21.8419ZM27.2228 20.0419L29.1059 21.8419L29.5205 21.4081L27.6374 19.6081L27.2228 20.0419ZM29.6132 21.625V16H29.0132V21.625H29.6132ZM24.4799 32.05H30.3803V31.45H24.4799V32.05ZM31.1197 31.3V30.4H30.5197V31.3H31.1197ZM30.3803 29.65H24.4799V30.25H30.3803V29.65ZM23.7405 30.4V31.3H24.3405V30.4H23.7405ZM24.4799 29.65C24.0648 29.65 23.7405 29.9926 23.7405 30.4H24.3405C24.3405 30.3104 24.4096 30.25 24.4799 30.25V29.65ZM31.1197 30.4C31.1197 29.9926 30.7954 29.65 30.3803 29.65V30.25C30.4506 30.25 30.5197 30.3104 30.5197 30.4H31.1197ZM24.4799 31.45C24.4096 31.45 24.3405 31.3896 24.3405 31.3H23.7405C23.7405 31.7074 24.0648 32.05 24.4799 32.05V31.45ZM30.3803 32.05C30.7954 32.05 31.1197 31.7074 31.1197 31.3H30.5197C30.5197 31.3896 30.4506 31.45 30.3803 31.45V32.05ZM19.2071 16.3C19.5201 16.3 19.7859 16.5618 19.7859 16.9H20.3859C20.3859 16.244 19.8649 15.7 19.2071 15.7V16.3ZM19.7859 33.1C19.7859 33.4382 19.5201 33.7 19.2071 33.7V34.3C19.8649 34.3 20.3859 33.756 20.3859 33.1H19.7859ZM20.3859 16.9C20.3859 16.5618 20.6518 16.3 20.9647 16.3V15.7C20.307 15.7 19.7859 16.244 19.7859 16.9H20.3859ZM20.9647 33.7C20.6518 33.7 20.3859 33.4382 20.3859 33.1H19.7859C19.7859 33.756 20.307 34.3 20.9647 34.3V33.7ZM19.7859 16.9V33.1H20.3859V16.9H19.7859ZM33.9859 16.9V33.1H35.1859V16.9H33.9859ZM6.18594 33.1V16.9H4.98594V33.1H6.18594ZM25.547 16.6H29.3132V15.4H25.547V16.6ZM29.3132 16.6H33.7071V15.4H29.3132V16.6ZM4.98594 33.1C4.98594 33.9149 5.6346 34.6 6.46473 34.6V33.4C6.32417 33.4 6.18594 33.2793 6.18594 33.1H4.98594ZM33.9859 33.1C33.9859 33.2793 33.8477 33.4 33.7071 33.4V34.6C34.5373 34.6 35.1859 33.9149 35.1859 33.1H33.9859ZM6.18594 16.9C6.18594 16.7207 6.32417 16.6 6.46473 16.6V15.4C5.6346 15.4 4.98594 16.0851 4.98594 16.9H6.18594ZM35.1859 16.9C35.1859 16.0851 34.5373 15.4 33.7071 15.4V16.6C33.8477 16.6 33.9859 16.7207 33.9859 16.9H35.1859ZM20.9647 16.6H25.547V15.4H20.9647V16.6ZM20.9647 15.4H20.0859V16.6H20.9647V15.4ZM6.46473 16.6H19.2071V15.4H6.46473V16.6ZM20.9647 34.6H33.7071V33.4H20.9647V34.6ZM6.46473 34.6H19.2071V33.4H6.46473V34.6ZM20.0859 15.4H19.2071V16.6H20.0859V15.4ZM20.0859 34.6H20.9647V33.4H20.0859V34.6ZM19.2071 34.6H20.0859V33.4H19.2071V34.6Z" fill="url(#paint0_linear_11657_39834)" mask="url(#path-3-outside-1_11657_39834)"/>
<circle cx="34.918" cy="33.5" r="6" fill="#FDEEEE" stroke="white"/>
<path d="M32.418 31L37.418 36M37.418 31L32.418 36" stroke="#EA5455" stroke-width="0.7" stroke-linecap="round" stroke-linejoin="round"/>
<defs>
<linearGradient id="paint0_linear_11657_39834" x1="20.0859" y1="16" x2="20.0859" y2="34" gradientUnits="userSpaceOnUse">
<stop stop-color="white"/>
<stop offset="1" stop-color="#018ABE"/>
</linearGradient>
</defs>
</svg>
