<svg width="41" height="40" viewBox="0 0 41 40" fill="none" xmlns="http://www.w3.org/2000/svg">
<circle cx="20.7598" cy="20" r="20" fill="#E6F3F8"/>
<g style="mix-blend-mode:multiply">
<ellipse cx="20.8647" cy="34" rx="18.5366" ry="1" fill="#BFBFBF"/>
</g>
<ellipse cx="32.4437" cy="29.5892" rx="4.57259" ry="4.6869" fill="#555555"/>
<ellipse cx="10.3402" cy="29.5892" rx="4.57259" ry="4.6869" fill="#555555"/>
<ellipse cx="32.4431" cy="29.5875" rx="3.35323" ry="3.43706" fill="white"/>
<ellipse cx="10.3396" cy="29.5875" rx="3.35323" ry="3.43706" fill="white"/>
<path d="M20.7809 23.5032C19.7758 23.5573 18.0013 23.6512 17.8855 23.6512C17.6246 23.6512 11.6291 21.333 8.1301 19.9037C7.67284 19.8278 5.08171 19.6671 5.15792 19.8233C5.23413 19.9795 5.8438 21.3856 6.14864 21.5418C6.20337 21.5699 6.48405 21.7263 6.91088 21.9651C7.62015 22.3617 8.73299 22.9857 9.88321 23.6253C11.8966 24.745 14.0245 25.9128 14.3031 25.9944C14.8366 26.1506 22.2289 28.2597 22.4575 28.3379C22.6862 28.416 23.2958 31.15 23.4483 31.2281C23.5611 31.2859 25.0105 31.6006 25.7557 31.6968H26.1918C25.9887 31.5406 25.5672 31.1969 25.5062 31.0719C25.43 30.9156 25.5824 26.8537 25.7346 26.6193C25.8867 26.385 30.6123 21.3075 30.6123 21.2294C30.6123 21.1669 28.1228 19.4848 26.878 18.6516C26.8272 18.3131 26.7408 17.6361 26.8018 17.6361C26.9542 17.558 27.5639 17.0894 27.5639 17.0112C27.5639 16.9486 26.3443 15.3708 25.7346 14.5897C25.5821 14.6678 23.7531 16.2301 23.7531 16.3082V17.0894C23.7531 17.1675 26.1156 21.62 25.9632 21.7763C25.8108 21.9325 22.0765 25.3696 21.9241 25.3696C21.8021 25.3696 21.0096 24.9529 20.6285 24.7446L20.7809 23.5032Z" fill="#018ABE"/>
<path d="M27.716 15.8395C27.5636 15.6833 25.887 14.5116 25.7346 14.5897C26.3443 15.3708 27.5639 16.9486 27.5639 17.0112C27.5639 17.0894 26.9542 17.558 26.8018 17.6361C26.7408 17.6361 26.8272 18.3131 26.878 18.6516C28.1228 19.4848 30.6123 21.1669 30.6123 21.2294C30.6123 21.3075 25.8867 26.385 25.7346 26.6193C25.5824 26.8537 25.43 30.9156 25.5062 31.0719C25.5672 31.1969 25.9887 31.5406 26.1918 31.6968C26.1918 31.5406 26.268 27.4786 26.4967 26.8537C26.5436 26.7254 26.8026 26.4489 27.1825 26.0864C28.298 25.0223 30.4563 23.2173 31.3546 22.2449C31.6407 21.9352 31.799 21.7099 31.7551 21.62C31.5265 21.1513 28.7067 18.0267 28.5543 18.0267C28.4019 18.0267 27.1063 18.4172 27.1063 18.3391C27.1063 18.261 27.1063 17.8704 27.1825 17.7923C27.2588 17.7142 28.2495 17.7142 28.2495 17.4799C28.2495 17.2455 27.8684 15.9957 27.716 15.8395Z" fill="#B3DCEB"/>
<path d="M35.7944 24.5883C35.6115 24.0884 32.7583 22.8177 31.3546 22.2449C30.4563 23.2173 28.298 25.0223 27.1825 26.0864C26.4202 28.1313 26.5732 31.3843 26.7256 31.15C27.1828 25.5257 30.8169 24.3142 31.5268 24.1978C33.432 23.8853 35.8708 24.7446 35.7944 24.5883Z" fill="#555555"/>
<path d="M20.0956 20.9172C19.8822 20.6984 15.8158 19.5742 11.9266 19.0248C8.56709 19.0248 5.73017 18.9811 5.68751 19.0248C5.44755 19.2708 6.64737 19.5167 8.1301 19.9037C11.6291 21.333 17.6246 23.6512 17.8855 23.6512C18.0013 23.6512 19.7758 23.5573 20.7809 23.5032L20.9339 23.495C21.0355 23.3648 21.2235 23.0732 21.1626 22.9482C21.0864 22.7919 20.4767 21.3078 20.0956 20.9172Z" fill="#555555"/>
<path d="M6.91088 21.9651C5.84394 23.8289 3.69483 27.5879 3.63386 27.7129C3.55765 27.8692 7.67312 23.5032 7.90161 23.5032C8.0844 23.5032 9.29884 23.5846 9.88321 23.6253C8.73299 22.9857 7.62015 22.3617 6.91088 21.9651Z" fill="#555555"/>
<path d="M23.4483 31.2281C23.2958 31.15 22.6862 28.416 22.4575 28.3379C22.2289 28.2597 14.8366 26.1506 14.3031 25.9944C14.2266 26.0725 12.3219 28.3379 12.2457 28.3379C12.1695 28.3379 8.51143 26.7755 8.43522 26.6974C8.35901 26.6193 7.5207 26.6974 7.44449 26.7755C7.36828 26.8537 7.36828 28.1816 7.44449 28.3379C7.5207 28.4941 12.8554 30.9938 13.084 31.0719C13.3126 31.15 16.361 31.6968 16.6659 31.6968H25.7557C25.0105 31.6006 23.5611 31.2859 23.4483 31.2281Z" fill="#555555"/>
<path d="M23.7523 16.7753C23.7523 16.9211 23.6548 17.0436 23.523 17.0781C23.4989 17.0844 23.4735 17.0878 23.4474 17.0878C23.2791 17.0878 23.1426 16.9479 23.1426 16.7753C23.1426 16.6028 23.2791 16.4629 23.4474 16.4629C23.6158 16.4629 23.7523 16.6028 23.7523 16.7753Z" fill="#555555"/>
<path d="M24.9716 16.6191C24.9716 16.7917 24.8351 16.9316 24.6668 16.9316C24.4984 16.9316 24.3619 16.7917 24.3619 16.6191C24.3619 16.4733 24.4594 16.3508 24.5912 16.3163C24.6153 16.31 24.6407 16.3066 24.6668 16.3066C24.8351 16.3066 24.9716 16.4465 24.9716 16.6191Z" fill="#555555"/>
<path d="M23.7523 16.7753C23.7523 16.9211 23.6548 17.0436 23.523 17.0781L24.6668 16.9316C24.4984 16.9316 24.3619 16.7917 24.3619 16.6191C24.3619 16.4733 24.4594 16.3508 24.5912 16.3163L23.4474 16.4629C23.6158 16.4629 23.7523 16.6028 23.7523 16.7753Z" fill="#555555"/>
<mask id="path-9-outside-1_11582_39738" maskUnits="userSpaceOnUse" x="3.73047" y="13.1074" width="9" height="7" fill="black">
<rect fill="white" x="3.73047" y="13.1074" width="9" height="7"/>
<path d="M8.32994 14.1074H8.11179C8.23227 14.1074 8.32994 14.2175 8.32994 14.3534C8.32994 14.2175 8.42761 14.1074 8.54809 14.1074H8.32994Z"/>
<path d="M8.32994 19.0267H8.54809C8.42761 19.0267 8.32994 18.9166 8.32994 18.7807C8.32994 18.9166 8.23227 19.0267 8.11179 19.0267H8.32994Z"/>
<path d="M4.94862 19.0267H8.11179C8.23227 19.0267 8.32994 18.9166 8.32994 18.7807V16.5671H4.73047V18.7807C4.73047 18.9166 4.82814 19.0267 4.94862 19.0267Z"/>
<path d="M8.11179 14.1074H4.94862C4.82814 14.1074 4.73047 14.2175 4.73047 14.3534V15.5832H8.32994V14.3534C8.32994 14.2175 8.23227 14.1074 8.11179 14.1074Z"/>
<path d="M8.32994 15.5832H4.73047V16.5671H8.32994V15.5832Z"/>
<path d="M8.54809 19.0267H11.7113C11.8317 19.0267 11.9294 18.9166 11.9294 18.7807V16.5671H8.32994V18.7807C8.32994 18.9166 8.42761 19.0267 8.54809 19.0267Z"/>
<path d="M8.32994 15.5832V16.5671H11.9294V15.5832H10.6205H10.5621H9.74402H9.68559H8.32994Z"/>
<path d="M9.68559 14.1074H8.54809C8.42761 14.1074 8.32994 14.2175 8.32994 14.3534V15.5832H9.68559H9.74402H10.5621H10.6205H11.9294V14.3534C11.9294 14.2175 11.8317 14.1074 11.7113 14.1074H10.6205H9.68559Z"/>
</mask>
<path d="M8.32994 14.1074H8.11179C8.23227 14.1074 8.32994 14.2175 8.32994 14.3534C8.32994 14.2175 8.42761 14.1074 8.54809 14.1074H8.32994Z" fill="#E6F3F8"/>
<path d="M8.32994 19.0267H8.54809C8.42761 19.0267 8.32994 18.9166 8.32994 18.7807C8.32994 18.9166 8.23227 19.0267 8.11179 19.0267H8.32994Z" fill="#1E7291"/>
<path d="M4.94862 19.0267H8.11179C8.23227 19.0267 8.32994 18.9166 8.32994 18.7807V16.5671H4.73047V18.7807C4.73047 18.9166 4.82814 19.0267 4.94862 19.0267Z" fill="#018ABE"/>
<path d="M8.11179 14.1074H4.94862C4.82814 14.1074 4.73047 14.2175 4.73047 14.3534V15.5832H8.32994V14.3534C8.32994 14.2175 8.23227 14.1074 8.11179 14.1074Z" fill="#018ABE"/>
<path d="M8.32994 15.5832H4.73047V16.5671H8.32994V15.5832Z" fill="#34A1CB"/>
<path d="M8.54809 19.0267H11.7113C11.8317 19.0267 11.9294 18.9166 11.9294 18.7807V16.5671H8.32994V18.7807C8.32994 18.9166 8.42761 19.0267 8.54809 19.0267Z" fill="#B3DCEB"/>
<path d="M8.32994 15.5832V16.5671H11.9294V15.5832H10.6205H10.5621H9.74402H9.68559H8.32994Z" fill="#E6F3F8"/>
<path d="M9.68559 14.1074H8.54809C8.42761 14.1074 8.32994 14.2175 8.32994 14.3534V15.5832H9.68559H9.74402H10.5621H10.6205H11.9294V14.3534C11.9294 14.2175 11.8317 14.1074 11.7113 14.1074H10.6205H9.68559Z" fill="#B3DCEB"/>
<path d="M11.7113 18.9267H8.32994V19.1267H11.7113V18.9267ZM8.32994 18.9267H4.94862V19.1267H8.32994V18.9267ZM4.94862 14.2074H8.32994V14.0074H4.94862V14.2074ZM8.32994 14.2074H9.68559V14.0074H8.32994V14.2074ZM8.11179 14.2074C8.1661 14.2074 8.22994 14.2612 8.22994 14.3534H8.42994C8.42994 14.1739 8.29845 14.0074 8.11179 14.0074V14.2074ZM8.22994 18.7807C8.22994 18.873 8.1661 18.9267 8.11179 18.9267V19.1267C8.29845 19.1267 8.42994 18.9602 8.42994 18.7807H8.22994ZM8.42994 14.3534C8.42994 14.2612 8.49378 14.2074 8.54809 14.2074V14.0074C8.36144 14.0074 8.22994 14.1739 8.22994 14.3534H8.42994ZM8.54809 18.9267C8.49378 18.9267 8.42994 18.873 8.42994 18.7807H8.22994C8.22994 18.9602 8.36144 19.1267 8.54809 19.1267V18.9267ZM8.22994 14.3534V15.5832H8.42994V14.3534H8.22994ZM4.73047 15.6832H8.32994V15.4832H4.73047V15.6832ZM8.22994 15.5832V16.5671H8.42994V15.5832H8.22994ZM8.22994 16.5671V18.7807H8.42994V16.5671H8.22994ZM8.32994 16.6671H11.9294V16.4671H8.32994V16.6671ZM8.32994 16.4671H4.73047V16.6671H8.32994V16.4671ZM8.32994 15.6832H9.68559V15.4832H8.32994V15.6832ZM9.74402 15.6832H10.5621V15.4832H9.74402V15.6832ZM10.6205 15.6832H11.9294V15.4832H10.6205V15.6832ZM9.68559 15.6832H9.74402V15.4832H9.68559V15.6832ZM10.5621 15.6832H10.6205V15.4832H10.5621V15.6832ZM9.68559 14.3074H10.6205V13.9074H9.68559V14.3074ZM10.6205 14.3074H11.7113V13.9074H10.6205V14.3074ZM4.53047 18.7807C4.53047 19.0038 4.6958 19.2267 4.94862 19.2267V18.8267C4.95196 18.8267 4.94996 18.8287 4.94399 18.822C4.9377 18.8149 4.93047 18.8009 4.93047 18.7807H4.53047ZM11.7294 18.7807C11.7294 18.8009 11.7222 18.8149 11.7159 18.822C11.7099 18.8287 11.7079 18.8267 11.7113 18.8267V19.2267C11.9641 19.2267 12.1294 19.0038 12.1294 18.7807H11.7294ZM4.93047 14.3534C4.93047 14.3333 4.9377 14.3193 4.94399 14.3122C4.94996 14.3054 4.95196 14.3074 4.94862 14.3074V13.9074C4.6958 13.9074 4.53047 14.1303 4.53047 14.3534H4.93047ZM12.1294 14.3534C12.1294 14.1303 11.9641 13.9074 11.7113 13.9074V14.3074C11.7079 14.3074 11.7099 14.3054 11.7159 14.3122C11.7222 14.3193 11.7294 14.3333 11.7294 14.3534H12.1294ZM8.54809 14.3074H9.68559V13.9074H8.54809V14.3074ZM8.54809 13.9074H8.32994V14.3074H8.54809V13.9074ZM4.94862 14.3074H8.11179V13.9074H4.94862V14.3074ZM8.54809 19.2267H11.7113V18.8267H8.54809V19.2267ZM4.94862 19.2267H8.11179V18.8267H4.94862V19.2267ZM8.32994 13.9074H8.11179V14.3074H8.32994V13.9074ZM8.32994 19.2267H8.54809V18.8267H8.32994V19.2267ZM8.11179 19.2267H8.32994V18.8267H8.11179V19.2267ZM4.93047 15.5832V14.3534H4.53047V15.5832H4.93047ZM11.7294 14.3534V15.5832H12.1294V14.3534H11.7294ZM11.7294 15.5832V16.5671H12.1294V15.5832H11.7294ZM11.7294 16.5671V18.7807H12.1294V16.5671H11.7294ZM4.93047 18.7807V16.5671H4.53047V18.7807H4.93047ZM4.93047 16.5671V15.5832H4.53047V16.5671H4.93047Z" fill="url(#paint0_linear_11582_39738)" mask="url(#path-9-outside-1_11582_39738)"/>
<path d="M19.3275 18.9765C18.8546 18.7195 18.0456 18.3771 17.7331 18.3472C17.5795 18.428 14.4462 18.5088 13.7702 18.4582C13.6409 19.6442 14.1551 20.0494 14.5811 20.4078C15.0071 20.7662 16.5406 21.1245 16.8813 21.1245C17.2221 21.1245 20.3315 22.5422 20.2463 22.7214C20.1611 22.9005 20.2891 27.7046 20.3743 27.7942C20.4444 27.8679 21.8409 28.1235 22.3338 28.112C22.4399 28.1096 22.5041 28.0947 22.5041 28.0629C22.5041 27.8837 22.6745 21.5725 22.5041 21.1245C22.3338 20.6766 19.8766 19.2748 19.3275 18.9765Z" fill="#34A1CB"/>
<path d="M16.8813 5.80431C15.859 6.07308 15.6034 7.05859 15.6034 7.68574C15.6034 8.18187 15.8255 8.66047 15.9402 8.84434C15.9428 8.84492 15.9441 8.84691 15.9441 8.85044C15.9769 8.85044 16.3013 9.15697 16.6923 9.54387C16.9291 7.90818 17.4777 7.77507 17.6481 7.68548C17.7747 7.6189 18.6071 7.75023 19.0962 7.74855C19.2653 7.74797 19.3934 7.7315 19.4372 7.68548C19.5937 7.52089 19.5652 7.33884 19.2521 6.82415C19.2208 6.78491 19.1309 6.62876 19.0962 6.58496C18.6703 6.0474 17.9037 5.53553 16.8813 5.80431Z" fill="#018ABE"/>
<path d="M18.9258 10.0151C19.0622 9.94346 19.0962 8.67125 19.0962 8.04411C19.0964 7.97222 19.0963 7.81712 19.0962 7.74855C18.6071 7.75023 17.7747 7.6189 17.6481 7.68548C17.4777 7.77507 16.9291 7.90818 16.6923 9.54387C17.24 10.0859 17.9185 10.7856 18.1096 11.0212L18.1591 10.0151C18.1786 10.0151 18.2204 10.0198 18.2752 10.026C18.4603 10.0467 18.7944 10.0842 18.9258 10.0151Z" fill="#E2A5AC"/>
<path d="M22.3338 28.112C21.8409 28.1235 20.4444 27.8679 20.3743 27.7942C20.1187 27.7942 19.7779 29.0484 19.7779 29.3172C19.7779 29.586 20.9707 29.8548 21.4818 29.9444C21.993 30.034 23.0153 30.1235 23.3561 30.034C23.6969 29.9444 24.3784 29.4068 24.208 29.0484C24.0886 28.7973 23.8017 28.7661 23.5528 28.7392C23.4466 28.7276 23.3473 28.7169 23.2709 28.6901C23.0664 28.6184 22.5609 28.2749 22.3338 28.112Z" fill="#B3DCEB"/>
<path d="M23.1003 16.1074C22.7596 16.1074 18.4999 12.7925 18.3295 12.5237C18.2293 12.3657 18.2175 11.9602 18.2074 11.6162C18.2004 11.375 18.1942 11.1641 18.1591 11.0902C18.1528 11.077 18.1358 11.0534 18.1096 11.0212C17.9185 10.7856 17.24 10.0859 16.6923 9.54387C16.3013 9.15697 15.9769 8.85044 15.9441 8.85044C14.4426 9.27251 13.8748 10.8034 13.7292 11.0902C13.5588 11.4486 13.4736 11.9862 13.8144 11.9862C14.087 11.9862 14.3823 11.7472 14.4959 11.6278C14.8367 11.0902 15.6034 10.4631 16.1146 10.3735C15.0169 11.0902 13.965 13.5077 14.0095 12.85C13.7221 13.746 13.441 14.8704 13.3882 15.4802C13.303 16.4658 13.5586 18.3472 13.6438 18.4368C13.6522 18.4456 13.6966 18.4526 13.7702 18.4582C14.4462 18.5088 17.5795 18.428 17.7331 18.3472C17.7659 18.3299 17.8019 18.3127 17.8392 18.2948C17.9956 18.2198 18.1755 18.1335 18.2443 17.9888C18.3295 17.8096 18.3295 16.9137 18.2443 16.6449C18.1953 16.4904 17.9491 16.1877 17.7487 15.9413C17.6006 15.7593 17.4775 15.6079 17.4775 15.5698C17.4775 15.4982 17.7047 15.1219 17.8183 14.9427C18.0739 15.3011 20.4593 16.8241 20.8853 16.9137C21.3113 17.0033 23.148 17.0386 23.1415 16.9137C23.1003 16.128 23.9121 16.5941 23.9829 16.6428C24.1198 16.7665 23.96 16.9904 23.9274 17.0306C24.0126 17.1201 24.3289 17.3028 24.397 17.2311C24.4652 17.1594 24.6449 16.9137 24.6612 16.7197C24.6328 16.5405 24.4779 16.2799 24.3416 16.2083C24.1712 16.1187 23.4411 16.1074 23.1003 16.1074Z" fill="#555555"/>
<path d="M16.1146 10.3735C15.6034 10.4631 14.8367 11.0902 14.4959 11.6278C14.366 11.8327 14.1866 12.298 14.0095 12.85C13.965 13.5077 15.0169 11.0902 16.1146 10.3735Z" fill="#2A2A2A"/>
<path d="M4.59432 9.50586C8.53902 9.50586 14.1256 9.50586 14.233 9.50586M1.17969 13.5468H8.49676M1.88779 17.4999H5.56993" stroke="#555555" stroke-width="0.2"/>
<defs>
<linearGradient id="paint0_linear_11582_39738" x1="8.32994" y1="14.1074" x2="8.32994" y2="19.0267" gradientUnits="userSpaceOnUse">
<stop stop-color="#E6F3F8"/>
<stop offset="1" stop-color="#1E7291"/>
</linearGradient>
</defs>
</svg>
