<svg width="42" height="40" viewBox="0 0 42 40" fill="none" xmlns="http://www.w3.org/2000/svg">
<circle r="20" transform="matrix(-1 0 0 1 20.5 20)" fill="#E6F3F8"/>
<g style="mix-blend-mode:multiply">
<ellipse cx="20.75" cy="35" rx="19.5" ry="1" fill="#BFBFBF"/>
</g>
<mask id="path-3-outside-1_11977_231115" maskUnits="userSpaceOnUse" x="4.66797" y="15" width="31" height="20" fill="black">
<rect fill="white" x="4.66797" y="15" width="31" height="20"/>
<path d="M25.629 16V21.625L27.5121 19.825L29.3952 21.625V16H25.629Z"/>
<path d="M24.1225 31.3C24.1225 31.5485 24.3192 31.75 24.5619 31.75H30.4623C30.705 31.75 30.9017 31.5485 30.9017 31.3V30.4C30.9017 30.1515 30.705 29.95 30.4623 29.95H24.5619C24.3192 29.95 24.1225 30.1515 24.1225 30.4V31.3Z"/>
<path d="M5.66797 16.9V33.1C5.66797 33.5971 6.06142 34 6.54676 34H19.2892C19.7745 34 20.168 33.5971 20.168 33.1V16.9C20.168 16.4029 19.7745 16 19.2892 16H6.54676C6.06142 16 5.66797 16.4029 5.66797 16.9Z"/>
<path fill-rule="evenodd" clip-rule="evenodd" d="M34.668 33.1V16.9C34.668 16.4029 34.2745 16 33.7892 16H29.3952V21.625L27.5121 19.825L25.629 21.625V16H21.0468C20.5614 16 20.168 16.4029 20.168 16.9V33.1C20.168 33.5971 20.5614 34 21.0468 34H33.7892C34.2745 34 34.668 33.5971 34.668 33.1ZM30.4623 31.75H24.5619C24.3192 31.75 24.1225 31.5485 24.1225 31.3V30.4C24.1225 30.1515 24.3192 29.95 24.5619 29.95H30.4623C30.705 29.95 30.9017 30.1515 30.9017 30.4V31.3C30.9017 31.5485 30.705 31.75 30.4623 31.75Z"/>
<path d="M20.168 16H19.2892C19.7745 16 20.168 16.4029 20.168 16.9C20.168 16.4029 20.5614 16 21.0468 16H20.168Z"/>
<path d="M20.168 34H21.0468C20.5614 34 20.168 33.5971 20.168 33.1C20.168 33.5971 19.7745 34 19.2892 34H20.168Z"/>
</mask>
<path d="M25.629 16V21.625L27.5121 19.825L29.3952 21.625V16H25.629Z" fill="#018ABE"/>
<path d="M24.1225 31.3C24.1225 31.5485 24.3192 31.75 24.5619 31.75H30.4623C30.705 31.75 30.9017 31.5485 30.9017 31.3V30.4C30.9017 30.1515 30.705 29.95 30.4623 29.95H24.5619C24.3192 29.95 24.1225 30.1515 24.1225 30.4V31.3Z" fill="#018ABE"/>
<path d="M5.66797 16.9V33.1C5.66797 33.5971 6.06142 34 6.54676 34H19.2892C19.7745 34 20.168 33.5971 20.168 33.1V16.9C20.168 16.4029 19.7745 16 19.2892 16H6.54676C6.06142 16 5.66797 16.4029 5.66797 16.9Z" fill="#018ABE"/>
<path fill-rule="evenodd" clip-rule="evenodd" d="M34.668 33.1V16.9C34.668 16.4029 34.2745 16 33.7892 16H29.3952V21.625L27.5121 19.825L25.629 21.625V16H21.0468C20.5614 16 20.168 16.4029 20.168 16.9V33.1C20.168 33.5971 20.5614 34 21.0468 34H33.7892C34.2745 34 34.668 33.5971 34.668 33.1ZM30.4623 31.75H24.5619C24.3192 31.75 24.1225 31.5485 24.1225 31.3V30.4C24.1225 30.1515 24.3192 29.95 24.5619 29.95H30.4623C30.705 29.95 30.9017 30.1515 30.9017 30.4V31.3C30.9017 31.5485 30.705 31.75 30.4623 31.75Z" fill="#B3DCEB"/>
<path d="M20.168 16H19.2892C19.7745 16 20.168 16.4029 20.168 16.9C20.168 16.4029 20.5614 16 21.0468 16H20.168Z" fill="white"/>
<path d="M20.168 34H21.0468C20.5614 34 20.168 33.5971 20.168 33.1C20.168 33.5971 19.7745 34 19.2892 34H20.168Z" fill="#1E7291"/>
<path d="M25.629 16H25.929V15.7H25.629V16ZM25.629 21.625H25.329V22.3268L25.8363 21.8419L25.629 21.625ZM27.5121 19.825L27.7194 19.6081L27.5121 19.41L27.3048 19.6081L27.5121 19.825ZM29.3952 21.625L29.1879 21.8419L29.6952 22.3268V21.625H29.3952ZM33.7892 33.7H20.168V34.3H33.7892V33.7ZM20.168 33.7H6.54676V34.3H20.168V33.7ZM6.54676 16.3H20.168V15.7H6.54676V16.3ZM20.168 16.3H25.629V15.7H20.168V16.3ZM25.329 16V21.625H25.929V16H25.329ZM25.8363 21.8419L27.7194 20.0419L27.3048 19.6081L25.4217 21.4081L25.8363 21.8419ZM27.3048 20.0419L29.1879 21.8419L29.6025 21.4081L27.7194 19.6081L27.3048 20.0419ZM29.6952 21.625V16H29.0952V21.625H29.6952ZM24.5619 32.05H30.4623V31.45H24.5619V32.05ZM31.2017 31.3V30.4H30.6017V31.3H31.2017ZM30.4623 29.65H24.5619V30.25H30.4623V29.65ZM23.8225 30.4V31.3H24.4225V30.4H23.8225ZM24.5619 29.65C24.1468 29.65 23.8225 29.9926 23.8225 30.4H24.4225C24.4225 30.3104 24.4916 30.25 24.5619 30.25V29.65ZM31.2017 30.4C31.2017 29.9926 30.8774 29.65 30.4623 29.65V30.25C30.5326 30.25 30.6017 30.3104 30.6017 30.4H31.2017ZM24.5619 31.45C24.4916 31.45 24.4225 31.3896 24.4225 31.3H23.8225C23.8225 31.7074 24.1468 32.05 24.5619 32.05V31.45ZM30.4623 32.05C30.8774 32.05 31.2017 31.7074 31.2017 31.3H30.6017C30.6017 31.3896 30.5326 31.45 30.4623 31.45V32.05ZM19.2892 16.3C19.6021 16.3 19.868 16.5618 19.868 16.9H20.468C20.468 16.244 19.9469 15.7 19.2892 15.7V16.3ZM19.868 33.1C19.868 33.4382 19.6021 33.7 19.2892 33.7V34.3C19.9469 34.3 20.468 33.756 20.468 33.1H19.868ZM20.468 16.9C20.468 16.5618 20.7338 16.3 21.0468 16.3V15.7C20.389 15.7 19.868 16.244 19.868 16.9H20.468ZM21.0468 33.7C20.7338 33.7 20.468 33.4382 20.468 33.1H19.868C19.868 33.756 20.389 34.3 21.0468 34.3V33.7ZM19.868 16.9V33.1H20.468V16.9H19.868ZM34.068 16.9V33.1H35.268V16.9H34.068ZM6.26797 33.1V16.9H5.06797V33.1H6.26797ZM25.629 16.6H29.3952V15.4H25.629V16.6ZM29.3952 16.6H33.7892V15.4H29.3952V16.6ZM5.06797 33.1C5.06797 33.9149 5.71663 34.6 6.54676 34.6V33.4C6.4062 33.4 6.26797 33.2793 6.26797 33.1H5.06797ZM34.068 33.1C34.068 33.2793 33.9297 33.4 33.7892 33.4V34.6C34.6193 34.6 35.268 33.9149 35.268 33.1H34.068ZM6.26797 16.9C6.26797 16.7207 6.4062 16.6 6.54676 16.6V15.4C5.71663 15.4 5.06797 16.0851 5.06797 16.9H6.26797ZM35.268 16.9C35.268 16.0851 34.6193 15.4 33.7892 15.4V16.6C33.9297 16.6 34.068 16.7207 34.068 16.9H35.268ZM21.0468 16.6H25.629V15.4H21.0468V16.6ZM21.0468 15.4H20.168V16.6H21.0468V15.4ZM6.54676 16.6H19.2892V15.4H6.54676V16.6ZM21.0468 34.6H33.7892V33.4H21.0468V34.6ZM6.54676 34.6H19.2892V33.4H6.54676V34.6ZM20.168 15.4H19.2892V16.6H20.168V15.4ZM20.168 34.6H21.0468V33.4H20.168V34.6ZM19.2892 34.6H20.168V33.4H19.2892V34.6Z" fill="url(#paint0_linear_11977_231115)" mask="url(#path-3-outside-1_11977_231115)"/>
<circle cx="35.001" cy="33.5" r="6" fill="#E6F3F8" stroke="white"/>
<path d="M32 33.5L34 35.5L38 31.5" stroke="#555555" stroke-width="0.7" stroke-linecap="round" stroke-linejoin="round"/>
<defs>
<linearGradient id="paint0_linear_11977_231115" x1="20.168" y1="16" x2="20.168" y2="34" gradientUnits="userSpaceOnUse">
<stop stop-color="white"/>
<stop offset="1" stop-color="#1E7291"/>
</linearGradient>
</defs>
</svg>
