<svg width="397" height="340" viewBox="0 0 397 340" fill="none" xmlns="http://www.w3.org/2000/svg">
    <path fill-rule="evenodd" clip-rule="evenodd" d="M269.997 215.203L254.337 338.509L262.547 338.401L278.208 216.358L269.997 215.203Z" fill="#C5C5C5" />
    <path fill-rule="evenodd" clip-rule="evenodd" d="M276.653 215.203L292.313 338.509L284.103 338.401L268.443 216.358L276.653 215.203Z" fill="#C3C3C3" />
    <path fill-rule="evenodd" clip-rule="evenodd" d="M324.394 215.203L340.055 338.509L331.844 338.401L316.184 216.358L324.394 215.203Z" fill="#C3C3C3" />
    <path fill-rule="evenodd" clip-rule="evenodd" d="M216.599 234.586C210.475 234.586 205.511 229.621 205.511 223.498V219.909C205.511 213.786 210.475 208.821 216.599 208.821H273.84C279.56 208.821 284.341 204.47 284.879 198.775L293.833 103.902C294.37 98.2075 299.152 93.8562 304.872 93.8562H345.439C351.899 93.8562 356.991 99.356 356.494 105.797L347.354 224.35C346.909 230.126 342.092 234.586 336.299 234.586H216.599Z" fill="#C5C5C5" />
    <path fill-rule="evenodd" clip-rule="evenodd" d="M343.421 93.8562L334.336 211.362C333.889 217.137 329.073 221.595 323.281 221.595H205.511V219.583C205.511 213.459 210.475 208.495 216.599 208.495H273.651C279.37 208.495 284.151 204.145 284.69 198.451L293.639 103.899C294.178 98.2059 298.959 93.8562 304.678 93.8562H343.421Z" fill="#B2B0B0" />
    <path fill-rule="evenodd" clip-rule="evenodd" d="M215.782 298.38C215.782 298.38 222.565 314.644 217.004 318.955C211.435 323.268 200.605 333.931 200.605 333.931L235.696 326.32L227.034 296.481L215.782 298.38Z" fill="url(#paint0_linear_1648:44546)" />
    <path fill-rule="evenodd" clip-rule="evenodd" d="M217.797 309.09C217.797 309.09 218.659 316.722 216.17 319.327C213.682 321.93 200.208 331.844 199.153 333.725C198.098 335.607 199.985 337.683 199.985 337.683C199.985 337.683 214.538 338.948 221.083 334.971C225.809 332.098 232.856 326.94 232.856 326.94L234.722 332.012L240.013 331.796C240.013 331.796 240.714 325.546 239.458 322.55C238.203 319.553 231.737 304.3 231.737 304.3C231.737 304.3 229.248 306.535 226.603 307.662C223.959 308.787 220.646 311.87 220.646 311.87L217.797 309.09Z" fill="#323740" />
    <path fill-rule="evenodd" clip-rule="evenodd" d="M274.487 177.793C262.689 178.319 197.024 192.824 185.093 195.288C173.163 197.752 163.077 211.087 172.174 226.527C182.392 243.859 208.756 293.083 215.157 304.18C218.325 309.672 234.308 306.592 230.554 297.374C223.555 280.19 220.305 237.021 202.461 221.281C202.461 221.281 262.469 231.711 288.389 219.764C307.228 211.079 302.966 176.521 274.487 177.793Z" fill="#42474F" />
    <path fill-rule="evenodd" clip-rule="evenodd" d="M192.185 101.661C192.185 101.661 192.318 92.0742 188.96 87.0639C185.602 82.0536 185.469 76.7316 182.927 76.9058C180.386 77.08 182.902 89.4503 182.902 89.4503C182.902 89.4503 179.678 88.22 177.361 86.6638C175.045 85.1076 168.021 77.4359 166.379 78.7954C163.596 81.1117 168.079 94.178 170.52 96.7903C172.97 99.4034 186.352 107.996 186.352 107.996L219.129 141.468L225.283 124.464L192.185 101.661Z" fill="#FFE0D1" />
    <path fill-rule="evenodd" clip-rule="evenodd" d="M264.689 98.4994C259.2 111.212 249.151 134.566 245.009 141.533C239.817 150.259 231.63 154.103 222.045 147.629C219.5 145.91 211.748 139.344 211.748 139.344L221.129 118.725L227.214 123.74C227.214 123.74 237.514 97.372 245.799 82.0973C252.975 68.8821 273.043 79.1731 264.689 98.4994Z" fill="#FFB66F" />
    <path fill-rule="evenodd" clip-rule="evenodd" d="M227.106 123.754C227.106 123.754 224.34 133.125 223.693 132.582C223.047 132.039 224.188 121.305 224.188 121.305L227.106 123.754Z" fill="black" fill-opacity="0.159856" />
    <path fill-rule="evenodd" clip-rule="evenodd" d="M223.46 119.866L215.615 146.105L207.282 139.574L218.88 116.312L223.46 119.866Z" fill="#FFEDC2" />
    <path fill-rule="evenodd" clip-rule="evenodd" d="M274.637 9.79624C274.637 9.79624 278.759 2.99934 285.295 3.50978C291.831 4.02023 299.762 13.9795 299.347 25.0138C298.945 36.0467 301.378 37.7824 306.066 44.1635C318.667 61.3316 299.194 81.4297 299.194 81.4297L273.318 81.4365L272.332 33.3078L274.637 9.79624Z" fill="#42474F" />
    <path fill-rule="evenodd" clip-rule="evenodd" d="M284.902 13.7736C302.535 25.81 292.429 39.7779 290.664 43.0575C287.271 66.9211 294.266 68.1466 304.82 73.4791L301.149 80.0398L286.023 77.1928L273.265 14.9785L284.902 13.7736Z" fill="black" fill-opacity="0.199355" />
    <path fill-rule="evenodd" clip-rule="evenodd" d="M293.221 71.8623C293.221 71.8623 284.233 70.0583 283.966 57.4671C283.699 44.8759 285.18 40.5779 285.18 40.5779L268.231 40.2725C268.231 40.2725 268.047 54.3052 268.044 59.3808C268.037 71.7221 258.525 73.1536 258.525 73.1536C258.525 73.1536 260.503 82.9161 275.86 83.7785C287.851 84.4529 293.221 71.8623 293.221 71.8623Z" fill="#F9C7B0" />
    <path fill-rule="evenodd" clip-rule="evenodd" d="M284.552 13.3624C285.168 6.09995 273.183 4.33393 270.964 9.94332C270.964 9.94332 270.354 14.9423 274.255 16.8931C279.53 19.521 284.552 13.3624 284.552 13.3624Z" fill="#FB9934" />
    <path fill-rule="evenodd" clip-rule="evenodd" d="M286.152 32.0691C293.486 30.2113 294.578 41.28 286.893 42.8983C286.893 42.8983 285.695 59.2062 270.203 62.4992C257.622 65.1734 252.998 47.4456 252.125 43.8987C251.193 40.1171 248.518 27.6109 248.518 27.6109L283.903 20.0726L286.152 32.0691Z" fill="#FFE0D1" />
    <path fill-rule="evenodd" clip-rule="evenodd" d="M283.688 39.5615C282.356 39.4853 280.531 32.5758 280.531 32.5758C276.605 32.6297 275.761 31.921 271.922 27.8609C259.849 33.2409 251.438 35.888 252.294 45.3718C252.294 45.3718 238.258 26.0371 253.284 14.9107C266.503 5.13356 283.276 8.11442 288.445 19.1837C292.101 26.9958 291.196 33.4962 291.196 33.4962C291.196 33.4962 288.63 30.8543 285.645 32.2849C282.66 33.7154 285.021 39.6376 283.688 39.5615Z" fill="#42474F" />
    <path d="M270.996 51.5459C270.996 51.5459 267.969 55.4506 263.075 53.4371" stroke="#F77B7B" stroke-width="1.5" stroke-linecap="round" />
    <path d="M269.329 55.677C268.293 56.4501 267.196 56.7236 266.097 56.4058" stroke="#F49494" stroke-linecap="round" />
    <path d="M286.633 38.0438C286.188 36.3256 286.425 34.8356 288.138 34.1824" stroke="#F77B7B" stroke-linecap="round" />
    <path fill-rule="evenodd" clip-rule="evenodd" d="M262.068 71.4711C261.862 71.4612 254.614 74.6371 253.779 75.8615C248.342 83.838 238.359 111.913 237.845 118.003C237.266 125.028 247.394 136.219 247.518 146.389C247.628 156.561 243.186 187.186 244.909 190.046C246.619 192.907 257.855 206.496 260.198 206.552C262.556 206.607 264.315 199.473 267.886 199.628C271.443 199.783 278.86 209.242 282.059 209.174C285.243 209.105 318.248 188.197 315.725 182.24C313.188 176.283 301.415 161.479 302.614 153.362C303.8 145.246 313.271 115.288 316.69 105.091C320.095 94.895 322.839 86.7726 316.483 82.3851C310.128 77.9976 289.448 69.9722 289.448 69.9722L270.933 80.3292C270.933 80.3292 263.143 71.5229 262.068 71.4711Z" fill="#FF9F43" />
    <path fill-rule="evenodd" clip-rule="evenodd" d="M268.652 80.041C263.099 98.5076 255.477 116.703 252.425 134.019L261.303 129.236L269.492 135.441C268.914 117.438 271.937 98.5355 273.326 80.041H268.652Z" fill="#FFF6E1" />
    <path fill-rule="evenodd" clip-rule="evenodd" d="M301.086 94.2205L301.297 95.7138C303.785 114.258 300.841 136.761 295.739 140.194C290.531 143.699 270.26 140.26 270.26 143.035C270.26 145.811 298.273 171.246 293.674 183.405C291.146 190.091 291.992 196.036 296.214 201.242L297.44 200.418C307.008 193.929 317.166 185.643 315.725 182.24C313.188 176.283 301.414 161.478 302.614 153.362C303.752 145.571 312.526 117.649 316.251 106.407L317.438 102.842C318.817 98.6631 319.965 94.8773 320.242 91.6108L319.386 91.0557C305.704 82.2851 299.604 83.3403 301.086 94.2205Z" fill="black" fill-opacity="0.159856" />
    <path fill-rule="evenodd" clip-rule="evenodd" d="M292.866 71.2799L289.449 69.9722L270.527 79.7932C270.527 79.7932 274.085 88.8468 280.386 84.3384C285.786 80.4832 283.508 77.0906 287.741 75.3406C291.96 73.5906 292.866 71.2799 292.866 71.2799Z" fill="#FFF6E1" />
    <path fill-rule="evenodd" clip-rule="evenodd" d="M270.527 79.7932C269.156 82.8396 266.367 84.6197 264.926 84.0663C262.546 83.1523 263.568 79.5105 262.63 77.6708C261.958 76.3656 261.524 76.1686 260.937 74.9431C260.391 73.819 260.368 72.4697 260.508 72.0974L262.37 71.2515C262.37 71.2515 264.928 73.6638 266.118 74.9431C267.601 76.5373 270.527 79.7932 270.527 79.7932Z" fill="#FFF6E1" />
    <path fill-rule="evenodd" clip-rule="evenodd" d="M291.358 128.705C291.358 128.705 280.218 118.859 276.808 117.716C273.397 116.573 253.425 115.201 253.551 117.783C253.694 120.549 264.422 120.39 265.533 121.751C266.645 123.111 266.897 132.413 271.099 133.457C275.292 134.501 287.863 136.302 287.863 136.302L317.934 154.414L319.219 137.865L291.358 128.705Z" fill="#FFE0D1" />
    <path fill-rule="evenodd" clip-rule="evenodd" d="M320.995 87.0145C332.731 103.557 342.751 128.755 346.598 138.579C350.444 148.404 346.564 163.221 329.651 160.312C326.795 159.821 320.389 157.851 320.389 157.851L316.347 135.098L321.56 137.284C321.56 137.284 304.75 107.527 300.646 99.5503C293.789 86.228 310.657 72.4389 320.995 87.0145Z" fill="#FFB66F" />
    <path fill-rule="evenodd" clip-rule="evenodd" d="M321.56 137.285C321.56 137.285 330.098 141.45 329.025 139.618C327.951 137.785 318.339 131.498 318.339 131.498L321.56 137.285Z" fill="black" fill-opacity="0.159856" />
    <path fill-rule="evenodd" clip-rule="evenodd" d="M320.745 136.233L323.537 160.836L312.496 157.331L314.162 133.22L320.745 136.233Z" fill="#FFEDC2" />
    <path fill-rule="evenodd" clip-rule="evenodd" d="M174.801 298.929C174.801 298.929 175.006 315.032 161.719 321.053C148.441 327.073 138.981 326.711 140.185 331.365C141.389 336.019 175.951 335.831 179.178 332.191C181.929 329.095 187.911 300.261 189.559 302.465L174.801 298.929Z" fill="url(#paint1_linear_1648:44546)" />
    <path fill-rule="evenodd" clip-rule="evenodd" d="M187.194 311.623C187.194 311.623 184.402 318.461 184.156 322.606C183.909 326.752 177.553 338.536 177.553 338.536L172.531 339.166L172.073 334.893C172.073 334.893 164.804 337.987 160.244 338.48C155.686 338.975 140.047 337.119 136.937 334.537C133.826 331.957 135.398 328.323 144.375 326.108C153.35 323.894 167.297 317.423 169.95 312.739C172.604 308.054 172.62 308.175 172.62 308.175L172.567 315.981C172.567 315.981 174.865 311.873 177.576 311.324C180.288 310.777 187.194 311.623 187.194 311.623Z" fill="#323740" />
    <path fill-rule="evenodd" clip-rule="evenodd" d="M310.16 172.815C310.16 172.815 332.485 206.409 305.794 221.414C283 234.228 212.698 219.219 212.698 219.219C212.698 219.219 213.945 229.245 212.698 238.188C209.441 261.544 193.951 300.456 190.674 305.345C186.142 312.107 172.337 307.008 172.077 301.378C171.817 295.748 182.484 223.843 184.106 210.132C185.72 196.419 190.815 194.427 205.696 190.679C209.114 189.818 249.542 179.784 253.246 180.076C285.067 182.589 310.16 172.815 310.16 172.815Z" fill="#42474F" />
    <path opacity="0.439941" fill-rule="evenodd" clip-rule="evenodd" d="M293.944 217.68C270.865 220.263 209.765 214.939 207.311 217.358C204.968 219.668 205.359 259.85 200.103 283.105C205.281 269.014 210.885 251.19 212.698 238.188C213.945 229.245 212.698 219.218 212.698 219.218L215.085 219.694C227.542 222.111 285.289 232.486 305.794 221.414C317.821 214.92 322.474 204.865 319.754 191.25C316.474 207.312 307.87 216.122 293.944 217.68Z" fill="white" fill-opacity="0.192499" />
    <ellipse rx="3.87872" ry="7.10264" transform="matrix(-0.97437 0.224951 0.224951 0.97437 174.265 211.972)" fill="white" fill-opacity="0.192499" />
    <ellipse rx="5.17146" ry="7.74859" transform="matrix(-0.961262 -0.275637 -0.275637 0.961262 192.367 207.453)" fill="white" fill-opacity="0.192499" />
    <path d="M132.47 80.8379C131.639 79.2963 132.636 77.4041 134.378 77.2184L172.379 73.168C173.355 73.064 174.3 73.5496 174.784 74.4042L199.027 117.223C199.868 118.708 198.981 120.577 197.299 120.865L159.457 127.356C158.414 127.535 157.373 127.028 156.871 126.097L132.47 80.8379Z" fill="#018ABE" />
    <path fill-rule="evenodd" clip-rule="evenodd" d="M134.121 80.7222C133.327 79.2273 134.241 77.3946 135.914 77.1313L172.979 71.2982C174.017 71.1348 175.044 71.6477 175.537 72.5754L198.845 116.412C199.64 117.906 198.725 119.739 197.053 120.002L159.988 125.836C158.95 125.999 157.923 125.486 157.43 124.558L134.121 80.7222Z" fill="url(#paint2_linear_1648:44546)" />
    <path d="M135.937 79.854L173.768 73.4318L197.041 117.203L159.392 122.909L135.937 79.854Z" fill="white" />
    <path d="M145.33 74.0165C145.04 73.5238 145.346 72.8947 145.912 72.8179L161.299 70.7328C161.938 70.6462 162.566 70.9513 162.893 71.5066L165.861 76.5502C166.152 77.0429 165.846 77.672 165.279 77.7487L149.893 79.8339C149.254 79.9204 148.626 79.6154 148.299 79.06L145.33 74.0165Z" fill="#018ABE" />
    <path fill-rule="evenodd" clip-rule="evenodd" d="M165.462 86.209C165.966 85.9412 166.591 86.1324 166.859 86.636C167.108 87.1037 166.961 87.6763 166.535 87.9701L166.432 88.0328L149.596 90.8584C149.092 91.1262 148.467 90.935 148.199 90.4314C147.95 89.9638 148.097 89.3911 148.523 89.0973L148.626 89.0346L165.462 86.209Z" fill="#81C0D8" />
    <path fill-rule="evenodd" clip-rule="evenodd" d="M170.311 95.3279C170.815 95.0601 171.44 95.2513 171.708 95.7549C171.956 96.2226 171.809 96.7952 171.384 97.089L171.281 97.1517L154.444 99.9773C153.941 100.245 153.315 100.054 153.047 99.5503C152.799 99.0827 152.946 98.51 153.371 98.2162L153.475 98.1535L170.311 95.3279Z" fill="#81C0D8" />
    <path fill-rule="evenodd" clip-rule="evenodd" d="M175.161 104.447C175.664 104.179 176.29 104.37 176.557 104.874C176.806 105.341 176.659 105.914 176.233 106.208L176.13 106.271L159.294 109.096C158.79 109.364 158.165 109.173 157.897 108.669C157.648 108.202 157.795 107.629 158.221 107.335L158.324 107.272L175.161 104.447Z" fill="#81C0D8" />
    <path fill-rule="evenodd" clip-rule="evenodd" d="M132.47 173.982H158.518V339.503H132.47V173.982Z" fill="#C5C5C5" />
    <path fill-rule="evenodd" clip-rule="evenodd" d="M132.47 167.479H148.098V339.503H132.47V167.479Z" fill="#DBDBDB" />
    <path fill-rule="evenodd" clip-rule="evenodd" d="M13.9619 173.982H142.898V223.627H40.0097V339.503H13.9619V173.982Z" fill="#C5C5C5" />
    <path fill-rule="evenodd" clip-rule="evenodd" d="M13.9619 173.982H29.5906V339.503H13.9619V173.982Z" fill="#DBDBDB" />
    <path fill-rule="evenodd" clip-rule="evenodd" d="M336.403 173.982H362.451V339.503H336.403V173.982Z" fill="#C5C5C5" />
    <path fill-rule="evenodd" clip-rule="evenodd" d="M217.896 173.982H346.833V235.435H243.944V339.503H217.896V173.982Z" fill="#C5C5C5" />
    <path fill-rule="evenodd" clip-rule="evenodd" d="M34.79 167.479L233.373 167.479V235.314H34.79V167.479Z" fill="#DBDBDB" />
    <path fill-rule="evenodd" clip-rule="evenodd" d="M213.989 173.982H229.618V235.315H213.989V173.982Z" fill="#C3C3C3" />
    <path fill-rule="evenodd" clip-rule="evenodd" d="M217.896 173.982H233.525V339.503H217.896V173.982Z" fill="#DBDBDB" />
    <path fill-rule="evenodd" clip-rule="evenodd" d="M223.168 177.234C223.168 171.847 227.535 167.479 232.922 167.479L367.034 167.479C372.421 167.479 376.788 171.847 376.788 177.234C376.788 182.621 372.421 186.988 367.034 186.988H232.922C227.535 186.988 223.168 182.621 223.168 177.234Z" fill="#C5C5C5" />
    <path fill-rule="evenodd" clip-rule="evenodd" d="M19.3125 171.381H217.896V190.889H19.3125V171.381Z" fill="#C3C3C3" />
    <path fill-rule="evenodd" clip-rule="evenodd" d="M0.0371094 177.233C0.0371094 171.846 4.40417 167.479 9.79121 167.479H236.794C242.181 167.479 246.549 171.846 246.549 177.233C246.549 182.62 242.181 186.987 236.794 186.987H9.79122C4.40418 186.987 0.0371094 182.62 0.0371094 177.233Z" fill="#DBDBDB" />
    <path fill-rule="evenodd" clip-rule="evenodd" d="M265.442 149.994H271.98C273.242 149.994 274.266 150.966 274.266 152.165V155.139C274.266 157.981 271.84 160.285 268.848 160.285H265.442C264.901 160.285 264.463 159.869 264.463 159.355C264.463 158.841 264.901 158.424 265.442 158.424H268.848C270.758 158.424 272.306 156.953 272.306 155.139V152.165C272.306 151.994 272.16 151.855 271.98 151.855H265.442C264.901 151.855 264.463 151.438 264.463 150.924C264.463 150.41 264.901 149.994 265.442 149.994Z" fill="#5BBDE2" />
    <path fill-rule="evenodd" clip-rule="evenodd" d="M243.734 147.626C242.291 147.626 241.122 148.737 241.122 150.108V156.312C241.122 160.779 244.672 164.458 249.238 164.944L249.239 166.239H260.675L260.675 164.915C265.126 164.33 268.554 160.701 268.554 156.312V150.108C268.554 148.737 267.384 147.626 265.941 147.626H243.734Z" fill="#018ABE" />
    <path fill-rule="evenodd" clip-rule="evenodd" d="M269.041 165.638C269.041 165.285 268.755 164.998 268.401 164.998H242.249C241.896 164.998 241.609 165.285 241.609 165.638C241.609 165.976 241.872 166.255 242.209 166.277L251.857 166.886H258.715L268.441 166.276C268.778 166.255 269.041 165.976 269.041 165.638Z" fill="#5BBDE2" />
    <path fill-rule="evenodd" clip-rule="evenodd" d="M92.1582 165.148C92.1582 164.164 92.9558 163.366 93.9397 163.366H219.403C220.387 163.366 221.185 164.164 221.185 165.148C221.185 166.132 220.387 166.929 219.403 166.929H93.9397C92.9558 166.929 92.1582 166.132 92.1582 165.148Z" fill="#5BBDE2" />
    <path fill-rule="evenodd" clip-rule="evenodd" d="M177.151 165.148C177.151 164.164 177.949 163.366 178.933 163.366H219.402C220.386 163.366 221.183 164.164 221.183 165.148C221.183 166.132 220.386 166.929 219.402 166.929H178.933C177.949 166.929 177.151 166.132 177.151 165.148Z" fill="#018ABE" />
    <path fill-rule="evenodd" clip-rule="evenodd" d="M85.9199 113.634C85.6423 111.481 87.3194 109.573 89.4903 109.573H169.853C171.663 109.573 173.192 110.918 173.423 112.713L179.449 159.46C179.727 161.613 178.049 163.52 175.878 163.52H95.5163C93.706 163.52 92.1773 162.176 91.9459 160.38L85.9199 113.634Z" fill="#018ABE" />
    <path fill-rule="evenodd" clip-rule="evenodd" d="M85.9199 113.634C85.6423 111.481 87.3194 109.573 89.4903 109.573H167.071C168.881 109.573 170.41 110.918 170.641 112.713L176.667 159.46C176.945 161.613 175.268 163.52 173.097 163.52H95.5163C93.706 163.52 92.1773 162.176 91.9459 160.38L85.9199 113.634Z" fill="url(#paint3_linear_1648:44546)" />
    <ellipse cx="129.865" cy="137.405" rx="5.5226" ry="6.01559" transform="rotate(-37 129.865 137.405)" fill="white" />
    <path fill-rule="evenodd" clip-rule="evenodd" d="M356.239 277.654C367.007 253.337 376.789 228.363 385.744 202.838C365.117 222.247 349.076 245.892 351.361 277.654H356.239Z" fill="#57E295" />
    <path fill-rule="evenodd" clip-rule="evenodd" d="M350.501 280.193C347.952 238.73 349.032 200.222 370.391 178.233C367.445 223.758 361.934 255.828 354.954 280.193H350.501Z" fill="#28C76F" />
    <path fill-rule="evenodd" clip-rule="evenodd" d="M349.52 275.875C337.587 246.901 325.596 238.595 315.684 208.853C348.123 225.646 350.157 239.512 356.524 275.875H349.52Z" fill="#57E295" />
    <path fill-rule="evenodd" clip-rule="evenodd" d="M343.098 275.875L321.69 246.901C332.029 249.843 349.311 254.607 349.311 275.875H343.098Z" fill="#28C76F" />
    <path fill-rule="evenodd" clip-rule="evenodd" d="M363.12 275.875H370.262C374.8 266.415 381.195 259.903 396.668 267.797C386.526 252.375 365.717 247.708 363.12 275.875Z" fill="#57E295" />
    <path fill-rule="evenodd" clip-rule="evenodd" d="M356.551 275.875H362.49C373.389 260.314 378.075 253.534 389.355 240.246C374.496 245.874 359.244 253.534 356.551 275.875Z" fill="#28C76F" />
    <path fill-rule="evenodd" clip-rule="evenodd" d="M341.621 273.629H371.622C372.765 273.629 373.691 274.549 373.691 275.684V281.335C381.278 290.838 385.071 300.341 385.071 309.844C385.071 319.055 381.832 328.265 375.353 337.476C374.966 338.026 374.333 338.354 373.657 338.354H339.587C338.911 338.354 338.278 338.026 337.89 337.476C331.412 328.265 328.173 319.055 328.173 309.844C328.173 300.52 331.824 291.196 339.127 281.873L339.552 281.335V275.684C339.552 274.549 340.479 273.629 341.621 273.629Z" fill="#018ABE" />
    <mask id="mask0_1648:44546" style="mask-type:alpha" maskUnits="userSpaceOnUse" x="328" y="273" width="58" height="66">
        <path fill-rule="evenodd" clip-rule="evenodd" d="M341.621 273.629H371.622C372.765 273.629 373.691 274.549 373.691 275.684V281.335C381.278 290.838 385.071 300.341 385.071 309.844C385.071 319.055 381.832 328.265 375.353 337.476C374.966 338.026 374.333 338.354 373.657 338.354H339.587C338.911 338.354 338.278 338.026 337.89 337.476C331.412 328.265 328.173 319.055 328.173 309.844C328.173 300.52 331.824 291.196 339.127 281.873L339.552 281.335V275.684C339.552 274.549 340.479 273.629 341.621 273.629Z" fill="white" />
    </mask>
    <g mask="url(#mask0_1648:44546)">
        <path fill-rule="evenodd" clip-rule="evenodd" d="M320.932 271.85H347.829C334.952 301.618 360.352 319.247 347.829 348.903H320.932V271.85Z" fill="#369AC0" />
    </g>
    <defs>
        <linearGradient id="paint0_linear_1648:44546" x1="241.769" y1="287.364" x2="238.698" y2="331.993" gradientUnits="userSpaceOnUse">
            <stop stop-color="#FDC6C6" />
            <stop offset="1" stop-color="#FAB2B2" />
        </linearGradient>
        <linearGradient id="paint1_linear_1648:44546" x1="198.12" y1="290.174" x2="196.107" y2="333.14" gradientUnits="userSpaceOnUse">
            <stop stop-color="#FDC6C6" />
            <stop offset="1" stop-color="#FAB2B2" />
        </linearGradient>
        <linearGradient id="paint2_linear_1648:44546" x1="112.529" y1="46.8967" x2="161.992" y2="139.923" gradientUnits="userSpaceOnUse">
            <stop stop-color="#018ABE" />
            <stop offset="1" stop-color="#73CCEE" />
        </linearGradient>
        <linearGradient id="paint3_linear_1648:44546" x1="78.1594" y1="80.9241" x2="78.1594" y2="163.52" gradientUnits="userSpaceOnUse">
            <stop stop-color="#018ABE" />
            <stop offset="1" stop-color="#73CCEE" />
        </linearGradient>
    </defs>
</svg>