<svg width="422" height="720" viewBox="0 0 422 720" fill="none" xmlns="http://www.w3.org/2000/svg">
    <path d="M0 0H422V720H0V0Z" fill="#F5F6F6" />
    <mask id="mask0_1611:46643" style="mask-type:alpha" maskUnits="userSpaceOnUse" x="0" y="0" width="422" height="720">
        <path d="M0 0H422V720H0V0Z" fill="white" />
    </mask>
    <g mask="url(#mask0_1611:46643)">
        <g opacity="0.0375744" filter="url(#filter0_f_1611:46643)">
            <path fill-rule="evenodd" clip-rule="evenodd" d="M401.121 189.362C404.561 185.844 410.146 185.844 413.586 189.362L472.901 250.022C476.332 253.531 476.332 259.213 472.901 262.722L413.586 323.383C410.146 326.901 404.561 326.901 401.121 323.383L341.806 262.722C338.375 259.213 338.375 253.531 341.806 250.022L401.121 189.362Z" fill="#018ABE" />
        </g>
        <path opacity="0.0659412" fill-rule="evenodd" clip-rule="evenodd" d="M220.178 326.698C222.84 323.976 227.16 323.976 229.822 326.698L394.039 494.64C396.694 497.355 396.694 501.752 394.039 504.467L229.822 672.409C227.16 675.131 222.84 675.131 220.178 672.409L55.9611 504.467C53.3062 501.752 53.3062 497.355 55.9611 494.64L220.178 326.698Z" fill="#018ABE" />
        <path opacity="0.0895647" fill-rule="evenodd" clip-rule="evenodd" d="M112.088 204.477C116.806 199.661 116.799 191.846 112.072 187.021L-21.4368 50.7362C-26.1634 45.9113 -33.8197 45.9041 -38.5375 50.72L-171.799 186.752C-176.517 191.568 -176.51 199.384 -171.783 204.208L-38.2742 340.493C-33.5476 345.318 -25.8914 345.325 -21.1735 340.509L112.088 204.477ZM-29.9314 111.825L52.2281 195.692L-29.7791 279.404L-111.939 195.537L-29.9314 111.825Z" fill="#018ABE" />
        <path d="M444 370.627C444 368.346 442.151 366.496 439.869 366.496H244.45C242.168 366.496 240.319 368.346 240.319 370.627C240.319 372.908 242.168 374.758 244.45 374.758H439.869C442.151 374.758 444 372.908 444 370.627Z" fill="#BABFC7" />
        <path d="M191.714 262.99C188.963 272.725 195.681 282.758 203.079 284.865C210.477 286.973 215.759 280.358 218.511 270.623C221.263 260.888 217.493 251.289 210.093 249.181C202.693 247.074 194.464 253.257 191.714 262.99Z" fill="#ECC4A6" />
        <path d="M231.928 451.177C231.928 451.177 213.355 480.583 210.845 481.862C208.335 483.142 202.066 483.458 204.417 488.246C206.767 493.033 207.709 511.899 209.895 512.859C212.082 513.819 230.903 516.051 228.08 512.859C225.257 509.667 223.522 511.263 222.097 505.507C220.673 499.752 218.674 488.884 221.338 486.647C224.002 484.411 240.318 464.29 240.318 464.29L231.928 451.177Z" fill="#ECC4A6" />
        <path d="M325.958 463.569C325.958 463.569 348.53 501.594 352.711 505.012C356.892 508.43 370.682 513.56 359.399 514.413C348.115 515.266 342.68 510.569 335.572 508.43C328.465 506.292 319.69 505.012 323.034 499.459C326.378 493.905 324.988 481.779 317.778 474.087C310.569 466.395 325.958 463.569 325.958 463.569Z" fill="#ECC4A6" />
        <path fill-rule="evenodd" clip-rule="evenodd" d="M210.502 375.475C210.502 375.475 266.442 373.982 288.62 392.569C301.593 412.656 332.976 471.92 335.415 478.44C333.741 480.149 324.325 483.24 320.141 482.806C307.795 467.776 291.479 454.778 284.99 442.988C276.992 428.456 274.527 421.192 261.556 419.909C248.586 418.627 219.289 414.354 210.502 414.354C201.715 414.354 210.502 375.475 210.502 375.475Z" fill="#222425" />
        <path fill-rule="evenodd" clip-rule="evenodd" d="M161.409 514.516H164.38L185.688 425.016H179.152L161.409 514.516Z" fill="#BABFC7" />
        <path fill-rule="evenodd" clip-rule="evenodd" d="M249.762 514.516H246.841L222.784 421.573H229.217L249.762 514.516Z" fill="#BABFC7" />
        <path fill-rule="evenodd" clip-rule="evenodd" d="M178.63 372.004L211.229 377.726C211.229 377.726 254.549 378.13 274.351 381.884C292.366 385.295 295.028 406.112 274.351 434.788C262.61 451.073 252.682 464.073 232.382 478.716C227.216 474.858 225.242 473.391 223.813 464.121C225.284 462.071 229.087 449.247 230.268 446.736C241.496 422.86 256.485 414.176 256.703 411.828C254.187 407.669 190.044 433.51 177.29 418.308C165.101 403.793 178.63 372.004 178.63 372.004Z" fill="#242526" />
        <path fill-rule="evenodd" clip-rule="evenodd" d="M177.851 296.65C186.429 295.424 195.166 297.087 203.336 303.111C210.478 310.525 218.556 322.754 218.062 342.925C217.431 368.539 221.953 370.186 217.238 377.23C197.575 385.489 163.944 421.044 171.865 382.94C177.597 355.351 159.286 334.783 174.059 304.179C175.262 301.688 176.763 299.274 177.851 296.65Z" fill="#018ABE" />
        <path fill-rule="evenodd" clip-rule="evenodd" d="M218.063 352.46C218.446 365.839 220.304 369.781 218.885 373.975C210.84 374.81 196.129 378.085 192.453 383.317C188.255 389.304 184.057 390.159 186.007 385.741C187.956 381.323 193.154 375.045 185.165 353.515C177.175 331.984 173.392 317.442 181.229 302.47L218.063 352.46Z" fill="#156A8A" />
        <path d="M176.922 296.787C182.234 284.226 183.539 270.112 183.539 270.112L197.446 274.216C197.446 274.216 189.556 291.897 197.13 298.213C199.019 299.769 200.829 301.42 202.551 303.158C194.335 297.218 185.548 295.578 176.922 296.787Z" fill="#ECC4A6" />
        <path d="M183.533 272.709C184.355 271.978 185.372 271.066 186.468 270.112L197.805 273.456L197.829 273.516C197.566 274.143 194.676 280.855 194.29 287.323C190.911 285.279 187.214 281.948 182.991 276.127C183.209 274.835 183.391 273.682 183.533 272.709Z" fill="#E38540" />
        <path d="M187.058 300.809C201.347 305.899 199.762 321.282 212.915 343.935C219.721 355.665 226.034 355.491 226.034 355.491C237.825 355.429 249.602 354.668 261.306 353.211C273.396 351.703 274.162 355.376 265.766 358.445C248.806 364.636 231.208 371.303 217.016 369.696C202.824 368.089 178.557 331.123 177.305 321.502C175.574 308.202 179.861 298.24 187.058 300.809Z" fill="#F09959" />
        <path fill-rule="evenodd" clip-rule="evenodd" d="M194.423 429.147C195.307 429.147 196.21 429.147 197.138 429.112C208.717 428.818 216.597 427.175 222.93 425.857C230.324 424.316 234.406 423.465 239.138 425.79C240.958 426.681 243.138 425.891 244.008 424.024C244.877 422.158 244.106 419.922 242.286 419.031C235.338 415.628 229.524 416.84 221.477 418.517C215.423 419.777 207.892 421.347 196.958 421.625C184.72 421.938 177.257 420.076 173.483 415.775C170.113 411.942 169.127 405.504 170.382 395.511C170.809 392.093 171.24 389.25 171.618 386.738C172.685 379.661 173.389 374.969 172.515 367.747C171.707 361.034 169.537 352.089 164.515 334.749C164.143 333.467 163.131 332.486 161.862 332.175C160.592 331.865 159.258 332.273 158.361 333.245C157.465 334.217 157.142 335.606 157.515 336.889C166.871 369.203 166.383 372.351 164.398 385.596C164.015 388.151 163.579 391.045 163.138 394.559C161.591 406.882 163.156 415.216 168.06 420.793C173.102 426.531 181.292 429.147 194.423 429.147Z" fill="#BABFC7" />
        <path fill-rule="evenodd" clip-rule="evenodd" d="M324.736 495.927C339.848 503.292 347.983 507.512 352.826 507.111C353.971 507.016 354.931 506.898 355.721 506.775C361.111 509.948 369.712 513.702 360.034 514.415C348.646 515.254 343.164 510.633 335.992 508.53C328.82 506.426 319.967 505.167 323.341 499.704C324.025 498.537 324.497 497.258 324.736 495.927Z" fill="#242526" />
        <path fill-rule="evenodd" clip-rule="evenodd" d="M209.844 482.158C210.209 494.372 211.824 506.475 219.023 508.756C220.695 509.303 222.462 509.467 224.201 509.234C225.332 510.688 226.714 510.704 228.568 512.842C231.369 516.066 212.702 513.812 210.525 512.842C208.348 511.872 207.418 492.824 205.088 487.98C203.17 484.007 207.027 483.077 209.844 482.158Z" fill="#242526" />
        <path fill-rule="evenodd" clip-rule="evenodd" d="M266.938 367.873H314.99C316.424 367.872 317.728 367.022 318.333 365.694L337.751 323.009C338.325 321.786 338.211 320.343 337.452 319.23C336.693 318.117 335.407 317.506 334.085 317.631C332.763 317.757 331.609 318.598 331.063 319.835L312.638 360.34H266.938C264.901 360.34 263.25 362.026 263.25 364.106C263.25 366.187 264.901 367.873 266.938 367.873Z" fill="#018ABE" />
        <path d="M257.589 353.152C267.304 353.008 276.937 347.136 281.724 347.994C286.51 348.852 302.14 359.844 300.174 360.272C298.207 360.699 285.809 354.189 285.374 354.09C284.939 353.991 282.277 358.599 275.659 360.29C269.041 361.982 275.614 355.263 255.101 361.544C241.775 365.63 257.589 353.152 257.589 353.152Z" fill="#ECC4A6" />
        <path fill-rule="evenodd" clip-rule="evenodd" d="M178.999 284.569L177.595 296.395C177.595 296.395 189.951 297.165 196.097 300.786C202.244 304.407 211.317 314.862 211.317 314.862L203.907 301.51L202.837 292.966L178.999 284.569Z" fill="#018ABE" />
        <path fill-rule="evenodd" clip-rule="evenodd" d="M184.462 299.261C193.735 297.488 198.024 305.96 204.036 319.791C210.047 333.622 220.309 350.415 222.356 352.582C224.402 354.75 256.745 352.582 256.745 352.582C256.745 352.582 257.723 362.135 256.745 363.274C255.766 364.414 250.176 364.273 250.176 364.273C250.176 364.273 247.938 366.096 245.842 367.537C243.745 368.978 225.988 371.687 217.742 371.273C209.495 370.86 201.942 370.131 200.825 368.847C199.707 367.564 177.2 332.207 175.8 319.518C174.4 306.83 179.731 300.168 184.462 299.261Z" fill="#018ABE" />
        <path d="M211.212 241.417C228.747 242.27 225.999 269.049 225.999 269.049C225.999 269.049 221.442 270.478 211.902 268.881C212.635 266.006 212.321 258.663 212.321 258.663C212.321 258.663 211.212 264.622 209.803 268.241C207.788 269.181 205.506 268.347 201.625 267.396C199.633 275.898 194.003 279.501 190.148 280.731C185.89 282.091 181.383 283.712 176.35 281.156C171.317 278.6 174.084 252.488 176.756 247.236C180.768 239.356 187.434 232.299 198.968 236.024C204.752 237.894 211.212 241.417 211.212 241.417Z" fill="#242526" />
        <path d="M180.968 273.389L173.861 283.992C173.861 283.992 181.736 304.098 158.835 313.208C140.899 320.344 143.013 332.914 151.116 345.547C159.219 358.181 146.265 369.25 146.265 369.25C146.265 369.25 144.291 355.246 126.864 352.601C103.102 348.998 96.3734 316.394 114.12 300.092C128.809 286.603 133.275 297.776 143.218 285.67C153.16 273.564 171.926 281.739 171.926 281.739L178.805 271.488L180.968 273.389Z" fill="#242526" />
        <path d="M105.626 332.762C105.733 332.763 105.839 332.735 105.932 332.682C106.082 332.602 106.194 332.464 106.243 332.3C106.292 332.136 106.274 331.959 106.194 331.808C100.177 320.658 105.085 307.151 107.557 303.491C107.818 303.104 108.067 302.709 108.342 302.294C110.772 298.453 113.796 293.676 129.932 290.733C133.819 290.026 136.966 287.687 140.297 285.211C147.177 280.097 154.978 274.299 171.922 282.197C172.133 282.317 172.392 282.307 172.593 282.17C172.793 282.033 172.9 281.794 172.869 281.551C172.838 281.308 172.674 281.104 172.445 281.024C154.818 272.814 146.698 278.847 139.533 284.17C136.323 286.554 133.291 288.808 129.696 289.467C113.011 292.508 109.814 297.55 107.259 301.6C106.997 302.008 106.756 302.394 106.505 302.765C103.913 306.597 98.7617 320.751 105.074 332.428C105.186 332.631 105.396 332.759 105.626 332.762Z" fill="#303C60" />
        <path d="M184.436 283.881C185.686 283.873 186.935 283.77 188.171 283.573C194.324 282.634 202.576 279.069 203.225 259.046C203.217 258.7 202.945 258.419 202.605 258.408C202.265 258.397 201.976 258.658 201.946 259.003C201.684 267.258 200.075 273.362 197.174 277.152C194.972 280.032 192.05 281.662 187.987 282.283C182.294 283.153 178.519 282.082 176.771 279.098C176.653 278.896 176.439 278.774 176.209 278.777C175.978 278.78 175.767 278.908 175.655 279.113C175.542 279.318 175.545 279.568 175.663 279.77C177.267 282.502 180.209 283.881 184.436 283.881Z" fill="#303C60" />
        <path fill-rule="evenodd" clip-rule="evenodd" d="M263.25 514.516H267.939L286.181 372.004H275.865L263.25 514.516Z" fill="#BABFC7" />
    </g>
    <path opacity="0.025797" fill-rule="evenodd" clip-rule="evenodd" d="M218.768 480.362C222.208 476.844 227.792 476.844 231.232 480.362L335.071 586.557C338.502 590.065 338.502 595.747 335.071 599.256L231.232 705.451C227.792 708.969 222.208 708.969 218.768 705.451L114.929 599.256C111.498 595.747 111.498 590.065 114.929 586.557L218.768 480.362Z" fill="#018ABE" />
    <defs>
        <filter id="filter0_f_1611:46643" x="331.078" y="178.568" width="152.552" height="155.608" filterUnits="userSpaceOnUse" color-interpolation-filters="sRGB">
            <feFlood flood-opacity="0" result="BackgroundImageFix" />
            <feBlend mode="normal" in="SourceGraphic" in2="BackgroundImageFix" result="shape" />
            <feGaussianBlur stdDeviation="4.07742" result="effect1_foregroundBlur_1611:46643" />
        </filter>
    </defs>
</svg>