<svg width="24" height="24" viewBox="0 0 24 24" fill="none" xmlns="http://www.w3.org/2000/svg">
<path d="M14.0014 8C14.0014 9.10457 13.1061 10 12.0017 10C10.8973 10 10.002 9.10457 10.002 8C10.002 6.89543 10.8973 6 12.0017 6C13.1061 6 14.0014 6.89543 14.0014 8Z" stroke="#555555" stroke-width="2" stroke-linejoin="round"/>
<path d="M21.0004 10.5C21.0004 11.0523 20.5528 11.5 20.0006 11.5C19.4484 11.5 19.0007 11.0523 19.0007 10.5C19.0007 9.94772 19.4484 9.5 20.0006 9.5C20.5528 9.5 21.0004 9.94772 21.0004 10.5Z" stroke="#555555" stroke-width="1.5" stroke-linejoin="round"/>
<path d="M5.00264 10.5C5.00264 11.0523 4.55499 11.5 4.00279 11.5C3.45058 11.5 3.00293 11.0523 3.00293 10.5C3.00293 9.94772 3.45058 9.5 4.00279 9.5C4.55499 9.5 5.00264 9.94772 5.00264 10.5Z" stroke="#555555" stroke-width="1.5" stroke-linejoin="round"/>
<path d="M6.72119 15.7043C6.72119 14.9044 7.24067 14.1973 8.00393 13.9581V13.9581C10.4085 13.2046 12.9861 13.2046 15.3907 13.9581V13.9581C16.1539 14.1973 16.6734 14.9044 16.6734 15.7043V16.9588H6.72119V15.7043Z" stroke="#555555" stroke-width="2" stroke-linejoin="round"/>
<path fill-rule="evenodd" clip-rule="evenodd" d="M4.23327 16.4686H1.49988V15.9854C1.49988 15.8476 1.58097 15.7495 1.66513 15.7165C2.49292 15.3923 3.37244 15.269 4.23956 15.3468C4.26362 14.831 4.35618 14.3326 4.50811 13.8661C3.368 13.7421 2.20687 13.8934 1.11807 14.3198C0.430225 14.5893 -0.00012207 15.262 -0.00012207 15.9854V17.2186C-0.00012207 17.6328 0.335664 17.9686 0.749878 17.9686H4.28565C4.25139 17.8219 4.23327 17.669 4.23327 17.5119V16.4686ZM19.1092 17.9686H23.2471C23.6613 17.9686 23.9971 17.6328 23.9971 17.2186V15.9854C23.9971 15.262 23.5667 14.5893 22.8789 14.3198C21.6064 13.8214 20.2351 13.6989 18.9141 13.9524C19.0578 14.42 19.1424 14.9182 19.1587 15.4329C20.215 15.2228 21.3126 15.3173 22.3318 15.7165C22.416 15.7495 22.4971 15.8476 22.4971 15.9854V16.4686H19.1616V17.5119C19.1616 17.669 19.1435 17.8219 19.1092 17.9686Z" fill="#555555"/>
</svg>
