<svg width="655" height="454" viewBox="0 0 655 454" fill="none" xmlns="http://www.w3.org/2000/svg">
    <g id="Illustration">
        <g id="Shape">
            <path id="Rectangle" opacity="0.150019" fill-rule="evenodd" clip-rule="evenodd" d="M473.319 217.107C469.402 213.199 469.402 206.854 473.319 202.947L553.517 122.946C557.42 119.052 563.738 119.052 567.642 122.946L647.839 202.947C651.756 206.854 651.756 213.199 647.839 217.107L567.642 297.108C563.738 301.001 557.42 301.001 553.517 297.108L473.319 217.107Z" fill="#BFE7FF" />
            <g id="Rectangle_2" opacity="0.0375744" filter="url(#filter0_f_1611:48472)">
                <path fill-rule="evenodd" clip-rule="evenodd" d="M194.731 69.3073C190.814 65.4001 190.814 59.055 194.731 55.1478L238.799 11.1877C242.702 7.29405 249.021 7.29406 252.924 11.1877L296.992 55.1478C300.909 59.055 300.909 65.4001 296.992 69.3073L252.924 113.267C249.021 117.161 242.702 117.161 238.799 113.267L194.731 69.3073Z" fill="#018ABE" />
            </g>
            <path id="Rectangle_3" opacity="0.0659412" fill-rule="evenodd" clip-rule="evenodd" d="M242.043 221.678C238.126 217.771 238.126 211.426 242.042 207.518L410.191 39.7823C414.095 35.8886 420.413 35.8886 424.316 39.7823L592.465 207.518C596.382 211.426 596.382 217.771 592.465 221.678L424.316 389.414C420.413 393.308 414.095 393.308 410.191 389.414L242.043 221.678Z" fill="#018ABE" />
            <path id="Rectangle_4" opacity="0.0895647" fill-rule="evenodd" clip-rule="evenodd" d="M128.916 217.212C125.097 213.393 118.898 213.401 115.069 217.229L6.93188 325.366C3.10351 329.195 3.09589 335.394 6.91486 339.213L114.787 447.085C118.606 450.904 124.805 450.896 128.633 447.068L236.771 338.931C240.599 335.102 240.607 328.903 236.788 325.084L128.916 217.212ZM55.387 332.23L121.933 265.684L188.316 332.067L121.77 398.613L55.387 332.23Z" fill="#018ABE" />
        </g>
        <g id="Illustration_2">
            <g id="Chair4">
                <path id="Path" fill-rule="evenodd" clip-rule="evenodd" d="M398.996 329.203L383.336 452.509L391.546 452.4L407.207 330.358L398.996 329.203Z" fill="#C5C5C5" />
                <path id="Path_2" fill-rule="evenodd" clip-rule="evenodd" d="M405.653 329.203L421.313 452.509L413.103 452.4L397.443 330.358L405.653 329.203Z" fill="#C3C3C3" />
                <path id="Path_3" fill-rule="evenodd" clip-rule="evenodd" d="M453.393 329.203L469.054 452.509L460.843 452.4L445.183 330.358L453.393 329.203Z" fill="#C3C3C3" />
                <path id="Path_4" fill-rule="evenodd" clip-rule="evenodd" d="M345.599 348.585C339.475 348.585 334.511 343.621 334.511 337.497V333.909C334.511 327.785 339.475 322.821 345.599 322.821H402.84C408.56 322.821 413.341 318.47 413.879 312.775L422.833 217.902C423.37 212.207 428.152 207.856 433.872 207.856H474.439C480.899 207.856 485.991 213.356 485.494 219.796L476.354 338.35C475.909 344.126 471.092 348.585 465.299 348.585H345.599Z" fill="#C5C5C5" />
                <path id="Combined Shape" fill-rule="evenodd" clip-rule="evenodd" d="M472.419 207.856L463.334 325.362C462.887 331.137 458.071 335.595 452.279 335.595H334.511V333.582C334.511 327.459 339.475 322.494 345.599 322.494H402.651C408.37 322.494 413.151 318.145 413.69 312.451L422.639 217.899C423.178 212.206 427.959 207.856 433.678 207.856H472.419Z" fill="#B2B0B0" />
            </g>
            <g id="Wom3.4">
                <g id="LLeg">
                    <path id="Path_5" fill-rule="evenodd" clip-rule="evenodd" d="M344.782 412.379C344.782 412.379 351.565 428.644 346.004 432.955C340.435 437.267 329.605 447.931 329.605 447.931L364.696 440.32L356.034 410.48L344.782 412.379Z" fill="url(#paint0_linear_1611:48472)" />
                    <path id="Path_6" fill-rule="evenodd" clip-rule="evenodd" d="M346.797 423.09C346.797 423.09 347.659 430.722 345.17 433.327C342.682 435.93 329.208 445.844 328.153 447.725C327.098 449.607 328.985 451.683 328.985 451.683C328.985 451.683 343.538 452.948 350.083 448.971C354.809 446.098 361.856 440.94 361.856 440.94L363.722 446.012L369.013 445.796C369.013 445.796 369.714 439.546 368.458 436.55C367.203 433.553 360.737 418.3 360.737 418.3C360.737 418.3 358.248 420.535 355.603 421.662C352.959 422.787 349.646 425.87 349.646 425.87L346.797 423.09Z" fill="#323740" />
                    <path id="Path_7" fill-rule="evenodd" clip-rule="evenodd" d="M403.488 291.793C391.69 292.319 326.025 306.824 314.094 309.288C302.164 311.752 292.078 325.086 301.175 340.527C311.393 357.859 337.757 407.083 344.158 418.179C347.326 423.672 363.309 420.592 359.555 411.374C352.556 394.19 349.306 351.021 331.462 335.281C331.462 335.281 391.47 345.71 417.39 333.763C436.229 325.079 431.967 290.521 403.488 291.793Z" fill="#42474F" />
                </g>
                <g id="LArm">
                    <path id="Path_8" fill-rule="evenodd" clip-rule="evenodd" d="M321.187 215.662C321.187 215.662 321.32 206.074 317.962 201.064C314.604 196.054 314.471 190.732 311.929 190.906C309.388 191.08 311.904 203.451 311.904 203.451C311.904 203.451 308.68 202.22 306.363 200.664C304.047 199.108 297.023 191.436 295.381 192.796C292.598 195.112 297.081 208.178 299.522 210.791C301.972 213.404 315.354 221.996 315.354 221.996L348.131 255.469L354.285 238.464L321.187 215.662Z" fill="#FFE0D1" />
                    <path id="Path_9" fill-rule="evenodd" clip-rule="evenodd" d="M393.69 212.499C388.201 225.212 378.152 248.566 374.01 255.533C368.818 264.259 360.631 268.103 351.046 261.629C348.501 259.91 340.749 253.344 340.749 253.344L350.13 232.725L356.215 237.74C356.215 237.74 366.515 211.372 374.8 196.097C381.976 182.882 402.044 193.173 393.69 212.499Z" fill="#FFB66F" />
                    <path id="Path_10" fill-rule="evenodd" clip-rule="evenodd" d="M356.109 237.754C356.109 237.754 353.343 247.124 352.696 246.582C352.05 246.039 353.19 235.305 353.19 235.305L356.109 237.754Z" fill="black" fill-opacity="0.159856" />
                    <path id="Path 65" fill-rule="evenodd" clip-rule="evenodd" d="M352.463 233.866L344.618 260.105L336.285 253.574L347.883 230.312L352.463 233.866Z" fill="#FFEDC2" />
                </g>
                <g id="Head">
                    <g id="Group 21">
                        <path id="Path_11" fill-rule="evenodd" clip-rule="evenodd" d="M403.639 123.796C403.639 123.796 407.761 116.999 414.297 117.51C420.833 118.02 428.764 127.979 428.349 139.014C427.947 150.046 430.38 151.782 435.068 158.163C447.669 175.331 428.196 195.429 428.196 195.429L402.32 195.436L401.334 147.308L403.639 123.796Z" fill="#42474F" />
                        <path id="Path 50" fill-rule="evenodd" clip-rule="evenodd" d="M413.904 127.773C431.537 139.81 421.431 153.778 419.666 157.057C416.273 180.921 423.268 182.146 433.822 187.479L430.151 194.04L415.025 191.193L402.267 128.978L413.904 127.773Z" fill="black" fill-opacity="0.199355" />
                    </g>
                    <path id="Path_12" fill-rule="evenodd" clip-rule="evenodd" d="M422.223 185.862C422.223 185.862 413.235 184.058 412.968 171.467C412.701 158.876 414.182 154.578 414.182 154.578L397.233 154.272C397.233 154.272 397.049 168.305 397.046 173.381C397.039 185.722 387.527 187.154 387.527 187.154C387.527 187.154 389.505 196.916 404.862 197.779C416.853 198.453 422.223 185.862 422.223 185.862Z" fill="#F9C7B0" />
                    <g id="Group 20">
                        <path id="Path_13" fill-rule="evenodd" clip-rule="evenodd" d="M413.555 127.363C414.171 120.1 402.186 118.334 399.966 123.944C399.966 123.944 399.357 128.943 403.258 130.893C408.533 133.521 413.555 127.363 413.555 127.363Z" fill="#FB9934" />
                        <path id="Path_14" fill-rule="evenodd" clip-rule="evenodd" d="M415.155 146.069C422.489 144.211 423.581 155.28 415.896 156.898C415.896 156.898 414.698 173.206 399.206 176.499C386.625 179.173 382.001 161.446 381.128 157.899C380.196 154.117 377.521 141.611 377.521 141.611L412.905 134.073L415.155 146.069Z" fill="#FFE0D1" />
                        <path id="Path_15" fill-rule="evenodd" clip-rule="evenodd" d="M412.691 153.561C411.359 153.485 409.534 146.576 409.534 146.576C405.608 146.63 404.764 145.921 400.925 141.861C388.852 147.241 380.441 149.888 381.297 159.372C381.297 159.372 367.261 140.037 382.287 128.911C395.506 119.134 412.279 122.114 417.448 133.184C421.104 140.996 420.199 147.496 420.199 147.496C420.199 147.496 417.633 144.854 414.648 146.285C411.663 147.715 414.024 153.638 412.691 153.561Z" fill="#42474F" />
                        <path id="Path_16" d="M399.999 165.546C399.999 165.546 396.972 169.451 392.078 167.437" stroke="#F77B7B" stroke-width="1.5" stroke-linecap="round" />
                        <path id="Path_17" d="M398.331 169.677C397.295 170.45 396.198 170.724 395.099 170.406" stroke="#F49494" stroke-linecap="round" />
                        <path id="Path 8" d="M415.636 152.044C415.191 150.326 415.428 148.836 417.141 148.183" stroke="#F77B7B" stroke-linecap="round" />
                    </g>
                </g>
                <g id="Group 19">
                    <path id="Path_18" fill-rule="evenodd" clip-rule="evenodd" d="M391.07 185.471C390.864 185.461 383.616 188.637 382.781 189.862C377.344 197.838 367.361 225.913 366.847 232.003C366.268 239.028 376.396 250.219 376.52 260.389C376.63 270.561 372.188 301.186 373.911 304.046C375.621 306.907 386.856 320.496 389.2 320.552C391.558 320.607 393.317 313.473 396.888 313.628C400.445 313.783 407.862 323.242 411.06 323.174C414.245 323.105 447.25 302.197 444.727 296.24C442.19 290.283 430.417 275.479 431.616 267.362C432.802 259.246 442.273 229.288 445.692 219.091C449.097 208.895 451.841 200.773 445.485 196.385C439.13 191.998 418.45 183.972 418.45 183.972L399.935 194.329C399.935 194.329 392.145 185.523 391.07 185.471Z" fill="#FF9F43" />
                    <path id="Path_19" fill-rule="evenodd" clip-rule="evenodd" d="M397.655 194.041C392.101 212.508 384.48 230.703 381.428 248.019L390.306 243.236L398.495 249.441C397.917 231.438 400.94 212.536 402.329 194.041H397.655Z" fill="#FFF6E1" />
                    <path id="Path_20" fill-rule="evenodd" clip-rule="evenodd" d="M430.089 208.22L430.3 209.714C432.788 228.258 429.844 250.761 424.742 254.194C419.534 257.699 399.263 254.26 399.263 257.035C399.263 259.811 427.276 285.246 422.677 297.405C420.149 304.091 420.995 310.036 425.217 315.242L426.443 314.418C436.011 307.929 446.169 299.643 444.727 296.24C442.191 290.283 430.417 275.478 431.617 267.362C432.755 259.571 441.529 231.649 445.254 220.407L446.441 216.842C447.82 212.663 448.968 208.877 449.245 205.611L448.389 205.056C434.707 196.285 428.607 197.34 430.089 208.22Z" fill="black" fill-opacity="0.159856" />
                    <path id="Path_21" fill-rule="evenodd" clip-rule="evenodd" d="M421.867 185.28L418.45 183.972L399.528 193.793C399.528 193.793 403.086 202.847 409.387 198.338C414.787 194.483 412.509 191.091 416.742 189.341C420.961 187.591 421.867 185.28 421.867 185.28Z" fill="#FFF6E1" />
                    <path id="Path_22" fill-rule="evenodd" clip-rule="evenodd" d="M399.529 193.793C398.158 196.84 395.369 198.62 393.927 198.066C391.548 197.152 392.57 193.51 391.632 191.671C390.96 190.366 390.526 190.169 389.939 188.943C389.393 187.819 389.37 186.47 389.51 186.097L391.372 185.251C391.372 185.251 393.93 187.664 395.12 188.943C396.603 190.537 399.529 193.793 399.529 193.793Z" fill="#FFF6E1" />
                </g>
                <g id="RArm">
                    <path id="Path_23" fill-rule="evenodd" clip-rule="evenodd" d="M420.362 242.705C420.362 242.705 409.222 232.859 405.812 231.716C402.401 230.573 382.429 229.201 382.555 231.783C382.698 234.549 393.426 234.39 394.537 235.751C395.648 237.111 395.901 246.412 400.103 247.457C404.296 248.501 416.867 250.301 416.867 250.301L446.938 268.413L448.223 251.864L420.362 242.705Z" fill="#FFE0D1" />
                    <path id="Path_24" fill-rule="evenodd" clip-rule="evenodd" d="M449.996 201.014C461.733 217.557 471.753 242.755 475.6 252.579C479.446 262.403 475.566 277.221 458.653 274.312C455.797 273.821 449.391 271.851 449.391 271.851L445.349 249.098L450.562 251.284C450.562 251.284 433.752 221.527 429.648 213.55C422.791 200.228 439.659 186.439 449.996 201.014Z" fill="#FFB66F" />
                    <path id="Path_25" fill-rule="evenodd" clip-rule="evenodd" d="M450.563 251.284C450.563 251.284 459.101 255.449 458.027 253.617C456.954 251.785 447.342 245.498 447.342 245.498L450.563 251.284Z" fill="black" fill-opacity="0.159856" />
                    <path id="Path 64" fill-rule="evenodd" clip-rule="evenodd" d="M449.748 250.233L452.54 274.836L441.499 271.331L443.165 247.22L449.748 250.233Z" fill="#FFEDC2" />
                </g>
                <g id="RLeg">
                    <path id="Path_26" fill-rule="evenodd" clip-rule="evenodd" d="M303.803 412.929C303.803 412.929 304.008 429.032 290.721 435.053C277.443 441.073 267.983 440.71 269.187 445.365C270.391 450.019 304.953 449.831 308.18 446.191C310.931 443.094 316.913 414.261 318.561 416.465L303.803 412.929Z" fill="url(#paint1_linear_1611:48472)" />
                    <path id="Path_27" fill-rule="evenodd" clip-rule="evenodd" d="M316.195 425.623C316.195 425.623 313.403 432.461 313.157 436.606C312.91 440.752 306.554 452.536 306.554 452.536L301.532 453.165L301.074 448.893C301.074 448.893 293.805 451.986 289.245 452.48C284.687 452.975 269.048 451.119 265.938 448.537C262.827 445.956 264.399 442.322 273.376 440.108C282.351 437.893 296.298 431.423 298.951 426.739C301.605 422.053 301.621 422.174 301.621 422.174L301.568 429.981C301.568 429.981 303.865 425.872 306.577 425.324C309.288 424.776 316.195 425.623 316.195 425.623Z" fill="#323740" />
                    <path id="Path_28" fill-rule="evenodd" clip-rule="evenodd" d="M439.163 286.815C439.163 286.815 461.488 320.409 434.797 335.414C412.003 348.228 341.701 333.218 341.701 333.218C341.701 333.218 342.948 343.245 341.701 352.188C338.444 375.544 322.954 414.456 319.677 419.345C315.145 426.107 301.34 421.007 301.08 415.377C300.82 409.747 311.487 337.843 313.109 324.131C314.723 310.419 319.818 308.427 334.699 304.679C338.117 303.817 378.545 293.784 382.248 294.076C414.07 296.589 439.163 286.815 439.163 286.815Z" fill="#42474F" />
                    <path id="Path_29" opacity="0.439941" fill-rule="evenodd" clip-rule="evenodd" d="M422.946 331.68C399.867 334.263 338.767 328.939 336.313 331.358C333.97 333.668 334.361 373.849 329.105 397.105C334.283 383.013 339.887 365.19 341.7 352.188C342.947 343.245 341.7 333.218 341.7 333.218L344.087 333.694C356.544 336.11 414.291 346.485 434.796 335.413C446.823 328.919 451.476 318.865 448.756 305.25C445.476 321.311 436.872 330.121 422.946 331.68Z" fill="white" fill-opacity="0.192499" />
                    <ellipse id="Oval" rx="3.87872" ry="7.10264" transform="matrix(-0.97437 0.224951 0.224951 0.97437 303.267 325.972)" fill="white" fill-opacity="0.192499" />
                    <ellipse id="Oval_2" rx="5.17146" ry="7.74859" transform="matrix(-0.961262 -0.275637 -0.275637 0.961262 321.369 321.453)" fill="white" fill-opacity="0.192499" />
                </g>
            </g>
            <g id="Example Task1">
                <g id="Group 3">
                    <path id="Rectangle_5" d="M261.471 194.838C260.64 193.296 261.637 191.404 263.379 191.218L301.38 187.168C302.356 187.064 303.301 187.55 303.785 188.404L328.028 231.223C328.869 232.708 327.982 234.577 326.3 234.865L288.458 241.356C287.415 241.535 286.374 241.028 285.872 240.097L261.471 194.838Z" fill="#018ABE" />
                    <path id="Rectangle_6" fill-rule="evenodd" clip-rule="evenodd" d="M263.122 194.722C262.328 193.227 263.242 191.395 264.915 191.131L301.98 185.298C303.018 185.135 304.045 185.648 304.538 186.575L327.846 230.412C328.641 231.906 327.726 233.739 326.054 234.002L288.989 239.836C287.951 239.999 286.924 239.486 286.431 238.558L263.122 194.722Z" fill="url(#paint2_linear_1611:48472)" />
                    <path id="Rectangle_7" d="M264.938 193.854L302.769 187.432L326.042 231.203L288.393 236.909L264.938 193.854Z" fill="white" />
                    <path id="Rectangle_8" d="M274.332 188.016C274.042 187.524 274.348 186.895 274.914 186.818L290.301 184.733C290.94 184.646 291.568 184.951 291.895 185.507L294.863 190.55C295.153 191.043 294.848 191.672 294.281 191.749L278.895 193.834C278.256 193.92 277.628 193.615 277.301 193.06L274.332 188.016Z" fill="#018ABE" />
                    <path id="Path_30" fill-rule="evenodd" clip-rule="evenodd" d="M294.464 200.209C294.968 199.941 295.593 200.132 295.861 200.636C296.11 201.104 295.963 201.676 295.537 201.97L295.434 202.033L278.598 204.858C278.094 205.126 277.468 204.935 277.201 204.431C276.952 203.964 277.099 203.391 277.525 203.097L277.628 203.035L294.464 200.209Z" fill="#81C0D8" />
                    <path id="Path_31" fill-rule="evenodd" clip-rule="evenodd" d="M299.312 209.328C299.816 209.06 300.441 209.252 300.709 209.755C300.957 210.223 300.81 210.795 300.385 211.089L300.282 211.152L283.445 213.978C282.942 214.245 282.316 214.054 282.048 213.551C281.8 213.083 281.947 212.51 282.372 212.216L282.475 212.154L299.312 209.328Z" fill="#81C0D8" />
                    <path id="Path_32" fill-rule="evenodd" clip-rule="evenodd" d="M304.161 218.447C304.664 218.179 305.29 218.37 305.557 218.874C305.806 219.341 305.659 219.914 305.233 220.208L305.13 220.271L288.294 223.096C287.79 223.364 287.165 223.173 286.897 222.669C286.648 222.202 286.795 221.629 287.221 221.335L287.324 221.272L304.161 218.447Z" fill="#81C0D8" />
                </g>
            </g>
            <g id="Group 26">
                <g id="Group 25">
                    <path id="Rectangle_9" fill-rule="evenodd" clip-rule="evenodd" d="M261.47 287.982H287.518V453.503H261.47V287.982Z" fill="#C5C5C5" />
                    <path id="Rectangle_10" fill-rule="evenodd" clip-rule="evenodd" d="M261.47 281.479H277.098V453.503H261.47V281.479Z" fill="#DBDBDB" />
                    <path id="Rectangle_11" fill-rule="evenodd" clip-rule="evenodd" d="M142.962 287.982H271.898V337.627H169.01V453.503H142.962V287.982Z" fill="#C5C5C5" />
                    <path id="Rectangle_12" fill-rule="evenodd" clip-rule="evenodd" d="M142.962 287.982H158.591V453.503H142.962V287.982Z" fill="#DBDBDB" />
                </g>
                <g id="Group 25_2">
                    <path id="Rectangle_13" fill-rule="evenodd" clip-rule="evenodd" d="M465.402 287.982H491.45V453.502H465.402V287.982Z" fill="#C5C5C5" />
                    <path id="Rectangle_14" fill-rule="evenodd" clip-rule="evenodd" d="M346.896 287.982H475.833V349.435H372.944V453.502H346.896V287.982Z" fill="#C5C5C5" />
                    <path id="Rectangle_15" fill-rule="evenodd" clip-rule="evenodd" d="M163.79 281.479L362.373 281.479V349.314H163.79V281.479Z" fill="#DBDBDB" />
                    <path id="Rectangle_16" fill-rule="evenodd" clip-rule="evenodd" d="M342.988 287.982H358.617V349.314H342.988V287.982Z" fill="#C3C3C3" />
                    <path id="Rectangle_17" fill-rule="evenodd" clip-rule="evenodd" d="M346.896 287.982H362.525V453.502H346.896V287.982Z" fill="#DBDBDB" />
                    <path id="Rectangle_18" fill-rule="evenodd" clip-rule="evenodd" d="M352.169 291.233C352.169 285.846 356.536 281.479 361.923 281.479L496.035 281.479C501.422 281.479 505.789 285.846 505.789 291.233C505.789 296.62 501.422 300.987 496.035 300.987H361.923C356.536 300.987 352.169 296.62 352.169 291.233Z" fill="#C5C5C5" />
                    <path id="Rectangle_19" fill-rule="evenodd" clip-rule="evenodd" d="M148.313 285.381H346.896V304.889H148.313V285.381Z" fill="#C3C3C3" />
                    <path id="Rectangle_20" fill-rule="evenodd" clip-rule="evenodd" d="M129.037 291.233C129.037 285.846 133.404 281.479 138.791 281.479H365.794C371.181 281.479 375.549 285.846 375.549 291.233C375.549 296.62 371.181 300.987 365.794 300.987H138.791C133.404 300.987 129.037 296.62 129.037 291.233Z" fill="#DBDBDB" />
                </g>
            </g>
            <g id="Cup">
                <path id="Path_33" fill-rule="evenodd" clip-rule="evenodd" d="M394.442 263.993H400.98C402.242 263.993 403.266 264.965 403.266 266.165V269.139C403.266 271.981 400.84 274.285 397.848 274.285H394.442C393.901 274.285 393.463 273.868 393.463 273.354C393.463 272.84 393.901 272.424 394.442 272.424H397.848C399.758 272.424 401.306 270.953 401.306 269.139V266.165C401.306 265.993 401.16 265.854 400.98 265.854H394.442C393.901 265.854 393.463 265.438 393.463 264.924C393.463 264.41 393.901 263.993 394.442 263.993Z" fill="#5BBDE2" />
                <path id="Path_34" fill-rule="evenodd" clip-rule="evenodd" d="M372.735 261.626C371.292 261.626 370.123 262.737 370.123 264.108V270.312C370.123 274.779 373.673 278.458 378.239 278.943L378.24 280.239H389.676L389.676 278.915C394.127 278.33 397.555 274.701 397.555 270.312V264.108C397.555 262.737 396.385 261.626 394.942 261.626H372.735Z" fill="#018ABE" />
                <path id="Rectangle_21" fill-rule="evenodd" clip-rule="evenodd" d="M398.041 279.638C398.041 279.285 397.755 278.998 397.401 278.998H371.249C370.896 278.998 370.609 279.285 370.609 279.638C370.609 279.976 370.872 280.255 371.209 280.277L380.857 280.886H387.715L397.441 280.276C397.778 280.255 398.041 279.976 398.041 279.638Z" fill="#5BBDE2" />
            </g>
            <g id="FacingBack Laptop3">
                <path id="Rectangle_22" fill-rule="evenodd" clip-rule="evenodd" d="M221.157 279.148C221.157 278.164 221.955 277.366 222.939 277.366H348.402C349.386 277.366 350.184 278.164 350.184 279.148C350.184 280.132 349.386 280.929 348.402 280.929H222.939C221.955 280.929 221.157 280.132 221.157 279.148Z" fill="#5BBDE2" />
                <path id="Rectangle_23" fill-rule="evenodd" clip-rule="evenodd" d="M306.151 279.148C306.151 278.164 306.949 277.366 307.933 277.366H348.402C349.386 277.366 350.183 278.164 350.183 279.148C350.183 280.132 349.386 280.929 348.402 280.929H307.933C306.949 280.929 306.151 280.132 306.151 279.148Z" fill="#018ABE" />
                <path id="Rectangle_24" fill-rule="evenodd" clip-rule="evenodd" d="M214.92 227.634C214.642 225.48 216.319 223.573 218.49 223.573L298.853 223.573C300.663 223.573 302.192 224.918 302.423 226.713L308.449 273.46C308.727 275.613 307.049 277.52 304.878 277.52H224.516C222.706 277.52 221.177 276.176 220.946 274.38L214.92 227.634Z" fill="#018ABE" />
                <path id="Rectangle_25" fill-rule="evenodd" clip-rule="evenodd" d="M214.92 227.634C214.642 225.48 216.319 223.573 218.49 223.573L296.071 223.573C297.881 223.573 299.41 224.918 299.641 226.713L305.667 273.46C305.945 275.613 304.268 277.52 302.097 277.52H224.516C222.706 277.52 221.177 276.176 220.946 274.38L214.92 227.634Z" fill="url(#paint3_linear_1611:48472)" />
                <ellipse id="Oval_3" cx="258.864" cy="251.405" rx="5.5226" ry="6.01559" transform="rotate(-37 258.864 251.405)" fill="white" />
            </g>
            <g id="Group 79">
                <g id="Group 86">
                    <path id="Path 113" fill-rule="evenodd" clip-rule="evenodd" d="M485.24 391.654C496.008 367.337 505.79 342.363 514.745 316.838C494.118 336.246 478.077 359.892 480.362 391.654H485.24Z" fill="#57E295" />
                    <path id="Rectangle_26" fill-rule="evenodd" clip-rule="evenodd" d="M479.501 394.193C476.952 352.73 478.032 314.222 499.391 292.233C496.445 337.758 490.934 369.828 483.954 394.193H479.501Z" fill="#28C76F" />
                    <path id="Path 112" fill-rule="evenodd" clip-rule="evenodd" d="M478.521 389.875C466.588 360.901 454.597 352.595 444.685 322.853C477.124 339.646 479.158 353.512 485.525 389.875H478.521Z" fill="#57E295" />
                    <path id="Path 114" fill-rule="evenodd" clip-rule="evenodd" d="M472.099 389.875L450.691 360.9C461.03 363.843 478.312 368.607 478.312 389.875H472.099Z" fill="#28C76F" />
                    <path id="Path 116" fill-rule="evenodd" clip-rule="evenodd" d="M492.121 389.876H499.263C503.801 380.416 510.196 373.903 525.669 381.797C515.527 366.375 494.718 361.708 492.121 389.876Z" fill="#57E295" />
                    <path id="Path 117" fill-rule="evenodd" clip-rule="evenodd" d="M485.552 389.875H491.491C502.39 374.314 507.076 367.534 518.356 354.246C503.497 359.874 488.245 367.534 485.552 389.875Z" fill="#28C76F" />
                </g>
                <g id="Group 85">
                    <path id="Rectangle_27" fill-rule="evenodd" clip-rule="evenodd" d="M470.622 387.629H500.623C501.766 387.629 502.692 388.549 502.692 389.684V395.335C510.279 404.838 514.072 414.341 514.072 423.844C514.072 433.055 510.833 442.265 504.354 451.476C503.967 452.026 503.334 452.354 502.658 452.354H468.588C467.912 452.354 467.278 452.026 466.891 451.476C460.413 442.265 457.174 433.055 457.174 423.844C457.174 414.52 460.825 405.196 468.128 395.873L468.553 395.335V389.684C468.553 388.549 469.48 387.629 470.622 387.629Z" fill="#018ABE" />
                    <mask id="mask0_1611:48472" style="mask-type:alpha" maskUnits="userSpaceOnUse" x="457" y="387" width="58" height="66">
                        <path id="Rectangle_28" fill-rule="evenodd" clip-rule="evenodd" d="M470.622 387.629H500.623C501.766 387.629 502.692 388.549 502.692 389.684V395.335C510.279 404.838 514.072 414.341 514.072 423.844C514.072 433.055 510.833 442.265 504.354 451.476C503.967 452.026 503.334 452.354 502.658 452.354H468.588C467.912 452.354 467.278 452.026 466.891 451.476C460.413 442.265 457.174 433.055 457.174 423.844C457.174 414.52 460.825 405.196 468.128 395.873L468.553 395.335V389.684C468.553 388.549 469.48 387.629 470.622 387.629Z" fill="white" />
                    </mask>
                    <g mask="url(#mask0_1611:48472)">
                        <path id="Rectangle_29" fill-rule="evenodd" clip-rule="evenodd" d="M449.933 385.85H476.83C463.953 415.618 489.353 433.247 476.83 462.903H449.933V385.85Z" fill="#369AC0" />
                    </g>
                </g>
            </g>
        </g>
    </g>
    <defs>
        <filter id="filter0_f_1611:48472" x="183.638" y="0.112733" width="124.446" height="124.23" filterUnits="userSpaceOnUse" color-interpolation-filters="sRGB">
            <feFlood flood-opacity="0" result="BackgroundImageFix" />
            <feBlend mode="normal" in="SourceGraphic" in2="BackgroundImageFix" result="shape" />
            <feGaussianBlur stdDeviation="4.07742" result="effect1_foregroundBlur_1611:48472" />
        </filter>
        <linearGradient id="paint0_linear_1611:48472" x1="370.769" y1="401.364" x2="367.698" y2="445.993" gradientUnits="userSpaceOnUse">
            <stop stop-color="#FDC6C6" />
            <stop offset="1" stop-color="#FAB2B2" />
        </linearGradient>
        <linearGradient id="paint1_linear_1611:48472" x1="327.122" y1="404.174" x2="325.109" y2="447.14" gradientUnits="userSpaceOnUse">
            <stop stop-color="#FDC6C6" />
            <stop offset="1" stop-color="#FAB2B2" />
        </linearGradient>
        <linearGradient id="paint2_linear_1611:48472" x1="241.53" y1="160.897" x2="290.993" y2="253.923" gradientUnits="userSpaceOnUse">
            <stop stop-color="#018ABE" />
            <stop offset="1" stop-color="#73CCEE" />
        </linearGradient>
        <linearGradient id="paint3_linear_1611:48472" x1="207.159" y1="194.924" x2="207.159" y2="277.52" gradientUnits="userSpaceOnUse">
            <stop stop-color="#018ABE" />
            <stop offset="1" stop-color="#73CCEE" />
        </linearGradient>
    </defs>
</svg>